M48
; DRILL file {KiCad 7.0.10} date Thu Mar  7 22:32:42 2024
; FORMAT={-:-/ absolute / inch / decimal}
; #@! TF.CreationDate,2024-03-07T22:32:42+00:00
; #@! TF.GenerationSoftware,Kicad,Pcbnew,7.0.10
; #@! TF.FileFunction,NonPlated,1,2,NPTH
FMAT,2
INCH
; #@! TA.AperFunction,NonPlated,NPTH,ComponentDrill
T1C0.0669
; #@! TA.AperFunction,NonPlated,NPTH,ComponentDrill
T2C0.0670
; #@! TA.AperFunction,NonPlated,NPTH,ComponentDrill
T3C0.1181
; #@! TA.AperFunction,NonPlated,NPTH,ComponentDrill
T4C0.2067
%
G90
G05
T1
X2.9875Y-3.75
X2.9875Y-4.5
X2.9875Y-5.25
X2.9875Y-6.0
X2.9875Y-6.75
X3.3625Y-6.0
X3.3875Y-3.75
X3.3875Y-4.5
X3.3875Y-5.25
X3.3875Y-6.0
X3.3875Y-6.75
X3.7375Y-3.75
X3.7375Y-4.5
X3.7375Y-5.25
X3.7375Y-6.0
X3.7375Y-6.75
X3.7625Y-6.0
X4.1375Y-3.75
X4.1375Y-4.5
X4.1375Y-5.25
X4.1375Y-6.0
X4.1375Y-6.75
X4.4875Y-3.75
X4.4875Y-4.5
X4.4875Y-5.25
X4.4875Y-6.0
X4.4875Y-6.75
X4.8875Y-3.75
X4.8875Y-4.5
X4.8875Y-5.25
X4.8875Y-6.0
X4.8875Y-6.75
X5.2375Y-3.75
X5.2375Y-4.5
X5.2375Y-5.25
X5.2375Y-6.0
X5.2375Y-6.75
X5.6375Y-3.75
X5.6375Y-4.5
X5.6375Y-5.25
X5.6375Y-6.0
X5.6375Y-6.75
X5.9875Y-3.75
X5.9875Y-4.5
X5.9875Y-5.25
X5.9875Y-6.0
X5.9875Y-6.75
X6.3625Y-6.75
X6.3875Y-3.75
X6.3875Y-4.5
X6.3875Y-5.25
X6.3875Y-6.0
X6.3875Y-6.75
X6.7375Y-3.75
X6.7375Y-4.5
X6.7375Y-5.25
X6.7375Y-6.0
X6.7375Y-6.75
X6.7625Y-6.75
X7.1375Y-3.75
X7.1375Y-4.5
X7.1375Y-5.25
X7.1375Y-6.0
X7.1375Y-6.75
X7.4875Y-3.75
X7.4875Y-4.5
X7.4875Y-5.25
X7.4875Y-6.0
X7.4875Y-6.75
X7.8625Y-6.75
X7.8875Y-3.75
X7.8875Y-4.5
X7.8875Y-5.25
X7.8875Y-6.0
X7.8875Y-6.75
X8.2375Y-3.75
X8.2375Y-4.5
X8.2375Y-5.25
X8.2375Y-6.0
X8.2375Y-6.75
X8.2625Y-6.75
X8.6125Y-6.75
X8.6375Y-3.75
X8.6375Y-4.5
X8.6375Y-5.25
X8.6375Y-6.0
X8.6375Y-6.75
X8.9875Y-3.75
X8.9875Y-4.5
X8.9875Y-5.25
X8.9875Y-6.0
X8.9875Y-6.75
X9.0125Y-6.75
X9.3875Y-3.75
X9.3875Y-4.5
X9.3875Y-5.25
X9.3875Y-6.0
X9.3875Y-6.75
X9.7375Y-3.75
X9.7375Y-4.5
X9.7375Y-5.25
X9.7375Y-6.0
X9.7375Y-6.75
X10.1375Y-3.75
X10.1375Y-4.5
X10.1375Y-5.25
X10.1375Y-6.0
X10.1375Y-6.75
X10.4875Y-3.75
X10.4875Y-4.5
X10.4875Y-5.25
X10.4875Y-6.0
X10.4875Y-6.75
X10.8875Y-3.75
X10.8875Y-4.5
X10.8875Y-5.25
X10.8875Y-6.0
X10.8875Y-6.75
X11.2375Y-3.75
X11.2375Y-4.5
X11.2375Y-5.25
X11.2375Y-6.0
X11.2375Y-6.75
X11.6125Y-6.0
X11.6375Y-3.75
X11.6375Y-4.5
X11.6375Y-5.25
X11.6375Y-6.0
X11.6375Y-6.75
X11.9875Y-3.75
X11.9875Y-4.5
X11.9875Y-5.25
X11.9875Y-6.0
X11.9875Y-6.75
X12.0125Y-6.0
X12.3875Y-3.75
X12.3875Y-4.5
X12.3875Y-5.25
X12.3875Y-6.0
X12.3875Y-6.75
X12.7375Y-3.75
X12.7375Y-4.5
X12.7375Y-5.25
X12.7375Y-6.0
X12.7375Y-6.75
X13.1125Y-4.5
X13.1125Y-5.25
X13.1375Y-3.75
X13.1375Y-4.5
X13.1375Y-5.25
X13.1375Y-6.0
X13.1375Y-6.75
X13.4875Y-4.5
X13.4875Y-5.25
X13.4875Y-6.0
X13.4875Y-6.75
X13.5125Y-4.5
X13.5125Y-5.25
X13.8875Y-4.5
X13.8875Y-5.25
X13.8875Y-6.0
X13.8875Y-6.75
T2
X2.971Y-3.75
X2.971Y-4.5
X2.971Y-5.25
X2.971Y-6.0
X2.971Y-6.75
X3.346Y-6.0
X3.404Y-3.75
X3.404Y-4.5
X3.404Y-5.25
X3.404Y-6.0
X3.404Y-6.75
X3.721Y-3.75
X3.721Y-4.5
X3.721Y-5.25
X3.721Y-6.0
X3.721Y-6.75
X3.779Y-6.0
X4.154Y-3.75
X4.154Y-4.5
X4.154Y-5.25
X4.154Y-6.0
X4.154Y-6.75
X4.471Y-3.75
X4.471Y-4.5
X4.471Y-5.25
X4.471Y-6.0
X4.471Y-6.75
X4.904Y-3.75
X4.904Y-4.5
X4.904Y-5.25
X4.904Y-6.0
X4.904Y-6.75
X5.221Y-3.75
X5.221Y-4.5
X5.221Y-5.25
X5.221Y-6.0
X5.221Y-6.75
X5.654Y-3.75
X5.654Y-4.5
X5.654Y-5.25
X5.654Y-6.0
X5.654Y-6.75
X5.971Y-3.75
X5.971Y-4.5
X5.971Y-5.25
X5.971Y-6.0
X5.971Y-6.75
X6.346Y-6.75
X6.404Y-3.75
X6.404Y-4.5
X6.404Y-5.25
X6.404Y-6.0
X6.404Y-6.75
X6.721Y-3.75
X6.721Y-4.5
X6.721Y-5.25
X6.721Y-6.0
X6.721Y-6.75
X6.779Y-6.75
X7.154Y-3.75
X7.154Y-4.5
X7.154Y-5.25
X7.154Y-6.0
X7.154Y-6.75
X7.471Y-3.75
X7.471Y-4.5
X7.471Y-5.25
X7.471Y-6.0
X7.471Y-6.75
X7.846Y-6.75
X7.904Y-3.75
X7.904Y-4.5
X7.904Y-5.25
X7.904Y-6.0
X7.904Y-6.75
X8.221Y-3.75
X8.221Y-4.5
X8.221Y-5.25
X8.221Y-6.0
X8.221Y-6.75
X8.279Y-6.75
X8.596Y-6.75
X8.654Y-3.75
X8.654Y-4.5
X8.654Y-5.25
X8.654Y-6.0
X8.654Y-6.75
X8.971Y-3.75
X8.971Y-4.5
X8.971Y-5.25
X8.971Y-6.0
X8.971Y-6.75
X9.029Y-6.75
X9.404Y-3.75
X9.404Y-4.5
X9.404Y-5.25
X9.404Y-6.0
X9.404Y-6.75
X9.721Y-3.75
X9.721Y-4.5
X9.721Y-5.25
X9.721Y-6.0
X9.721Y-6.75
X10.154Y-3.75
X10.154Y-4.5
X10.154Y-5.25
X10.154Y-6.0
X10.154Y-6.75
X10.471Y-3.75
X10.471Y-4.5
X10.471Y-5.25
X10.471Y-6.0
X10.471Y-6.75
X10.904Y-3.75
X10.904Y-4.5
X10.904Y-5.25
X10.904Y-6.0
X10.904Y-6.75
X11.221Y-3.75
X11.221Y-4.5
X11.221Y-5.25
X11.221Y-6.0
X11.221Y-6.75
X11.596Y-6.0
X11.654Y-3.75
X11.654Y-4.5
X11.654Y-5.25
X11.654Y-6.0
X11.654Y-6.75
X11.971Y-3.75
X11.971Y-4.5
X11.971Y-5.25
X11.971Y-6.0
X11.971Y-6.75
X12.029Y-6.0
X12.404Y-3.75
X12.404Y-4.5
X12.404Y-5.25
X12.404Y-6.0
X12.404Y-6.75
X12.721Y-3.75
X12.721Y-4.5
X12.721Y-5.25
X12.721Y-6.0
X12.721Y-6.75
X13.096Y-4.5
X13.096Y-5.25
X13.154Y-3.75
X13.154Y-4.5
X13.154Y-5.25
X13.154Y-6.0
X13.154Y-6.75
X13.471Y-4.5
X13.471Y-5.25
X13.471Y-6.0
X13.471Y-6.75
X13.529Y-4.5
X13.529Y-5.25
X13.904Y-4.5
X13.904Y-5.25
X13.904Y-6.0
X13.904Y-6.75
T3
X2.9906Y-3.8996
X2.9906Y-4.6496
X2.9906Y-5.3996
X2.9906Y-6.1496
X2.9906Y-6.8996
X3.0143Y-3.935
X3.0143Y-4.685
X3.0143Y-5.435
X3.0143Y-6.185
X3.0143Y-6.935
X3.1875Y-3.9823
X3.1875Y-4.7323
X3.1875Y-5.4823
X3.1875Y-6.2323
X3.1875Y-6.9823
X3.2899Y-3.9764
X3.2899Y-4.7264
X3.2899Y-5.4764
X3.2899Y-6.2264
X3.2899Y-6.9764
X3.4601Y-5.7736
X3.5625Y-5.7677
X3.7357Y-5.815
X3.7406Y-3.8996
X3.7406Y-4.6496
X3.7406Y-5.3996
X3.7406Y-6.1496
X3.7406Y-6.8996
X3.7594Y-5.8504
X3.7643Y-3.935
X3.7643Y-4.685
X3.7643Y-5.435
X3.7643Y-6.185
X3.7643Y-6.935
X3.9375Y-3.9823
X3.9375Y-4.7323
X3.9375Y-5.4823
X3.9375Y-6.2323
X3.9375Y-6.9823
X4.0399Y-3.9764
X4.0399Y-4.7264
X4.0399Y-5.4764
X4.0399Y-6.2264
X4.0399Y-6.9764
X4.4906Y-3.8996
X4.4906Y-4.6496
X4.4906Y-5.3996
X4.4906Y-6.1496
X4.4906Y-6.8996
X4.5143Y-3.935
X4.5143Y-4.685
X4.5143Y-5.435
X4.5143Y-6.185
X4.5143Y-6.935
X4.6875Y-3.9823
X4.6875Y-4.7323
X4.6875Y-5.4823
X4.6875Y-6.2323
X4.6875Y-6.9823
X4.7899Y-3.9764
X4.7899Y-4.7264
X4.7899Y-5.4764
X4.7899Y-6.2264
X4.7899Y-6.9764
X5.2406Y-3.8996
X5.2406Y-4.6496
X5.2406Y-5.3996
X5.2406Y-6.1496
X5.2406Y-6.8996
X5.2643Y-3.935
X5.2643Y-4.685
X5.2643Y-5.435
X5.2643Y-6.185
X5.2643Y-6.935
X5.4375Y-3.9823
X5.4375Y-4.7323
X5.4375Y-5.4823
X5.4375Y-6.2323
X5.4375Y-6.9823
X5.5399Y-3.9764
X5.5399Y-4.7264
X5.5399Y-5.4764
X5.5399Y-6.2264
X5.5399Y-6.9764
X5.9906Y-3.8996
X5.9906Y-4.6496
X5.9906Y-5.3996
X5.9906Y-6.1496
X5.9906Y-6.8996
X6.0143Y-3.935
X6.0143Y-4.685
X6.0143Y-5.435
X6.0143Y-6.185
X6.0143Y-6.935
X6.1875Y-3.9823
X6.1875Y-4.7323
X6.1875Y-5.4823
X6.1875Y-6.2323
X6.1875Y-6.9823
X6.2899Y-3.9764
X6.2899Y-4.7264
X6.2899Y-5.4764
X6.2899Y-6.2264
X6.2899Y-6.9764
X6.3656Y-6.8996
X6.3893Y-6.935
X6.5625Y-6.9823
X6.6649Y-6.9764
X6.7406Y-3.8996
X6.7406Y-4.6496
X6.7406Y-5.3996
X6.7406Y-6.1496
X6.7406Y-6.8996
X6.7643Y-3.935
X6.7643Y-4.685
X6.7643Y-5.435
X6.7643Y-6.185
X6.7643Y-6.935
X6.9375Y-3.9823
X6.9375Y-4.7323
X6.9375Y-5.4823
X6.9375Y-6.2323
X6.9375Y-6.9823
X7.0399Y-3.9764
X7.0399Y-4.7264
X7.0399Y-5.4764
X7.0399Y-6.2264
X7.0399Y-6.9764
X7.4906Y-3.8996
X7.4906Y-4.6496
X7.4906Y-5.3996
X7.4906Y-6.1496
X7.4906Y-6.8996
X7.5143Y-3.935
X7.5143Y-4.685
X7.5143Y-5.435
X7.5143Y-6.185
X7.5143Y-6.935
X7.6875Y-3.9823
X7.6875Y-4.7323
X7.6875Y-5.4823
X7.6875Y-6.2323
X7.6875Y-6.9823
X7.7899Y-3.9764
X7.7899Y-4.7264
X7.7899Y-5.4764
X7.7899Y-6.2264
X7.7899Y-6.9764
X7.8656Y-6.8996
X7.8893Y-6.935
X8.0625Y-6.9823
X8.1649Y-6.9764
X8.2406Y-3.8996
X8.2406Y-4.6496
X8.2406Y-5.3996
X8.2406Y-6.1496
X8.2406Y-6.8996
X8.2643Y-3.935
X8.2643Y-4.685
X8.2643Y-5.435
X8.2643Y-6.185
X8.2643Y-6.935
X8.4375Y-3.9823
X8.4375Y-4.7323
X8.4375Y-5.4823
X8.4375Y-6.2323
X8.4375Y-6.9823
X8.5399Y-3.9764
X8.5399Y-4.7264
X8.5399Y-5.4764
X8.5399Y-6.2264
X8.5399Y-6.9764
X8.6156Y-6.8996
X8.6393Y-6.935
X8.8125Y-6.9823
X8.9149Y-6.9764
X8.9906Y-3.8996
X8.9906Y-4.6496
X8.9906Y-5.3996
X8.9906Y-6.1496
X8.9906Y-6.8996
X9.0143Y-3.935
X9.0143Y-4.685
X9.0143Y-5.435
X9.0143Y-6.185
X9.0143Y-6.935
X9.1875Y-3.9823
X9.1875Y-4.7323
X9.1875Y-5.4823
X9.1875Y-6.2323
X9.1875Y-6.9823
X9.2899Y-3.9764
X9.2899Y-4.7264
X9.2899Y-5.4764
X9.2899Y-6.2264
X9.2899Y-6.9764
X9.7406Y-3.8996
X9.7406Y-4.6496
X9.7406Y-5.3996
X9.7406Y-6.1496
X9.7406Y-6.8996
X9.7643Y-3.935
X9.7643Y-4.685
X9.7643Y-5.435
X9.7643Y-6.185
X9.7643Y-6.935
X9.9375Y-3.9823
X9.9375Y-4.7323
X9.9375Y-5.4823
X9.9375Y-6.2323
X9.9375Y-6.9823
X10.0399Y-3.9764
X10.0399Y-4.7264
X10.0399Y-5.4764
X10.0399Y-6.2264
X10.0399Y-6.9764
X10.4906Y-3.8996
X10.4906Y-4.6496
X10.4906Y-5.3996
X10.4906Y-6.1496
X10.4906Y-6.8996
X10.5143Y-3.935
X10.5143Y-4.685
X10.5143Y-5.435
X10.5143Y-6.185
X10.5143Y-6.935
X10.6875Y-3.9823
X10.6875Y-4.7323
X10.6875Y-5.4823
X10.6875Y-6.2323
X10.6875Y-6.9823
X10.7899Y-3.9764
X10.7899Y-4.7264
X10.7899Y-5.4764
X10.7899Y-6.2264
X10.7899Y-6.9764
X11.2406Y-3.8996
X11.2406Y-4.6496
X11.2406Y-5.3996
X11.2406Y-6.1496
X11.2406Y-6.8996
X11.2643Y-3.935
X11.2643Y-4.685
X11.2643Y-5.435
X11.2643Y-6.185
X11.2643Y-6.935
X11.4375Y-3.9823
X11.4375Y-4.7323
X11.4375Y-5.4823
X11.4375Y-6.2323
X11.4375Y-6.9823
X11.5399Y-3.9764
X11.5399Y-4.7264
X11.5399Y-5.4764
X11.5399Y-6.2264
X11.5399Y-6.9764
X11.6156Y-6.1496
X11.6393Y-6.185
X11.8125Y-6.2323
X11.9149Y-6.2264
X11.9906Y-3.8996
X11.9906Y-4.6496
X11.9906Y-5.3996
X11.9906Y-6.1496
X11.9906Y-6.8996
X12.0143Y-3.935
X12.0143Y-4.685
X12.0143Y-5.435
X12.0143Y-6.185
X12.0143Y-6.935
X12.1875Y-3.9823
X12.1875Y-4.7323
X12.1875Y-5.4823
X12.1875Y-6.2323
X12.1875Y-6.9823
X12.2899Y-3.9764
X12.2899Y-4.7264
X12.2899Y-5.4764
X12.2899Y-6.2264
X12.2899Y-6.9764
X12.7406Y-3.8996
X12.7406Y-4.6496
X12.7406Y-5.3996
X12.7406Y-6.1496
X12.7406Y-6.8996
X12.7643Y-3.935
X12.7643Y-4.685
X12.7643Y-5.435
X12.7643Y-6.185
X12.7643Y-6.935
X12.9375Y-3.9823
X12.9375Y-4.7323
X12.9375Y-5.4823
X12.9375Y-6.2323
X12.9375Y-6.9823
X13.0399Y-3.9764
X13.0399Y-4.7264
X13.0399Y-5.4764
X13.0399Y-6.2264
X13.0399Y-6.9764
X13.1156Y-5.3996
X13.1393Y-5.435
X13.2101Y-4.2736
X13.3125Y-4.2677
X13.3125Y-5.4823
X13.4149Y-5.4764
X13.4857Y-4.315
X13.4906Y-4.6496
X13.4906Y-5.3996
X13.4906Y-6.1496
X13.4906Y-6.8996
X13.5094Y-4.3504
X13.5143Y-4.685
X13.5143Y-5.435
X13.5143Y-6.185
X13.5143Y-6.935
X13.6875Y-4.7323
X13.6875Y-5.4823
X13.6875Y-6.2323
X13.6875Y-6.9823
X13.7899Y-4.7264
X13.7899Y-5.4764
X13.7899Y-6.2264
X13.7899Y-6.9764
T4
X3.1875Y-3.75
X3.1875Y-4.5
X3.1875Y-5.25
X3.1875Y-6.0
X3.1875Y-6.75
X3.5625Y-6.0
X3.9375Y-3.75
X3.9375Y-4.5
X3.9375Y-5.25
X3.9375Y-6.0
X3.9375Y-6.75
X4.6875Y-3.75
X4.6875Y-4.5
X4.6875Y-5.25
X4.6875Y-6.0
X4.6875Y-6.75
X5.4375Y-3.75
X5.4375Y-4.5
X5.4375Y-5.25
X5.4375Y-6.0
X5.4375Y-6.75
X6.1875Y-3.75
X6.1875Y-4.5
X6.1875Y-5.25
X6.1875Y-6.0
X6.1875Y-6.75
X6.5625Y-6.75
X6.9375Y-3.75
X6.9375Y-4.5
X6.9375Y-5.25
X6.9375Y-6.0
X6.9375Y-6.75
X7.6875Y-3.75
X7.6875Y-4.5
X7.6875Y-5.25
X7.6875Y-6.0
X7.6875Y-6.75
X8.0625Y-6.75
X8.4375Y-3.75
X8.4375Y-4.5
X8.4375Y-5.25
X8.4375Y-6.0
X8.4375Y-6.75
X8.8125Y-6.75
X9.1875Y-3.75
X9.1875Y-4.5
X9.1875Y-5.25
X9.1875Y-6.0
X9.1875Y-6.75
X9.9375Y-3.75
X9.9375Y-4.5
X9.9375Y-5.25
X9.9375Y-6.0
X9.9375Y-6.75
X10.6875Y-3.75
X10.6875Y-4.5
X10.6875Y-5.25
X10.6875Y-6.0
X10.6875Y-6.75
X11.4375Y-3.75
X11.4375Y-4.5
X11.4375Y-5.25
X11.4375Y-6.0
X11.4375Y-6.75
X11.8125Y-6.0
X12.1875Y-3.75
X12.1875Y-4.5
X12.1875Y-5.25
X12.1875Y-6.0
X12.1875Y-6.75
X12.9375Y-3.75
X12.9375Y-4.5
X12.9375Y-5.25
X12.9375Y-6.0
X12.9375Y-6.75
X13.3125Y-4.5
X13.3125Y-5.25
X13.6875Y-4.5
X13.6875Y-5.25
X13.6875Y-6.0
X13.6875Y-6.75
M30
