%TF.GenerationSoftware,KiCad,Pcbnew,7.0.10*%
%TF.CreationDate,2024-03-07T22:32:43+00:00*%
%TF.ProjectId,keyboard,6b657962-6f61-4726-942e-6b696361645f,rev?*%
%TF.SameCoordinates,Original*%
%TF.FileFunction,Drillmap*%
%TF.FilePolarity,Positive*%
%FSLAX45Y45*%
G04 Gerber Fmt 4.5, Leading zero omitted, Abs format (unit mm)*
G04 Created by KiCad (PCBNEW 7.0.10) date 2024-03-07 22:32:43*
%MOMM*%
%LPD*%
G01*
G04 APERTURE LIST*
%ADD10C,0.200000*%
%ADD11C,0.100000*%
%ADD12C,0.120000*%
%ADD13C,0.150000*%
G04 APERTURE END LIST*
D10*
D11*
X7633750Y-15845000D02*
X7683750Y-15895000D01*
X7683750Y-15845000D02*
X7633750Y-15895000D01*
X7883750Y-15845000D02*
X7433750Y-15845000D01*
X7433750Y-15845000D02*
G75*
G03*
X7433750Y-15895000I0J-25000D01*
G01*
X7433750Y-15895000D02*
X7883750Y-15895000D01*
X7883750Y-15895000D02*
G75*
G03*
X7883750Y-15845000I0J25000D01*
G01*
X9461250Y-8870000D02*
X9511250Y-8920000D01*
X9511250Y-8870000D02*
X9461250Y-8920000D01*
X9261250Y-8920000D02*
X9711250Y-8920000D01*
X9711250Y-8920000D02*
G75*
G03*
X9711250Y-8870000I0J25000D01*
G01*
X9711250Y-8870000D02*
X9261250Y-8870000D01*
X9261250Y-8870000D02*
G75*
G03*
X9261250Y-8920000I0J-25000D01*
G01*
X9461250Y-10775000D02*
X9511250Y-10825000D01*
X9511250Y-10775000D02*
X9461250Y-10825000D01*
X9261250Y-10825000D02*
X9711250Y-10825000D01*
X9711250Y-10825000D02*
G75*
G03*
X9711250Y-10775000I0J25000D01*
G01*
X9711250Y-10775000D02*
X9261250Y-10775000D01*
X9261250Y-10775000D02*
G75*
G03*
X9261250Y-10825000I0J-25000D01*
G01*
X9461250Y-12680000D02*
X9511250Y-12730000D01*
X9511250Y-12680000D02*
X9461250Y-12730000D01*
X9261250Y-12730000D02*
X9711250Y-12730000D01*
X9711250Y-12730000D02*
G75*
G03*
X9711250Y-12680000I0J25000D01*
G01*
X9711250Y-12680000D02*
X9261250Y-12680000D01*
X9261250Y-12680000D02*
G75*
G03*
X9261250Y-12730000I0J-25000D01*
G01*
X9461250Y-14585000D02*
X9511250Y-14635000D01*
X9511250Y-14585000D02*
X9461250Y-14635000D01*
X9261250Y-14635000D02*
X9711250Y-14635000D01*
X9711250Y-14635000D02*
G75*
G03*
X9711250Y-14585000I0J25000D01*
G01*
X9711250Y-14585000D02*
X9261250Y-14585000D01*
X9261250Y-14585000D02*
G75*
G03*
X9261250Y-14635000I0J-25000D01*
G01*
X9461250Y-16490000D02*
X9511250Y-16540000D01*
X9511250Y-16490000D02*
X9461250Y-16540000D01*
X9261250Y-16540000D02*
X9711250Y-16540000D01*
X9711250Y-16540000D02*
G75*
G03*
X9711250Y-16490000I0J25000D01*
G01*
X9711250Y-16490000D02*
X9261250Y-16490000D01*
X9261250Y-16490000D02*
G75*
G03*
X9261250Y-16540000I0J-25000D01*
G01*
X11366250Y-8870000D02*
X11416250Y-8920000D01*
X11416250Y-8870000D02*
X11366250Y-8920000D01*
X11166250Y-8920000D02*
X11616250Y-8920000D01*
X11616250Y-8920000D02*
G75*
G03*
X11616250Y-8870000I0J25000D01*
G01*
X11616250Y-8870000D02*
X11166250Y-8870000D01*
X11166250Y-8870000D02*
G75*
G03*
X11166250Y-8920000I0J-25000D01*
G01*
X11366250Y-10775000D02*
X11416250Y-10825000D01*
X11416250Y-10775000D02*
X11366250Y-10825000D01*
X11166250Y-10825000D02*
X11616250Y-10825000D01*
X11616250Y-10825000D02*
G75*
G03*
X11616250Y-10775000I0J25000D01*
G01*
X11616250Y-10775000D02*
X11166250Y-10775000D01*
X11166250Y-10775000D02*
G75*
G03*
X11166250Y-10825000I0J-25000D01*
G01*
X11366250Y-12680000D02*
X11416250Y-12730000D01*
X11416250Y-12680000D02*
X11366250Y-12730000D01*
X11166250Y-12730000D02*
X11616250Y-12730000D01*
X11616250Y-12730000D02*
G75*
G03*
X11616250Y-12680000I0J25000D01*
G01*
X11616250Y-12680000D02*
X11166250Y-12680000D01*
X11166250Y-12680000D02*
G75*
G03*
X11166250Y-12730000I0J-25000D01*
G01*
X11366250Y-14585000D02*
X11416250Y-14635000D01*
X11416250Y-14585000D02*
X11366250Y-14635000D01*
X11166250Y-14635000D02*
X11616250Y-14635000D01*
X11616250Y-14635000D02*
G75*
G03*
X11616250Y-14585000I0J25000D01*
G01*
X11616250Y-14585000D02*
X11166250Y-14585000D01*
X11166250Y-14585000D02*
G75*
G03*
X11166250Y-14635000I0J-25000D01*
G01*
X11366250Y-16490000D02*
X11416250Y-16540000D01*
X11416250Y-16490000D02*
X11366250Y-16540000D01*
X11166250Y-16540000D02*
X11616250Y-16540000D01*
X11616250Y-16540000D02*
G75*
G03*
X11616250Y-16490000I0J25000D01*
G01*
X11616250Y-16490000D02*
X11166250Y-16490000D01*
X11166250Y-16490000D02*
G75*
G03*
X11166250Y-16540000I0J-25000D01*
G01*
X13271250Y-8870000D02*
X13321250Y-8920000D01*
X13321250Y-8870000D02*
X13271250Y-8920000D01*
X13071250Y-8920000D02*
X13521250Y-8920000D01*
X13521250Y-8920000D02*
G75*
G03*
X13521250Y-8870000I0J25000D01*
G01*
X13521250Y-8870000D02*
X13071250Y-8870000D01*
X13071250Y-8870000D02*
G75*
G03*
X13071250Y-8920000I0J-25000D01*
G01*
X13271250Y-10775000D02*
X13321250Y-10825000D01*
X13321250Y-10775000D02*
X13271250Y-10825000D01*
X13071250Y-10825000D02*
X13521250Y-10825000D01*
X13521250Y-10825000D02*
G75*
G03*
X13521250Y-10775000I0J25000D01*
G01*
X13521250Y-10775000D02*
X13071250Y-10775000D01*
X13071250Y-10775000D02*
G75*
G03*
X13071250Y-10825000I0J-25000D01*
G01*
X13271250Y-12680000D02*
X13321250Y-12730000D01*
X13321250Y-12680000D02*
X13271250Y-12730000D01*
X13071250Y-12730000D02*
X13521250Y-12730000D01*
X13521250Y-12730000D02*
G75*
G03*
X13521250Y-12680000I0J25000D01*
G01*
X13521250Y-12680000D02*
X13071250Y-12680000D01*
X13071250Y-12680000D02*
G75*
G03*
X13071250Y-12730000I0J-25000D01*
G01*
X13271250Y-14585000D02*
X13321250Y-14635000D01*
X13321250Y-14585000D02*
X13271250Y-14635000D01*
X13071250Y-14635000D02*
X13521250Y-14635000D01*
X13521250Y-14635000D02*
G75*
G03*
X13521250Y-14585000I0J25000D01*
G01*
X13521250Y-14585000D02*
X13071250Y-14585000D01*
X13071250Y-14585000D02*
G75*
G03*
X13071250Y-14635000I0J-25000D01*
G01*
X13271250Y-16490000D02*
X13321250Y-16540000D01*
X13321250Y-16490000D02*
X13271250Y-16540000D01*
X13071250Y-16540000D02*
X13521250Y-16540000D01*
X13521250Y-16540000D02*
G75*
G03*
X13521250Y-16490000I0J25000D01*
G01*
X13521250Y-16490000D02*
X13071250Y-16490000D01*
X13071250Y-16490000D02*
G75*
G03*
X13071250Y-16540000I0J-25000D01*
G01*
X15176250Y-8870000D02*
X15226250Y-8920000D01*
X15226250Y-8870000D02*
X15176250Y-8920000D01*
X14976250Y-8920000D02*
X15426250Y-8920000D01*
X15426250Y-8920000D02*
G75*
G03*
X15426250Y-8870000I0J25000D01*
G01*
X15426250Y-8870000D02*
X14976250Y-8870000D01*
X14976250Y-8870000D02*
G75*
G03*
X14976250Y-8920000I0J-25000D01*
G01*
X15176250Y-10775000D02*
X15226250Y-10825000D01*
X15226250Y-10775000D02*
X15176250Y-10825000D01*
X14976250Y-10825000D02*
X15426250Y-10825000D01*
X15426250Y-10825000D02*
G75*
G03*
X15426250Y-10775000I0J25000D01*
G01*
X15426250Y-10775000D02*
X14976250Y-10775000D01*
X14976250Y-10775000D02*
G75*
G03*
X14976250Y-10825000I0J-25000D01*
G01*
X15176250Y-12680000D02*
X15226250Y-12730000D01*
X15226250Y-12680000D02*
X15176250Y-12730000D01*
X14976250Y-12730000D02*
X15426250Y-12730000D01*
X15426250Y-12730000D02*
G75*
G03*
X15426250Y-12680000I0J25000D01*
G01*
X15426250Y-12680000D02*
X14976250Y-12680000D01*
X14976250Y-12680000D02*
G75*
G03*
X14976250Y-12730000I0J-25000D01*
G01*
X15176250Y-14585000D02*
X15226250Y-14635000D01*
X15226250Y-14585000D02*
X15176250Y-14635000D01*
X14976250Y-14635000D02*
X15426250Y-14635000D01*
X15426250Y-14635000D02*
G75*
G03*
X15426250Y-14585000I0J25000D01*
G01*
X15426250Y-14585000D02*
X14976250Y-14585000D01*
X14976250Y-14585000D02*
G75*
G03*
X14976250Y-14635000I0J-25000D01*
G01*
X15176250Y-16490000D02*
X15226250Y-16540000D01*
X15226250Y-16490000D02*
X15176250Y-16540000D01*
X14976250Y-16540000D02*
X15426250Y-16540000D01*
X15426250Y-16540000D02*
G75*
G03*
X15426250Y-16490000I0J25000D01*
G01*
X15426250Y-16490000D02*
X14976250Y-16490000D01*
X14976250Y-16490000D02*
G75*
G03*
X14976250Y-16540000I0J-25000D01*
G01*
X17081250Y-8870000D02*
X17131250Y-8920000D01*
X17131250Y-8870000D02*
X17081250Y-8920000D01*
X16881250Y-8920000D02*
X17331250Y-8920000D01*
X17331250Y-8920000D02*
G75*
G03*
X17331250Y-8870000I0J25000D01*
G01*
X17331250Y-8870000D02*
X16881250Y-8870000D01*
X16881250Y-8870000D02*
G75*
G03*
X16881250Y-8920000I0J-25000D01*
G01*
X17081250Y-10775000D02*
X17131250Y-10825000D01*
X17131250Y-10775000D02*
X17081250Y-10825000D01*
X16881250Y-10825000D02*
X17331250Y-10825000D01*
X17331250Y-10825000D02*
G75*
G03*
X17331250Y-10775000I0J25000D01*
G01*
X17331250Y-10775000D02*
X16881250Y-10775000D01*
X16881250Y-10775000D02*
G75*
G03*
X16881250Y-10825000I0J-25000D01*
G01*
X17081250Y-12680000D02*
X17131250Y-12730000D01*
X17131250Y-12680000D02*
X17081250Y-12730000D01*
X16881250Y-12730000D02*
X17331250Y-12730000D01*
X17331250Y-12730000D02*
G75*
G03*
X17331250Y-12680000I0J25000D01*
G01*
X17331250Y-12680000D02*
X16881250Y-12680000D01*
X16881250Y-12680000D02*
G75*
G03*
X16881250Y-12730000I0J-25000D01*
G01*
X17081250Y-14585000D02*
X17131250Y-14635000D01*
X17131250Y-14585000D02*
X17081250Y-14635000D01*
X16881250Y-14635000D02*
X17331250Y-14635000D01*
X17331250Y-14635000D02*
G75*
G03*
X17331250Y-14585000I0J25000D01*
G01*
X17331250Y-14585000D02*
X16881250Y-14585000D01*
X16881250Y-14585000D02*
G75*
G03*
X16881250Y-14635000I0J-25000D01*
G01*
X17081250Y-16490000D02*
X17131250Y-16540000D01*
X17131250Y-16490000D02*
X17081250Y-16540000D01*
X16881250Y-16540000D02*
X17331250Y-16540000D01*
X17331250Y-16540000D02*
G75*
G03*
X17331250Y-16490000I0J25000D01*
G01*
X17331250Y-16490000D02*
X16881250Y-16490000D01*
X16881250Y-16490000D02*
G75*
G03*
X16881250Y-16540000I0J-25000D01*
G01*
X18033750Y-16490000D02*
X18083750Y-16540000D01*
X18083750Y-16490000D02*
X18033750Y-16540000D01*
X17833750Y-16540000D02*
X18283750Y-16540000D01*
X18283750Y-16540000D02*
G75*
G03*
X18283750Y-16490000I0J25000D01*
G01*
X18283750Y-16490000D02*
X17833750Y-16490000D01*
X17833750Y-16490000D02*
G75*
G03*
X17833750Y-16540000I0J-25000D01*
G01*
X18986250Y-8870000D02*
X19036250Y-8920000D01*
X19036250Y-8870000D02*
X18986250Y-8920000D01*
X18786250Y-8920000D02*
X19236250Y-8920000D01*
X19236250Y-8920000D02*
G75*
G03*
X19236250Y-8870000I0J25000D01*
G01*
X19236250Y-8870000D02*
X18786250Y-8870000D01*
X18786250Y-8870000D02*
G75*
G03*
X18786250Y-8920000I0J-25000D01*
G01*
X18986250Y-10775000D02*
X19036250Y-10825000D01*
X19036250Y-10775000D02*
X18986250Y-10825000D01*
X18786250Y-10825000D02*
X19236250Y-10825000D01*
X19236250Y-10825000D02*
G75*
G03*
X19236250Y-10775000I0J25000D01*
G01*
X19236250Y-10775000D02*
X18786250Y-10775000D01*
X18786250Y-10775000D02*
G75*
G03*
X18786250Y-10825000I0J-25000D01*
G01*
X18986250Y-12680000D02*
X19036250Y-12730000D01*
X19036250Y-12680000D02*
X18986250Y-12730000D01*
X18786250Y-12730000D02*
X19236250Y-12730000D01*
X19236250Y-12730000D02*
G75*
G03*
X19236250Y-12680000I0J25000D01*
G01*
X19236250Y-12680000D02*
X18786250Y-12680000D01*
X18786250Y-12680000D02*
G75*
G03*
X18786250Y-12730000I0J-25000D01*
G01*
X18986250Y-14585000D02*
X19036250Y-14635000D01*
X19036250Y-14585000D02*
X18986250Y-14635000D01*
X18786250Y-14635000D02*
X19236250Y-14635000D01*
X19236250Y-14635000D02*
G75*
G03*
X19236250Y-14585000I0J25000D01*
G01*
X19236250Y-14585000D02*
X18786250Y-14585000D01*
X18786250Y-14585000D02*
G75*
G03*
X18786250Y-14635000I0J-25000D01*
G01*
X18986250Y-16490000D02*
X19036250Y-16540000D01*
X19036250Y-16490000D02*
X18986250Y-16540000D01*
X18786250Y-16540000D02*
X19236250Y-16540000D01*
X19236250Y-16540000D02*
G75*
G03*
X19236250Y-16490000I0J25000D01*
G01*
X19236250Y-16490000D02*
X18786250Y-16490000D01*
X18786250Y-16490000D02*
G75*
G03*
X18786250Y-16540000I0J-25000D01*
G01*
X20891250Y-8870000D02*
X20941250Y-8920000D01*
X20941250Y-8870000D02*
X20891250Y-8920000D01*
X20691250Y-8920000D02*
X21141250Y-8920000D01*
X21141250Y-8920000D02*
G75*
G03*
X21141250Y-8870000I0J25000D01*
G01*
X21141250Y-8870000D02*
X20691250Y-8870000D01*
X20691250Y-8870000D02*
G75*
G03*
X20691250Y-8920000I0J-25000D01*
G01*
X20891250Y-10775000D02*
X20941250Y-10825000D01*
X20941250Y-10775000D02*
X20891250Y-10825000D01*
X20691250Y-10825000D02*
X21141250Y-10825000D01*
X21141250Y-10825000D02*
G75*
G03*
X21141250Y-10775000I0J25000D01*
G01*
X21141250Y-10775000D02*
X20691250Y-10775000D01*
X20691250Y-10775000D02*
G75*
G03*
X20691250Y-10825000I0J-25000D01*
G01*
X20891250Y-12680000D02*
X20941250Y-12730000D01*
X20941250Y-12680000D02*
X20891250Y-12730000D01*
X20691250Y-12730000D02*
X21141250Y-12730000D01*
X21141250Y-12730000D02*
G75*
G03*
X21141250Y-12680000I0J25000D01*
G01*
X21141250Y-12680000D02*
X20691250Y-12680000D01*
X20691250Y-12680000D02*
G75*
G03*
X20691250Y-12730000I0J-25000D01*
G01*
X20891250Y-14585000D02*
X20941250Y-14635000D01*
X20941250Y-14585000D02*
X20891250Y-14635000D01*
X20691250Y-14635000D02*
X21141250Y-14635000D01*
X21141250Y-14635000D02*
G75*
G03*
X21141250Y-14585000I0J25000D01*
G01*
X21141250Y-14585000D02*
X20691250Y-14585000D01*
X20691250Y-14585000D02*
G75*
G03*
X20691250Y-14635000I0J-25000D01*
G01*
X20891250Y-16490000D02*
X20941250Y-16540000D01*
X20941250Y-16490000D02*
X20891250Y-16540000D01*
X20691250Y-16540000D02*
X21141250Y-16540000D01*
X21141250Y-16540000D02*
G75*
G03*
X21141250Y-16490000I0J25000D01*
G01*
X21141250Y-16490000D02*
X20691250Y-16490000D01*
X20691250Y-16490000D02*
G75*
G03*
X20691250Y-16540000I0J-25000D01*
G01*
X21843750Y-16490000D02*
X21893750Y-16540000D01*
X21893750Y-16490000D02*
X21843750Y-16540000D01*
X21643750Y-16540000D02*
X22093750Y-16540000D01*
X22093750Y-16540000D02*
G75*
G03*
X22093750Y-16490000I0J25000D01*
G01*
X22093750Y-16490000D02*
X21643750Y-16490000D01*
X21643750Y-16490000D02*
G75*
G03*
X21643750Y-16540000I0J-25000D01*
G01*
X22796250Y-8870000D02*
X22846250Y-8920000D01*
X22846250Y-8870000D02*
X22796250Y-8920000D01*
X22596250Y-8920000D02*
X23046250Y-8920000D01*
X23046250Y-8920000D02*
G75*
G03*
X23046250Y-8870000I0J25000D01*
G01*
X23046250Y-8870000D02*
X22596250Y-8870000D01*
X22596250Y-8870000D02*
G75*
G03*
X22596250Y-8920000I0J-25000D01*
G01*
X22796250Y-10775000D02*
X22846250Y-10825000D01*
X22846250Y-10775000D02*
X22796250Y-10825000D01*
X22596250Y-10825000D02*
X23046250Y-10825000D01*
X23046250Y-10825000D02*
G75*
G03*
X23046250Y-10775000I0J25000D01*
G01*
X23046250Y-10775000D02*
X22596250Y-10775000D01*
X22596250Y-10775000D02*
G75*
G03*
X22596250Y-10825000I0J-25000D01*
G01*
X22796250Y-12680000D02*
X22846250Y-12730000D01*
X22846250Y-12680000D02*
X22796250Y-12730000D01*
X22596250Y-12730000D02*
X23046250Y-12730000D01*
X23046250Y-12730000D02*
G75*
G03*
X23046250Y-12680000I0J25000D01*
G01*
X23046250Y-12680000D02*
X22596250Y-12680000D01*
X22596250Y-12680000D02*
G75*
G03*
X22596250Y-12730000I0J-25000D01*
G01*
X22796250Y-14585000D02*
X22846250Y-14635000D01*
X22846250Y-14585000D02*
X22796250Y-14635000D01*
X22596250Y-14635000D02*
X23046250Y-14635000D01*
X23046250Y-14635000D02*
G75*
G03*
X23046250Y-14585000I0J25000D01*
G01*
X23046250Y-14585000D02*
X22596250Y-14585000D01*
X22596250Y-14585000D02*
G75*
G03*
X22596250Y-14635000I0J-25000D01*
G01*
X22796250Y-16490000D02*
X22846250Y-16540000D01*
X22846250Y-16490000D02*
X22796250Y-16540000D01*
X22596250Y-16540000D02*
X23046250Y-16540000D01*
X23046250Y-16540000D02*
G75*
G03*
X23046250Y-16490000I0J25000D01*
G01*
X23046250Y-16490000D02*
X22596250Y-16490000D01*
X22596250Y-16490000D02*
G75*
G03*
X22596250Y-16540000I0J-25000D01*
G01*
X23748750Y-16490000D02*
X23798750Y-16540000D01*
X23798750Y-16490000D02*
X23748750Y-16540000D01*
X23548750Y-16540000D02*
X23998750Y-16540000D01*
X23998750Y-16540000D02*
G75*
G03*
X23998750Y-16490000I0J25000D01*
G01*
X23998750Y-16490000D02*
X23548750Y-16490000D01*
X23548750Y-16490000D02*
G75*
G03*
X23548750Y-16540000I0J-25000D01*
G01*
X24701250Y-8870000D02*
X24751250Y-8920000D01*
X24751250Y-8870000D02*
X24701250Y-8920000D01*
X24501250Y-8920000D02*
X24951250Y-8920000D01*
X24951250Y-8920000D02*
G75*
G03*
X24951250Y-8870000I0J25000D01*
G01*
X24951250Y-8870000D02*
X24501250Y-8870000D01*
X24501250Y-8870000D02*
G75*
G03*
X24501250Y-8920000I0J-25000D01*
G01*
X24701250Y-10775000D02*
X24751250Y-10825000D01*
X24751250Y-10775000D02*
X24701250Y-10825000D01*
X24501250Y-10825000D02*
X24951250Y-10825000D01*
X24951250Y-10825000D02*
G75*
G03*
X24951250Y-10775000I0J25000D01*
G01*
X24951250Y-10775000D02*
X24501250Y-10775000D01*
X24501250Y-10775000D02*
G75*
G03*
X24501250Y-10825000I0J-25000D01*
G01*
X24701250Y-12680000D02*
X24751250Y-12730000D01*
X24751250Y-12680000D02*
X24701250Y-12730000D01*
X24501250Y-12730000D02*
X24951250Y-12730000D01*
X24951250Y-12730000D02*
G75*
G03*
X24951250Y-12680000I0J25000D01*
G01*
X24951250Y-12680000D02*
X24501250Y-12680000D01*
X24501250Y-12680000D02*
G75*
G03*
X24501250Y-12730000I0J-25000D01*
G01*
X24701250Y-14585000D02*
X24751250Y-14635000D01*
X24751250Y-14585000D02*
X24701250Y-14635000D01*
X24501250Y-14635000D02*
X24951250Y-14635000D01*
X24951250Y-14635000D02*
G75*
G03*
X24951250Y-14585000I0J25000D01*
G01*
X24951250Y-14585000D02*
X24501250Y-14585000D01*
X24501250Y-14585000D02*
G75*
G03*
X24501250Y-14635000I0J-25000D01*
G01*
X24701250Y-16490000D02*
X24751250Y-16540000D01*
X24751250Y-16490000D02*
X24701250Y-16540000D01*
X24501250Y-16540000D02*
X24951250Y-16540000D01*
X24951250Y-16540000D02*
G75*
G03*
X24951250Y-16490000I0J25000D01*
G01*
X24951250Y-16490000D02*
X24501250Y-16490000D01*
X24501250Y-16490000D02*
G75*
G03*
X24501250Y-16540000I0J-25000D01*
G01*
X26606250Y-8870000D02*
X26656250Y-8920000D01*
X26656250Y-8870000D02*
X26606250Y-8920000D01*
X26406250Y-8920000D02*
X26856250Y-8920000D01*
X26856250Y-8920000D02*
G75*
G03*
X26856250Y-8870000I0J25000D01*
G01*
X26856250Y-8870000D02*
X26406250Y-8870000D01*
X26406250Y-8870000D02*
G75*
G03*
X26406250Y-8920000I0J-25000D01*
G01*
X26606250Y-10775000D02*
X26656250Y-10825000D01*
X26656250Y-10775000D02*
X26606250Y-10825000D01*
X26406250Y-10825000D02*
X26856250Y-10825000D01*
X26856250Y-10825000D02*
G75*
G03*
X26856250Y-10775000I0J25000D01*
G01*
X26856250Y-10775000D02*
X26406250Y-10775000D01*
X26406250Y-10775000D02*
G75*
G03*
X26406250Y-10825000I0J-25000D01*
G01*
X26606250Y-12680000D02*
X26656250Y-12730000D01*
X26656250Y-12680000D02*
X26606250Y-12730000D01*
X26406250Y-12730000D02*
X26856250Y-12730000D01*
X26856250Y-12730000D02*
G75*
G03*
X26856250Y-12680000I0J25000D01*
G01*
X26856250Y-12680000D02*
X26406250Y-12680000D01*
X26406250Y-12680000D02*
G75*
G03*
X26406250Y-12730000I0J-25000D01*
G01*
X26606250Y-14585000D02*
X26656250Y-14635000D01*
X26656250Y-14585000D02*
X26606250Y-14635000D01*
X26406250Y-14635000D02*
X26856250Y-14635000D01*
X26856250Y-14635000D02*
G75*
G03*
X26856250Y-14585000I0J25000D01*
G01*
X26856250Y-14585000D02*
X26406250Y-14585000D01*
X26406250Y-14585000D02*
G75*
G03*
X26406250Y-14635000I0J-25000D01*
G01*
X26606250Y-16490000D02*
X26656250Y-16540000D01*
X26656250Y-16490000D02*
X26606250Y-16540000D01*
X26406250Y-16540000D02*
X26856250Y-16540000D01*
X26856250Y-16540000D02*
G75*
G03*
X26856250Y-16490000I0J25000D01*
G01*
X26856250Y-16490000D02*
X26406250Y-16490000D01*
X26406250Y-16490000D02*
G75*
G03*
X26406250Y-16540000I0J-25000D01*
G01*
X28511250Y-8870000D02*
X28561250Y-8920000D01*
X28561250Y-8870000D02*
X28511250Y-8920000D01*
X28311250Y-8920000D02*
X28761250Y-8920000D01*
X28761250Y-8920000D02*
G75*
G03*
X28761250Y-8870000I0J25000D01*
G01*
X28761250Y-8870000D02*
X28311250Y-8870000D01*
X28311250Y-8870000D02*
G75*
G03*
X28311250Y-8920000I0J-25000D01*
G01*
X28511250Y-10775000D02*
X28561250Y-10825000D01*
X28561250Y-10775000D02*
X28511250Y-10825000D01*
X28311250Y-10825000D02*
X28761250Y-10825000D01*
X28761250Y-10825000D02*
G75*
G03*
X28761250Y-10775000I0J25000D01*
G01*
X28761250Y-10775000D02*
X28311250Y-10775000D01*
X28311250Y-10775000D02*
G75*
G03*
X28311250Y-10825000I0J-25000D01*
G01*
X28511250Y-12680000D02*
X28561250Y-12730000D01*
X28561250Y-12680000D02*
X28511250Y-12730000D01*
X28311250Y-12730000D02*
X28761250Y-12730000D01*
X28761250Y-12730000D02*
G75*
G03*
X28761250Y-12680000I0J25000D01*
G01*
X28761250Y-12680000D02*
X28311250Y-12680000D01*
X28311250Y-12680000D02*
G75*
G03*
X28311250Y-12730000I0J-25000D01*
G01*
X28511250Y-14585000D02*
X28561250Y-14635000D01*
X28561250Y-14585000D02*
X28511250Y-14635000D01*
X28311250Y-14635000D02*
X28761250Y-14635000D01*
X28761250Y-14635000D02*
G75*
G03*
X28761250Y-14585000I0J25000D01*
G01*
X28761250Y-14585000D02*
X28311250Y-14585000D01*
X28311250Y-14585000D02*
G75*
G03*
X28311250Y-14635000I0J-25000D01*
G01*
X28511250Y-16490000D02*
X28561250Y-16540000D01*
X28561250Y-16490000D02*
X28511250Y-16540000D01*
X28311250Y-16540000D02*
X28761250Y-16540000D01*
X28761250Y-16540000D02*
G75*
G03*
X28761250Y-16490000I0J25000D01*
G01*
X28761250Y-16490000D02*
X28311250Y-16490000D01*
X28311250Y-16490000D02*
G75*
G03*
X28311250Y-16540000I0J-25000D01*
G01*
X30416250Y-8870000D02*
X30466250Y-8920000D01*
X30466250Y-8870000D02*
X30416250Y-8920000D01*
X30216250Y-8920000D02*
X30666250Y-8920000D01*
X30666250Y-8920000D02*
G75*
G03*
X30666250Y-8870000I0J25000D01*
G01*
X30666250Y-8870000D02*
X30216250Y-8870000D01*
X30216250Y-8870000D02*
G75*
G03*
X30216250Y-8920000I0J-25000D01*
G01*
X30416250Y-10775000D02*
X30466250Y-10825000D01*
X30466250Y-10775000D02*
X30416250Y-10825000D01*
X30216250Y-10825000D02*
X30666250Y-10825000D01*
X30666250Y-10825000D02*
G75*
G03*
X30666250Y-10775000I0J25000D01*
G01*
X30666250Y-10775000D02*
X30216250Y-10775000D01*
X30216250Y-10775000D02*
G75*
G03*
X30216250Y-10825000I0J-25000D01*
G01*
X30416250Y-12680000D02*
X30466250Y-12730000D01*
X30466250Y-12680000D02*
X30416250Y-12730000D01*
X30216250Y-12730000D02*
X30666250Y-12730000D01*
X30666250Y-12730000D02*
G75*
G03*
X30666250Y-12680000I0J25000D01*
G01*
X30666250Y-12680000D02*
X30216250Y-12680000D01*
X30216250Y-12680000D02*
G75*
G03*
X30216250Y-12730000I0J-25000D01*
G01*
X30416250Y-14585000D02*
X30466250Y-14635000D01*
X30466250Y-14585000D02*
X30416250Y-14635000D01*
X30216250Y-14635000D02*
X30666250Y-14635000D01*
X30666250Y-14635000D02*
G75*
G03*
X30666250Y-14585000I0J25000D01*
G01*
X30666250Y-14585000D02*
X30216250Y-14585000D01*
X30216250Y-14585000D02*
G75*
G03*
X30216250Y-14635000I0J-25000D01*
G01*
X30416250Y-16490000D02*
X30466250Y-16540000D01*
X30466250Y-16490000D02*
X30416250Y-16540000D01*
X30216250Y-16540000D02*
X30666250Y-16540000D01*
X30666250Y-16540000D02*
G75*
G03*
X30666250Y-16490000I0J25000D01*
G01*
X30666250Y-16490000D02*
X30216250Y-16490000D01*
X30216250Y-16490000D02*
G75*
G03*
X30216250Y-16540000I0J-25000D01*
G01*
X31368750Y-14585000D02*
X31418750Y-14635000D01*
X31418750Y-14585000D02*
X31368750Y-14635000D01*
X31168750Y-14635000D02*
X31618750Y-14635000D01*
X31618750Y-14635000D02*
G75*
G03*
X31618750Y-14585000I0J25000D01*
G01*
X31618750Y-14585000D02*
X31168750Y-14585000D01*
X31168750Y-14585000D02*
G75*
G03*
X31168750Y-14635000I0J-25000D01*
G01*
X32321250Y-8870000D02*
X32371250Y-8920000D01*
X32371250Y-8870000D02*
X32321250Y-8920000D01*
X32121250Y-8920000D02*
X32571250Y-8920000D01*
X32571250Y-8920000D02*
G75*
G03*
X32571250Y-8870000I0J25000D01*
G01*
X32571250Y-8870000D02*
X32121250Y-8870000D01*
X32121250Y-8870000D02*
G75*
G03*
X32121250Y-8920000I0J-25000D01*
G01*
X32321250Y-10775000D02*
X32371250Y-10825000D01*
X32371250Y-10775000D02*
X32321250Y-10825000D01*
X32121250Y-10825000D02*
X32571250Y-10825000D01*
X32571250Y-10825000D02*
G75*
G03*
X32571250Y-10775000I0J25000D01*
G01*
X32571250Y-10775000D02*
X32121250Y-10775000D01*
X32121250Y-10775000D02*
G75*
G03*
X32121250Y-10825000I0J-25000D01*
G01*
X32321250Y-12680000D02*
X32371250Y-12730000D01*
X32371250Y-12680000D02*
X32321250Y-12730000D01*
X32121250Y-12730000D02*
X32571250Y-12730000D01*
X32571250Y-12730000D02*
G75*
G03*
X32571250Y-12680000I0J25000D01*
G01*
X32571250Y-12680000D02*
X32121250Y-12680000D01*
X32121250Y-12680000D02*
G75*
G03*
X32121250Y-12730000I0J-25000D01*
G01*
X32321250Y-14585000D02*
X32371250Y-14635000D01*
X32371250Y-14585000D02*
X32321250Y-14635000D01*
X32121250Y-14635000D02*
X32571250Y-14635000D01*
X32571250Y-14635000D02*
G75*
G03*
X32571250Y-14585000I0J25000D01*
G01*
X32571250Y-14585000D02*
X32121250Y-14585000D01*
X32121250Y-14585000D02*
G75*
G03*
X32121250Y-14635000I0J-25000D01*
G01*
X32321250Y-16490000D02*
X32371250Y-16540000D01*
X32371250Y-16490000D02*
X32321250Y-16540000D01*
X32121250Y-16540000D02*
X32571250Y-16540000D01*
X32571250Y-16540000D02*
G75*
G03*
X32571250Y-16490000I0J25000D01*
G01*
X32571250Y-16490000D02*
X32121250Y-16490000D01*
X32121250Y-16490000D02*
G75*
G03*
X32121250Y-16540000I0J-25000D01*
G01*
X32398750Y-12035000D02*
X32448750Y-12085000D01*
X32448750Y-12035000D02*
X32398750Y-12085000D01*
X32648750Y-12035000D02*
X32198750Y-12035000D01*
X32198750Y-12035000D02*
G75*
G03*
X32198750Y-12085000I0J-25000D01*
G01*
X32198750Y-12085000D02*
X32648750Y-12085000D01*
X32648750Y-12085000D02*
G75*
G03*
X32648750Y-12035000I0J25000D01*
G01*
X34226250Y-8870000D02*
X34276250Y-8920000D01*
X34276250Y-8870000D02*
X34226250Y-8920000D01*
X34026250Y-8920000D02*
X34476250Y-8920000D01*
X34476250Y-8920000D02*
G75*
G03*
X34476250Y-8870000I0J25000D01*
G01*
X34476250Y-8870000D02*
X34026250Y-8870000D01*
X34026250Y-8870000D02*
G75*
G03*
X34026250Y-8920000I0J-25000D01*
G01*
X34226250Y-10775000D02*
X34276250Y-10825000D01*
X34276250Y-10775000D02*
X34226250Y-10825000D01*
X34026250Y-10825000D02*
X34476250Y-10825000D01*
X34476250Y-10825000D02*
G75*
G03*
X34476250Y-10775000I0J25000D01*
G01*
X34476250Y-10775000D02*
X34026250Y-10775000D01*
X34026250Y-10775000D02*
G75*
G03*
X34026250Y-10825000I0J-25000D01*
G01*
X34226250Y-12680000D02*
X34276250Y-12730000D01*
X34276250Y-12680000D02*
X34226250Y-12730000D01*
X34026250Y-12730000D02*
X34476250Y-12730000D01*
X34476250Y-12730000D02*
G75*
G03*
X34476250Y-12680000I0J25000D01*
G01*
X34476250Y-12680000D02*
X34026250Y-12680000D01*
X34026250Y-12680000D02*
G75*
G03*
X34026250Y-12730000I0J-25000D01*
G01*
X34226250Y-14585000D02*
X34276250Y-14635000D01*
X34276250Y-14585000D02*
X34226250Y-14635000D01*
X34026250Y-14635000D02*
X34476250Y-14635000D01*
X34476250Y-14635000D02*
G75*
G03*
X34476250Y-14585000I0J25000D01*
G01*
X34476250Y-14585000D02*
X34026250Y-14585000D01*
X34026250Y-14585000D02*
G75*
G03*
X34026250Y-14635000I0J-25000D01*
G01*
X34226250Y-16490000D02*
X34276250Y-16540000D01*
X34276250Y-16490000D02*
X34226250Y-16540000D01*
X34026250Y-16540000D02*
X34476250Y-16540000D01*
X34476250Y-16540000D02*
G75*
G03*
X34476250Y-16490000I0J25000D01*
G01*
X34476250Y-16490000D02*
X34026250Y-16490000D01*
X34026250Y-16490000D02*
G75*
G03*
X34026250Y-16540000I0J-25000D01*
G01*
X35178750Y-12680000D02*
X35228750Y-12730000D01*
X35228750Y-12680000D02*
X35178750Y-12730000D01*
X34978750Y-12730000D02*
X35428750Y-12730000D01*
X35428750Y-12730000D02*
G75*
G03*
X35428750Y-12680000I0J25000D01*
G01*
X35428750Y-12680000D02*
X34978750Y-12680000D01*
X34978750Y-12680000D02*
G75*
G03*
X34978750Y-12730000I0J-25000D01*
G01*
X36131250Y-10775000D02*
X36181250Y-10825000D01*
X36181250Y-10775000D02*
X36131250Y-10825000D01*
X35931250Y-10825000D02*
X36381250Y-10825000D01*
X36381250Y-10825000D02*
G75*
G03*
X36381250Y-10775000I0J25000D01*
G01*
X36381250Y-10775000D02*
X35931250Y-10775000D01*
X35931250Y-10775000D02*
G75*
G03*
X35931250Y-10825000I0J-25000D01*
G01*
X36131250Y-12680000D02*
X36181250Y-12730000D01*
X36181250Y-12680000D02*
X36131250Y-12730000D01*
X35931250Y-12730000D02*
X36381250Y-12730000D01*
X36381250Y-12730000D02*
G75*
G03*
X36381250Y-12680000I0J25000D01*
G01*
X36381250Y-12680000D02*
X35931250Y-12680000D01*
X35931250Y-12680000D02*
G75*
G03*
X35931250Y-12730000I0J-25000D01*
G01*
X36131250Y-14585000D02*
X36181250Y-14635000D01*
X36181250Y-14585000D02*
X36131250Y-14635000D01*
X35931250Y-14635000D02*
X36381250Y-14635000D01*
X36381250Y-14635000D02*
G75*
G03*
X36381250Y-14585000I0J25000D01*
G01*
X36381250Y-14585000D02*
X35931250Y-14585000D01*
X35931250Y-14585000D02*
G75*
G03*
X35931250Y-14635000I0J-25000D01*
G01*
X36131250Y-16490000D02*
X36181250Y-16540000D01*
X36181250Y-16490000D02*
X36131250Y-16540000D01*
X35931250Y-16540000D02*
X36381250Y-16540000D01*
X36381250Y-16540000D02*
G75*
G03*
X36381250Y-16490000I0J25000D01*
G01*
X36381250Y-16490000D02*
X35931250Y-16490000D01*
X35931250Y-16490000D02*
G75*
G03*
X35931250Y-16540000I0J-25000D01*
G01*
X23533000Y-4809000D02*
G75*
G03*
X23433000Y-4809000I-50000J0D01*
G01*
X23433000Y-4809000D02*
G75*
G03*
X23533000Y-4809000I50000J0D01*
G01*
X23533000Y-6333000D02*
G75*
G03*
X23433000Y-6333000I-50000J0D01*
G01*
X23433000Y-6333000D02*
G75*
G03*
X23533000Y-6333000I50000J0D01*
G01*
X23787000Y-4809000D02*
G75*
G03*
X23687000Y-4809000I-50000J0D01*
G01*
X23687000Y-4809000D02*
G75*
G03*
X23787000Y-4809000I50000J0D01*
G01*
X23787000Y-6333000D02*
G75*
G03*
X23687000Y-6333000I-50000J0D01*
G01*
X23687000Y-6333000D02*
G75*
G03*
X23787000Y-6333000I50000J0D01*
G01*
X24041000Y-4809000D02*
G75*
G03*
X23941000Y-4809000I-50000J0D01*
G01*
X23941000Y-4809000D02*
G75*
G03*
X24041000Y-4809000I50000J0D01*
G01*
X24041000Y-6333000D02*
G75*
G03*
X23941000Y-6333000I-50000J0D01*
G01*
X23941000Y-6333000D02*
G75*
G03*
X24041000Y-6333000I50000J0D01*
G01*
X24295000Y-4809000D02*
G75*
G03*
X24195000Y-4809000I-50000J0D01*
G01*
X24195000Y-4809000D02*
G75*
G03*
X24295000Y-4809000I50000J0D01*
G01*
X24295000Y-6333000D02*
G75*
G03*
X24195000Y-6333000I-50000J0D01*
G01*
X24195000Y-6333000D02*
G75*
G03*
X24295000Y-6333000I50000J0D01*
G01*
X24549000Y-4809000D02*
G75*
G03*
X24449000Y-4809000I-50000J0D01*
G01*
X24449000Y-4809000D02*
G75*
G03*
X24549000Y-4809000I50000J0D01*
G01*
X24549000Y-6333000D02*
G75*
G03*
X24449000Y-6333000I-50000J0D01*
G01*
X24449000Y-6333000D02*
G75*
G03*
X24549000Y-6333000I50000J0D01*
G01*
X24803000Y-4809000D02*
G75*
G03*
X24703000Y-4809000I-50000J0D01*
G01*
X24703000Y-4809000D02*
G75*
G03*
X24803000Y-4809000I50000J0D01*
G01*
X24803000Y-6333000D02*
G75*
G03*
X24703000Y-6333000I-50000J0D01*
G01*
X24703000Y-6333000D02*
G75*
G03*
X24803000Y-6333000I50000J0D01*
G01*
X25057000Y-4809000D02*
G75*
G03*
X24957000Y-4809000I-50000J0D01*
G01*
X24957000Y-4809000D02*
G75*
G03*
X25057000Y-4809000I50000J0D01*
G01*
X25057000Y-6333000D02*
G75*
G03*
X24957000Y-6333000I-50000J0D01*
G01*
X24957000Y-6333000D02*
G75*
G03*
X25057000Y-6333000I50000J0D01*
G01*
X25311000Y-4809000D02*
G75*
G03*
X25211000Y-4809000I-50000J0D01*
G01*
X25211000Y-4809000D02*
G75*
G03*
X25311000Y-4809000I50000J0D01*
G01*
X25311000Y-6333000D02*
G75*
G03*
X25211000Y-6333000I-50000J0D01*
G01*
X25211000Y-6333000D02*
G75*
G03*
X25311000Y-6333000I50000J0D01*
G01*
X25565000Y-4809000D02*
G75*
G03*
X25465000Y-4809000I-50000J0D01*
G01*
X25465000Y-4809000D02*
G75*
G03*
X25565000Y-4809000I50000J0D01*
G01*
X25565000Y-6333000D02*
G75*
G03*
X25465000Y-6333000I-50000J0D01*
G01*
X25465000Y-6333000D02*
G75*
G03*
X25565000Y-6333000I50000J0D01*
G01*
X25819000Y-4809000D02*
G75*
G03*
X25719000Y-4809000I-50000J0D01*
G01*
X25719000Y-4809000D02*
G75*
G03*
X25819000Y-4809000I50000J0D01*
G01*
X25819000Y-6333000D02*
G75*
G03*
X25719000Y-6333000I-50000J0D01*
G01*
X25719000Y-6333000D02*
G75*
G03*
X25819000Y-6333000I50000J0D01*
G01*
X26073000Y-4809000D02*
G75*
G03*
X25973000Y-4809000I-50000J0D01*
G01*
X25973000Y-4809000D02*
G75*
G03*
X26073000Y-4809000I50000J0D01*
G01*
X26073000Y-6333000D02*
G75*
G03*
X25973000Y-6333000I-50000J0D01*
G01*
X25973000Y-6333000D02*
G75*
G03*
X26073000Y-6333000I50000J0D01*
G01*
X26327000Y-4809000D02*
G75*
G03*
X26227000Y-4809000I-50000J0D01*
G01*
X26227000Y-4809000D02*
G75*
G03*
X26327000Y-4809000I50000J0D01*
G01*
X26327000Y-6333000D02*
G75*
G03*
X26227000Y-6333000I-50000J0D01*
G01*
X26227000Y-6333000D02*
G75*
G03*
X26327000Y-6333000I50000J0D01*
G01*
X26581000Y-4809000D02*
G75*
G03*
X26481000Y-4809000I-50000J0D01*
G01*
X26481000Y-4809000D02*
G75*
G03*
X26581000Y-4809000I50000J0D01*
G01*
X26581000Y-6333000D02*
G75*
G03*
X26481000Y-6333000I-50000J0D01*
G01*
X26481000Y-6333000D02*
G75*
G03*
X26581000Y-6333000I50000J0D01*
G01*
X26835000Y-4809000D02*
G75*
G03*
X26735000Y-4809000I-50000J0D01*
G01*
X26735000Y-4809000D02*
G75*
G03*
X26835000Y-4809000I50000J0D01*
G01*
X26835000Y-6333000D02*
G75*
G03*
X26735000Y-6333000I-50000J0D01*
G01*
X26735000Y-6333000D02*
G75*
G03*
X26835000Y-6333000I50000J0D01*
G01*
X27089000Y-4809000D02*
G75*
G03*
X26989000Y-4809000I-50000J0D01*
G01*
X26989000Y-4809000D02*
G75*
G03*
X27089000Y-4809000I50000J0D01*
G01*
X27089000Y-6333000D02*
G75*
G03*
X26989000Y-6333000I-50000J0D01*
G01*
X26989000Y-6333000D02*
G75*
G03*
X27089000Y-6333000I50000J0D01*
G01*
X34091250Y-9275000D02*
G75*
G03*
X33991250Y-9275000I-50000J0D01*
G01*
X33991250Y-9275000D02*
G75*
G03*
X34091250Y-9275000I50000J0D01*
G01*
X34091250Y-9525000D02*
G75*
G03*
X33991250Y-9525000I-50000J0D01*
G01*
X33991250Y-9525000D02*
G75*
G03*
X34091250Y-9525000I50000J0D01*
G01*
X34091250Y-9775000D02*
G75*
G03*
X33991250Y-9775000I-50000J0D01*
G01*
X33991250Y-9775000D02*
G75*
G03*
X34091250Y-9775000I50000J0D01*
G01*
X35541250Y-9275000D02*
G75*
G03*
X35441250Y-9275000I-50000J0D01*
G01*
X35441250Y-9275000D02*
G75*
G03*
X35541250Y-9275000I50000J0D01*
G01*
X35541250Y-9775000D02*
G75*
G03*
X35441250Y-9775000I-50000J0D01*
G01*
X35441250Y-9775000D02*
G75*
G03*
X35541250Y-9775000I50000J0D01*
G01*
D12*
X8096250Y-10115000D02*
X8096250Y-10235000D01*
X8036250Y-10175000D02*
X8156250Y-10175000D01*
X8096250Y-12020000D02*
X8096250Y-12140000D01*
X8036250Y-12080000D02*
X8156250Y-12080000D01*
X8096250Y-13925000D02*
X8096250Y-14045000D01*
X8036250Y-13985000D02*
X8156250Y-13985000D01*
X8096250Y-15830000D02*
X8096250Y-15950000D01*
X8036250Y-15890000D02*
X8156250Y-15890000D01*
X8096250Y-17735000D02*
X8096250Y-17855000D01*
X8036250Y-17795000D02*
X8156250Y-17795000D01*
X8476250Y-9845000D02*
X8476250Y-9965000D01*
X8416250Y-9905000D02*
X8536250Y-9905000D01*
X8476250Y-11750000D02*
X8476250Y-11870000D01*
X8416250Y-11810000D02*
X8536250Y-11810000D01*
X8476250Y-13655000D02*
X8476250Y-13775000D01*
X8416250Y-13715000D02*
X8536250Y-13715000D01*
X8476250Y-15560000D02*
X8476250Y-15680000D01*
X8416250Y-15620000D02*
X8536250Y-15620000D01*
X8476250Y-17465000D02*
X8476250Y-17585000D01*
X8416250Y-17525000D02*
X8536250Y-17525000D01*
X8668750Y-14800000D02*
X8668750Y-14920000D01*
X8608750Y-14860000D02*
X8728750Y-14860000D01*
X9048750Y-14530000D02*
X9048750Y-14650000D01*
X8988750Y-14590000D02*
X9108750Y-14590000D01*
X10001250Y-10115000D02*
X10001250Y-10235000D01*
X9941250Y-10175000D02*
X10061250Y-10175000D01*
X10001250Y-12020000D02*
X10001250Y-12140000D01*
X9941250Y-12080000D02*
X10061250Y-12080000D01*
X10001250Y-13925000D02*
X10001250Y-14045000D01*
X9941250Y-13985000D02*
X10061250Y-13985000D01*
X10001250Y-15830000D02*
X10001250Y-15950000D01*
X9941250Y-15890000D02*
X10061250Y-15890000D01*
X10001250Y-17735000D02*
X10001250Y-17855000D01*
X9941250Y-17795000D02*
X10061250Y-17795000D01*
X10381250Y-9845000D02*
X10381250Y-9965000D01*
X10321250Y-9905000D02*
X10441250Y-9905000D01*
X10381250Y-11750000D02*
X10381250Y-11870000D01*
X10321250Y-11810000D02*
X10441250Y-11810000D01*
X10381250Y-13655000D02*
X10381250Y-13775000D01*
X10321250Y-13715000D02*
X10441250Y-13715000D01*
X10381250Y-15560000D02*
X10381250Y-15680000D01*
X10321250Y-15620000D02*
X10441250Y-15620000D01*
X10381250Y-17465000D02*
X10381250Y-17585000D01*
X10321250Y-17525000D02*
X10441250Y-17525000D01*
X11906250Y-10115000D02*
X11906250Y-10235000D01*
X11846250Y-10175000D02*
X11966250Y-10175000D01*
X11906250Y-12020000D02*
X11906250Y-12140000D01*
X11846250Y-12080000D02*
X11966250Y-12080000D01*
X11906250Y-13925000D02*
X11906250Y-14045000D01*
X11846250Y-13985000D02*
X11966250Y-13985000D01*
X11906250Y-15830000D02*
X11906250Y-15950000D01*
X11846250Y-15890000D02*
X11966250Y-15890000D01*
X11906250Y-17735000D02*
X11906250Y-17855000D01*
X11846250Y-17795000D02*
X11966250Y-17795000D01*
X12286250Y-9845000D02*
X12286250Y-9965000D01*
X12226250Y-9905000D02*
X12346250Y-9905000D01*
X12286250Y-11750000D02*
X12286250Y-11870000D01*
X12226250Y-11810000D02*
X12346250Y-11810000D01*
X12286250Y-13655000D02*
X12286250Y-13775000D01*
X12226250Y-13715000D02*
X12346250Y-13715000D01*
X12286250Y-15560000D02*
X12286250Y-15680000D01*
X12226250Y-15620000D02*
X12346250Y-15620000D01*
X12286250Y-17465000D02*
X12286250Y-17585000D01*
X12226250Y-17525000D02*
X12346250Y-17525000D01*
X13811250Y-10115000D02*
X13811250Y-10235000D01*
X13751250Y-10175000D02*
X13871250Y-10175000D01*
X13811250Y-12020000D02*
X13811250Y-12140000D01*
X13751250Y-12080000D02*
X13871250Y-12080000D01*
X13811250Y-13925000D02*
X13811250Y-14045000D01*
X13751250Y-13985000D02*
X13871250Y-13985000D01*
X13811250Y-15830000D02*
X13811250Y-15950000D01*
X13751250Y-15890000D02*
X13871250Y-15890000D01*
X13811250Y-17735000D02*
X13811250Y-17855000D01*
X13751250Y-17795000D02*
X13871250Y-17795000D01*
X14191250Y-9845000D02*
X14191250Y-9965000D01*
X14131250Y-9905000D02*
X14251250Y-9905000D01*
X14191250Y-11750000D02*
X14191250Y-11870000D01*
X14131250Y-11810000D02*
X14251250Y-11810000D01*
X14191250Y-13655000D02*
X14191250Y-13775000D01*
X14131250Y-13715000D02*
X14251250Y-13715000D01*
X14191250Y-15560000D02*
X14191250Y-15680000D01*
X14131250Y-15620000D02*
X14251250Y-15620000D01*
X14191250Y-17465000D02*
X14191250Y-17585000D01*
X14131250Y-17525000D02*
X14251250Y-17525000D01*
X15716250Y-10115000D02*
X15716250Y-10235000D01*
X15656250Y-10175000D02*
X15776250Y-10175000D01*
X15716250Y-12020000D02*
X15716250Y-12140000D01*
X15656250Y-12080000D02*
X15776250Y-12080000D01*
X15716250Y-13925000D02*
X15716250Y-14045000D01*
X15656250Y-13985000D02*
X15776250Y-13985000D01*
X15716250Y-15830000D02*
X15716250Y-15950000D01*
X15656250Y-15890000D02*
X15776250Y-15890000D01*
X15716250Y-17735000D02*
X15716250Y-17855000D01*
X15656250Y-17795000D02*
X15776250Y-17795000D01*
X16096250Y-9845000D02*
X16096250Y-9965000D01*
X16036250Y-9905000D02*
X16156250Y-9905000D01*
X16096250Y-11750000D02*
X16096250Y-11870000D01*
X16036250Y-11810000D02*
X16156250Y-11810000D01*
X16096250Y-13655000D02*
X16096250Y-13775000D01*
X16036250Y-13715000D02*
X16156250Y-13715000D01*
X16096250Y-15560000D02*
X16096250Y-15680000D01*
X16036250Y-15620000D02*
X16156250Y-15620000D01*
X16096250Y-17465000D02*
X16096250Y-17585000D01*
X16036250Y-17525000D02*
X16156250Y-17525000D01*
X16668750Y-17735000D02*
X16668750Y-17855000D01*
X16608750Y-17795000D02*
X16728750Y-17795000D01*
X17048750Y-17465000D02*
X17048750Y-17585000D01*
X16988750Y-17525000D02*
X17108750Y-17525000D01*
X17621250Y-10115000D02*
X17621250Y-10235000D01*
X17561250Y-10175000D02*
X17681250Y-10175000D01*
X17621250Y-12020000D02*
X17621250Y-12140000D01*
X17561250Y-12080000D02*
X17681250Y-12080000D01*
X17621250Y-13925000D02*
X17621250Y-14045000D01*
X17561250Y-13985000D02*
X17681250Y-13985000D01*
X17621250Y-15830000D02*
X17621250Y-15950000D01*
X17561250Y-15890000D02*
X17681250Y-15890000D01*
X17621250Y-17735000D02*
X17621250Y-17855000D01*
X17561250Y-17795000D02*
X17681250Y-17795000D01*
X18001250Y-9845000D02*
X18001250Y-9965000D01*
X17941250Y-9905000D02*
X18061250Y-9905000D01*
X18001250Y-11750000D02*
X18001250Y-11870000D01*
X17941250Y-11810000D02*
X18061250Y-11810000D01*
X18001250Y-13655000D02*
X18001250Y-13775000D01*
X17941250Y-13715000D02*
X18061250Y-13715000D01*
X18001250Y-15560000D02*
X18001250Y-15680000D01*
X17941250Y-15620000D02*
X18061250Y-15620000D01*
X18001250Y-17465000D02*
X18001250Y-17585000D01*
X17941250Y-17525000D02*
X18061250Y-17525000D01*
X19526250Y-10115000D02*
X19526250Y-10235000D01*
X19466250Y-10175000D02*
X19586250Y-10175000D01*
X19526250Y-12020000D02*
X19526250Y-12140000D01*
X19466250Y-12080000D02*
X19586250Y-12080000D01*
X19526250Y-13925000D02*
X19526250Y-14045000D01*
X19466250Y-13985000D02*
X19586250Y-13985000D01*
X19526250Y-15830000D02*
X19526250Y-15950000D01*
X19466250Y-15890000D02*
X19586250Y-15890000D01*
X19526250Y-17735000D02*
X19526250Y-17855000D01*
X19466250Y-17795000D02*
X19586250Y-17795000D01*
X19906250Y-9845000D02*
X19906250Y-9965000D01*
X19846250Y-9905000D02*
X19966250Y-9905000D01*
X19906250Y-11750000D02*
X19906250Y-11870000D01*
X19846250Y-11810000D02*
X19966250Y-11810000D01*
X19906250Y-13655000D02*
X19906250Y-13775000D01*
X19846250Y-13715000D02*
X19966250Y-13715000D01*
X19906250Y-15560000D02*
X19906250Y-15680000D01*
X19846250Y-15620000D02*
X19966250Y-15620000D01*
X19906250Y-17465000D02*
X19906250Y-17585000D01*
X19846250Y-17525000D02*
X19966250Y-17525000D01*
X20478750Y-17735000D02*
X20478750Y-17855000D01*
X20418750Y-17795000D02*
X20538750Y-17795000D01*
X20858750Y-17465000D02*
X20858750Y-17585000D01*
X20798750Y-17525000D02*
X20918750Y-17525000D01*
X21431250Y-10115000D02*
X21431250Y-10235000D01*
X21371250Y-10175000D02*
X21491250Y-10175000D01*
X21431250Y-12020000D02*
X21431250Y-12140000D01*
X21371250Y-12080000D02*
X21491250Y-12080000D01*
X21431250Y-13925000D02*
X21431250Y-14045000D01*
X21371250Y-13985000D02*
X21491250Y-13985000D01*
X21431250Y-15830000D02*
X21431250Y-15950000D01*
X21371250Y-15890000D02*
X21491250Y-15890000D01*
X21431250Y-17735000D02*
X21431250Y-17855000D01*
X21371250Y-17795000D02*
X21491250Y-17795000D01*
X21811250Y-9845000D02*
X21811250Y-9965000D01*
X21751250Y-9905000D02*
X21871250Y-9905000D01*
X21811250Y-11750000D02*
X21811250Y-11870000D01*
X21751250Y-11810000D02*
X21871250Y-11810000D01*
X21811250Y-13655000D02*
X21811250Y-13775000D01*
X21751250Y-13715000D02*
X21871250Y-13715000D01*
X21811250Y-15560000D02*
X21811250Y-15680000D01*
X21751250Y-15620000D02*
X21871250Y-15620000D01*
X21811250Y-17465000D02*
X21811250Y-17585000D01*
X21751250Y-17525000D02*
X21871250Y-17525000D01*
X22383750Y-17735000D02*
X22383750Y-17855000D01*
X22323750Y-17795000D02*
X22443750Y-17795000D01*
X22763750Y-17465000D02*
X22763750Y-17585000D01*
X22703750Y-17525000D02*
X22823750Y-17525000D01*
X23336250Y-10115000D02*
X23336250Y-10235000D01*
X23276250Y-10175000D02*
X23396250Y-10175000D01*
X23336250Y-12020000D02*
X23336250Y-12140000D01*
X23276250Y-12080000D02*
X23396250Y-12080000D01*
X23336250Y-13925000D02*
X23336250Y-14045000D01*
X23276250Y-13985000D02*
X23396250Y-13985000D01*
X23336250Y-15830000D02*
X23336250Y-15950000D01*
X23276250Y-15890000D02*
X23396250Y-15890000D01*
X23336250Y-17735000D02*
X23336250Y-17855000D01*
X23276250Y-17795000D02*
X23396250Y-17795000D01*
X23716250Y-9845000D02*
X23716250Y-9965000D01*
X23656250Y-9905000D02*
X23776250Y-9905000D01*
X23716250Y-11750000D02*
X23716250Y-11870000D01*
X23656250Y-11810000D02*
X23776250Y-11810000D01*
X23716250Y-13655000D02*
X23716250Y-13775000D01*
X23656250Y-13715000D02*
X23776250Y-13715000D01*
X23716250Y-15560000D02*
X23716250Y-15680000D01*
X23656250Y-15620000D02*
X23776250Y-15620000D01*
X23716250Y-17465000D02*
X23716250Y-17585000D01*
X23656250Y-17525000D02*
X23776250Y-17525000D01*
X25241250Y-10115000D02*
X25241250Y-10235000D01*
X25181250Y-10175000D02*
X25301250Y-10175000D01*
X25241250Y-12020000D02*
X25241250Y-12140000D01*
X25181250Y-12080000D02*
X25301250Y-12080000D01*
X25241250Y-13925000D02*
X25241250Y-14045000D01*
X25181250Y-13985000D02*
X25301250Y-13985000D01*
X25241250Y-15830000D02*
X25241250Y-15950000D01*
X25181250Y-15890000D02*
X25301250Y-15890000D01*
X25241250Y-17735000D02*
X25241250Y-17855000D01*
X25181250Y-17795000D02*
X25301250Y-17795000D01*
X25621250Y-9845000D02*
X25621250Y-9965000D01*
X25561250Y-9905000D02*
X25681250Y-9905000D01*
X25621250Y-11750000D02*
X25621250Y-11870000D01*
X25561250Y-11810000D02*
X25681250Y-11810000D01*
X25621250Y-13655000D02*
X25621250Y-13775000D01*
X25561250Y-13715000D02*
X25681250Y-13715000D01*
X25621250Y-15560000D02*
X25621250Y-15680000D01*
X25561250Y-15620000D02*
X25681250Y-15620000D01*
X25621250Y-17465000D02*
X25621250Y-17585000D01*
X25561250Y-17525000D02*
X25681250Y-17525000D01*
X27146250Y-10115000D02*
X27146250Y-10235000D01*
X27086250Y-10175000D02*
X27206250Y-10175000D01*
X27146250Y-12020000D02*
X27146250Y-12140000D01*
X27086250Y-12080000D02*
X27206250Y-12080000D01*
X27146250Y-13925000D02*
X27146250Y-14045000D01*
X27086250Y-13985000D02*
X27206250Y-13985000D01*
X27146250Y-15830000D02*
X27146250Y-15950000D01*
X27086250Y-15890000D02*
X27206250Y-15890000D01*
X27146250Y-17735000D02*
X27146250Y-17855000D01*
X27086250Y-17795000D02*
X27206250Y-17795000D01*
X27526250Y-9845000D02*
X27526250Y-9965000D01*
X27466250Y-9905000D02*
X27586250Y-9905000D01*
X27526250Y-11750000D02*
X27526250Y-11870000D01*
X27466250Y-11810000D02*
X27586250Y-11810000D01*
X27526250Y-13655000D02*
X27526250Y-13775000D01*
X27466250Y-13715000D02*
X27586250Y-13715000D01*
X27526250Y-15560000D02*
X27526250Y-15680000D01*
X27466250Y-15620000D02*
X27586250Y-15620000D01*
X27526250Y-17465000D02*
X27526250Y-17585000D01*
X27466250Y-17525000D02*
X27586250Y-17525000D01*
X29051250Y-10115000D02*
X29051250Y-10235000D01*
X28991250Y-10175000D02*
X29111250Y-10175000D01*
X29051250Y-12020000D02*
X29051250Y-12140000D01*
X28991250Y-12080000D02*
X29111250Y-12080000D01*
X29051250Y-13925000D02*
X29051250Y-14045000D01*
X28991250Y-13985000D02*
X29111250Y-13985000D01*
X29051250Y-15830000D02*
X29051250Y-15950000D01*
X28991250Y-15890000D02*
X29111250Y-15890000D01*
X29051250Y-17735000D02*
X29051250Y-17855000D01*
X28991250Y-17795000D02*
X29111250Y-17795000D01*
X29431250Y-9845000D02*
X29431250Y-9965000D01*
X29371250Y-9905000D02*
X29491250Y-9905000D01*
X29431250Y-11750000D02*
X29431250Y-11870000D01*
X29371250Y-11810000D02*
X29491250Y-11810000D01*
X29431250Y-13655000D02*
X29431250Y-13775000D01*
X29371250Y-13715000D02*
X29491250Y-13715000D01*
X29431250Y-15560000D02*
X29431250Y-15680000D01*
X29371250Y-15620000D02*
X29491250Y-15620000D01*
X29431250Y-17465000D02*
X29431250Y-17585000D01*
X29371250Y-17525000D02*
X29491250Y-17525000D01*
X30003750Y-15830000D02*
X30003750Y-15950000D01*
X29943750Y-15890000D02*
X30063750Y-15890000D01*
X30383750Y-15560000D02*
X30383750Y-15680000D01*
X30323750Y-15620000D02*
X30443750Y-15620000D01*
X30956250Y-10115000D02*
X30956250Y-10235000D01*
X30896250Y-10175000D02*
X31016250Y-10175000D01*
X30956250Y-12020000D02*
X30956250Y-12140000D01*
X30896250Y-12080000D02*
X31016250Y-12080000D01*
X30956250Y-13925000D02*
X30956250Y-14045000D01*
X30896250Y-13985000D02*
X31016250Y-13985000D01*
X30956250Y-15830000D02*
X30956250Y-15950000D01*
X30896250Y-15890000D02*
X31016250Y-15890000D01*
X30956250Y-17735000D02*
X30956250Y-17855000D01*
X30896250Y-17795000D02*
X31016250Y-17795000D01*
X31336250Y-9845000D02*
X31336250Y-9965000D01*
X31276250Y-9905000D02*
X31396250Y-9905000D01*
X31336250Y-11750000D02*
X31336250Y-11870000D01*
X31276250Y-11810000D02*
X31396250Y-11810000D01*
X31336250Y-13655000D02*
X31336250Y-13775000D01*
X31276250Y-13715000D02*
X31396250Y-13715000D01*
X31336250Y-15560000D02*
X31336250Y-15680000D01*
X31276250Y-15620000D02*
X31396250Y-15620000D01*
X31336250Y-17465000D02*
X31336250Y-17585000D01*
X31276250Y-17525000D02*
X31396250Y-17525000D01*
X32861250Y-10115000D02*
X32861250Y-10235000D01*
X32801250Y-10175000D02*
X32921250Y-10175000D01*
X32861250Y-12020000D02*
X32861250Y-12140000D01*
X32801250Y-12080000D02*
X32921250Y-12080000D01*
X32861250Y-13925000D02*
X32861250Y-14045000D01*
X32801250Y-13985000D02*
X32921250Y-13985000D01*
X32861250Y-15830000D02*
X32861250Y-15950000D01*
X32801250Y-15890000D02*
X32921250Y-15890000D01*
X32861250Y-17735000D02*
X32861250Y-17855000D01*
X32801250Y-17795000D02*
X32921250Y-17795000D01*
X33241250Y-9845000D02*
X33241250Y-9965000D01*
X33181250Y-9905000D02*
X33301250Y-9905000D01*
X33241250Y-11750000D02*
X33241250Y-11870000D01*
X33181250Y-11810000D02*
X33301250Y-11810000D01*
X33241250Y-13655000D02*
X33241250Y-13775000D01*
X33181250Y-13715000D02*
X33301250Y-13715000D01*
X33241250Y-15560000D02*
X33241250Y-15680000D01*
X33181250Y-15620000D02*
X33301250Y-15620000D01*
X33241250Y-17465000D02*
X33241250Y-17585000D01*
X33181250Y-17525000D02*
X33301250Y-17525000D01*
X33433750Y-10990000D02*
X33433750Y-11110000D01*
X33373750Y-11050000D02*
X33493750Y-11050000D01*
X33813750Y-10720000D02*
X33813750Y-10840000D01*
X33753750Y-10780000D02*
X33873750Y-10780000D01*
X33813750Y-13925000D02*
X33813750Y-14045000D01*
X33753750Y-13985000D02*
X33873750Y-13985000D01*
X34193750Y-13655000D02*
X34193750Y-13775000D01*
X34133750Y-13715000D02*
X34253750Y-13715000D01*
X34766250Y-12020000D02*
X34766250Y-12140000D01*
X34706250Y-12080000D02*
X34826250Y-12080000D01*
X34766250Y-13925000D02*
X34766250Y-14045000D01*
X34706250Y-13985000D02*
X34826250Y-13985000D01*
X34766250Y-15830000D02*
X34766250Y-15950000D01*
X34706250Y-15890000D02*
X34826250Y-15890000D01*
X34766250Y-17735000D02*
X34766250Y-17855000D01*
X34706250Y-17795000D02*
X34826250Y-17795000D01*
X35146250Y-11750000D02*
X35146250Y-11870000D01*
X35086250Y-11810000D02*
X35206250Y-11810000D01*
X35146250Y-13655000D02*
X35146250Y-13775000D01*
X35086250Y-13715000D02*
X35206250Y-13715000D01*
X35146250Y-15560000D02*
X35146250Y-15680000D01*
X35086250Y-15620000D02*
X35206250Y-15620000D01*
X35146250Y-17465000D02*
X35146250Y-17585000D01*
X35086250Y-17525000D02*
X35206250Y-17525000D01*
D13*
X7895283Y-10086034D02*
X7895283Y-9979967D01*
X7789216Y-9979967D01*
X7789216Y-10086034D01*
X7895283Y-10086034D01*
X7895283Y-11991033D02*
X7895283Y-11884966D01*
X7789216Y-11884966D01*
X7789216Y-11991033D01*
X7895283Y-11991033D01*
X7895283Y-13896033D02*
X7895283Y-13789966D01*
X7789216Y-13789966D01*
X7789216Y-13896033D01*
X7895283Y-13896033D01*
X7895283Y-15801033D02*
X7895283Y-15694966D01*
X7789216Y-15694966D01*
X7789216Y-15801033D01*
X7895283Y-15801033D01*
X7895283Y-17706034D02*
X7895283Y-17599967D01*
X7789216Y-17599967D01*
X7789216Y-17706034D01*
X7895283Y-17706034D01*
X8530284Y-9832034D02*
X8530284Y-9725967D01*
X8424217Y-9725967D01*
X8424217Y-9832034D01*
X8530284Y-9832034D01*
X8530284Y-11737033D02*
X8530284Y-11630966D01*
X8424217Y-11630966D01*
X8424217Y-11737033D01*
X8530284Y-11737033D01*
X8530284Y-13642033D02*
X8530284Y-13535966D01*
X8424217Y-13535966D01*
X8424217Y-13642033D01*
X8530284Y-13642033D01*
X8530284Y-15547033D02*
X8530284Y-15440966D01*
X8424217Y-15440966D01*
X8424217Y-15547033D01*
X8530284Y-15547033D01*
X8530284Y-17452034D02*
X8530284Y-17345967D01*
X8424217Y-17345967D01*
X8424217Y-17452034D01*
X8530284Y-17452034D01*
X8720784Y-15039033D02*
X8720784Y-14932966D01*
X8614717Y-14932966D01*
X8614717Y-15039033D01*
X8720784Y-15039033D01*
X9355784Y-14785033D02*
X9355784Y-14678966D01*
X9249717Y-14678966D01*
X9249717Y-14785033D01*
X9355784Y-14785033D01*
X9800284Y-10086034D02*
X9800284Y-9979967D01*
X9694217Y-9979967D01*
X9694217Y-10086034D01*
X9800284Y-10086034D01*
X9800284Y-11991033D02*
X9800284Y-11884966D01*
X9694217Y-11884966D01*
X9694217Y-11991033D01*
X9800284Y-11991033D01*
X9800284Y-13896033D02*
X9800284Y-13789966D01*
X9694217Y-13789966D01*
X9694217Y-13896033D01*
X9800284Y-13896033D01*
X9800284Y-15801033D02*
X9800284Y-15694966D01*
X9694217Y-15694966D01*
X9694217Y-15801033D01*
X9800284Y-15801033D01*
X9800284Y-17706034D02*
X9800284Y-17599967D01*
X9694217Y-17599967D01*
X9694217Y-17706034D01*
X9800284Y-17706034D01*
X10435284Y-9832034D02*
X10435284Y-9725967D01*
X10329217Y-9725967D01*
X10329217Y-9832034D01*
X10435284Y-9832034D01*
X10435284Y-11737033D02*
X10435284Y-11630966D01*
X10329217Y-11630966D01*
X10329217Y-11737033D01*
X10435284Y-11737033D01*
X10435284Y-13642033D02*
X10435284Y-13535966D01*
X10329217Y-13535966D01*
X10329217Y-13642033D01*
X10435284Y-13642033D01*
X10435284Y-15547033D02*
X10435284Y-15440966D01*
X10329217Y-15440966D01*
X10329217Y-15547033D01*
X10435284Y-15547033D01*
X10435284Y-17452034D02*
X10435284Y-17345967D01*
X10329217Y-17345967D01*
X10329217Y-17452034D01*
X10435284Y-17452034D01*
X11705283Y-10086034D02*
X11705283Y-9979967D01*
X11599216Y-9979967D01*
X11599216Y-10086034D01*
X11705283Y-10086034D01*
X11705283Y-11991033D02*
X11705283Y-11884966D01*
X11599216Y-11884966D01*
X11599216Y-11991033D01*
X11705283Y-11991033D01*
X11705283Y-13896033D02*
X11705283Y-13789966D01*
X11599216Y-13789966D01*
X11599216Y-13896033D01*
X11705283Y-13896033D01*
X11705283Y-15801033D02*
X11705283Y-15694966D01*
X11599216Y-15694966D01*
X11599216Y-15801033D01*
X11705283Y-15801033D01*
X11705283Y-17706034D02*
X11705283Y-17599967D01*
X11599216Y-17599967D01*
X11599216Y-17706034D01*
X11705283Y-17706034D01*
X12340283Y-9832034D02*
X12340283Y-9725967D01*
X12234216Y-9725967D01*
X12234216Y-9832034D01*
X12340283Y-9832034D01*
X12340283Y-11737033D02*
X12340283Y-11630966D01*
X12234216Y-11630966D01*
X12234216Y-11737033D01*
X12340283Y-11737033D01*
X12340283Y-13642033D02*
X12340283Y-13535966D01*
X12234216Y-13535966D01*
X12234216Y-13642033D01*
X12340283Y-13642033D01*
X12340283Y-15547033D02*
X12340283Y-15440966D01*
X12234216Y-15440966D01*
X12234216Y-15547033D01*
X12340283Y-15547033D01*
X12340283Y-17452034D02*
X12340283Y-17345967D01*
X12234216Y-17345967D01*
X12234216Y-17452034D01*
X12340283Y-17452034D01*
X13610283Y-10086034D02*
X13610283Y-9979967D01*
X13504216Y-9979967D01*
X13504216Y-10086034D01*
X13610283Y-10086034D01*
X13610283Y-11991033D02*
X13610283Y-11884966D01*
X13504216Y-11884966D01*
X13504216Y-11991033D01*
X13610283Y-11991033D01*
X13610283Y-13896033D02*
X13610283Y-13789966D01*
X13504216Y-13789966D01*
X13504216Y-13896033D01*
X13610283Y-13896033D01*
X13610283Y-15801033D02*
X13610283Y-15694966D01*
X13504216Y-15694966D01*
X13504216Y-15801033D01*
X13610283Y-15801033D01*
X13610283Y-17706034D02*
X13610283Y-17599967D01*
X13504216Y-17599967D01*
X13504216Y-17706034D01*
X13610283Y-17706034D01*
X14245283Y-9832034D02*
X14245283Y-9725967D01*
X14139216Y-9725967D01*
X14139216Y-9832034D01*
X14245283Y-9832034D01*
X14245283Y-11737033D02*
X14245283Y-11630966D01*
X14139216Y-11630966D01*
X14139216Y-11737033D01*
X14245283Y-11737033D01*
X14245283Y-13642033D02*
X14245283Y-13535966D01*
X14139216Y-13535966D01*
X14139216Y-13642033D01*
X14245283Y-13642033D01*
X14245283Y-15547033D02*
X14245283Y-15440966D01*
X14139216Y-15440966D01*
X14139216Y-15547033D01*
X14245283Y-15547033D01*
X14245283Y-17452034D02*
X14245283Y-17345967D01*
X14139216Y-17345967D01*
X14139216Y-17452034D01*
X14245283Y-17452034D01*
X15515283Y-10086034D02*
X15515283Y-9979967D01*
X15409216Y-9979967D01*
X15409216Y-10086034D01*
X15515283Y-10086034D01*
X15515283Y-11991033D02*
X15515283Y-11884966D01*
X15409216Y-11884966D01*
X15409216Y-11991033D01*
X15515283Y-11991033D01*
X15515283Y-13896033D02*
X15515283Y-13789966D01*
X15409216Y-13789966D01*
X15409216Y-13896033D01*
X15515283Y-13896033D01*
X15515283Y-15801033D02*
X15515283Y-15694966D01*
X15409216Y-15694966D01*
X15409216Y-15801033D01*
X15515283Y-15801033D01*
X15515283Y-17706034D02*
X15515283Y-17599967D01*
X15409216Y-17599967D01*
X15409216Y-17706034D01*
X15515283Y-17706034D01*
X16150283Y-9832034D02*
X16150283Y-9725967D01*
X16044216Y-9725967D01*
X16044216Y-9832034D01*
X16150283Y-9832034D01*
X16150283Y-11737033D02*
X16150283Y-11630966D01*
X16044216Y-11630966D01*
X16044216Y-11737033D01*
X16150283Y-11737033D01*
X16150283Y-13642033D02*
X16150283Y-13535966D01*
X16044216Y-13535966D01*
X16044216Y-13642033D01*
X16150283Y-13642033D01*
X16150283Y-15547033D02*
X16150283Y-15440966D01*
X16044216Y-15440966D01*
X16044216Y-15547033D01*
X16150283Y-15547033D01*
X16150283Y-17452034D02*
X16150283Y-17345967D01*
X16044216Y-17345967D01*
X16044216Y-17452034D01*
X16150283Y-17452034D01*
X16467783Y-17706034D02*
X16467783Y-17599967D01*
X16361716Y-17599967D01*
X16361716Y-17706034D01*
X16467783Y-17706034D01*
X17102784Y-17452034D02*
X17102784Y-17345967D01*
X16996717Y-17345967D01*
X16996717Y-17452034D01*
X17102784Y-17452034D01*
X17420284Y-10086034D02*
X17420284Y-9979967D01*
X17314217Y-9979967D01*
X17314217Y-10086034D01*
X17420284Y-10086034D01*
X17420284Y-11991033D02*
X17420284Y-11884966D01*
X17314217Y-11884966D01*
X17314217Y-11991033D01*
X17420284Y-11991033D01*
X17420284Y-13896033D02*
X17420284Y-13789966D01*
X17314217Y-13789966D01*
X17314217Y-13896033D01*
X17420284Y-13896033D01*
X17420284Y-15801033D02*
X17420284Y-15694966D01*
X17314217Y-15694966D01*
X17314217Y-15801033D01*
X17420284Y-15801033D01*
X17420284Y-17706034D02*
X17420284Y-17599967D01*
X17314217Y-17599967D01*
X17314217Y-17706034D01*
X17420284Y-17706034D01*
X18055284Y-9832034D02*
X18055284Y-9725967D01*
X17949217Y-9725967D01*
X17949217Y-9832034D01*
X18055284Y-9832034D01*
X18055284Y-11737033D02*
X18055284Y-11630966D01*
X17949217Y-11630966D01*
X17949217Y-11737033D01*
X18055284Y-11737033D01*
X18055284Y-13642033D02*
X18055284Y-13535966D01*
X17949217Y-13535966D01*
X17949217Y-13642033D01*
X18055284Y-13642033D01*
X18055284Y-15547033D02*
X18055284Y-15440966D01*
X17949217Y-15440966D01*
X17949217Y-15547033D01*
X18055284Y-15547033D01*
X18055284Y-17452034D02*
X18055284Y-17345967D01*
X17949217Y-17345967D01*
X17949217Y-17452034D01*
X18055284Y-17452034D01*
X19325284Y-10086034D02*
X19325284Y-9979967D01*
X19219217Y-9979967D01*
X19219217Y-10086034D01*
X19325284Y-10086034D01*
X19325284Y-11991033D02*
X19325284Y-11884966D01*
X19219217Y-11884966D01*
X19219217Y-11991033D01*
X19325284Y-11991033D01*
X19325284Y-13896033D02*
X19325284Y-13789966D01*
X19219217Y-13789966D01*
X19219217Y-13896033D01*
X19325284Y-13896033D01*
X19325284Y-15801033D02*
X19325284Y-15694966D01*
X19219217Y-15694966D01*
X19219217Y-15801033D01*
X19325284Y-15801033D01*
X19325284Y-17706034D02*
X19325284Y-17599967D01*
X19219217Y-17599967D01*
X19219217Y-17706034D01*
X19325284Y-17706034D01*
X19960284Y-9832034D02*
X19960284Y-9725967D01*
X19854217Y-9725967D01*
X19854217Y-9832034D01*
X19960284Y-9832034D01*
X19960284Y-11737033D02*
X19960284Y-11630966D01*
X19854217Y-11630966D01*
X19854217Y-11737033D01*
X19960284Y-11737033D01*
X19960284Y-13642033D02*
X19960284Y-13535966D01*
X19854217Y-13535966D01*
X19854217Y-13642033D01*
X19960284Y-13642033D01*
X19960284Y-15547033D02*
X19960284Y-15440966D01*
X19854217Y-15440966D01*
X19854217Y-15547033D01*
X19960284Y-15547033D01*
X19960284Y-17452034D02*
X19960284Y-17345967D01*
X19854217Y-17345967D01*
X19854217Y-17452034D01*
X19960284Y-17452034D01*
X20277784Y-17706034D02*
X20277784Y-17599967D01*
X20171717Y-17599967D01*
X20171717Y-17706034D01*
X20277784Y-17706034D01*
X20912784Y-17452034D02*
X20912784Y-17345967D01*
X20806717Y-17345967D01*
X20806717Y-17452034D01*
X20912784Y-17452034D01*
X21230284Y-10086034D02*
X21230284Y-9979967D01*
X21124217Y-9979967D01*
X21124217Y-10086034D01*
X21230284Y-10086034D01*
X21230284Y-11991033D02*
X21230284Y-11884966D01*
X21124217Y-11884966D01*
X21124217Y-11991033D01*
X21230284Y-11991033D01*
X21230284Y-13896033D02*
X21230284Y-13789966D01*
X21124217Y-13789966D01*
X21124217Y-13896033D01*
X21230284Y-13896033D01*
X21230284Y-15801033D02*
X21230284Y-15694966D01*
X21124217Y-15694966D01*
X21124217Y-15801033D01*
X21230284Y-15801033D01*
X21230284Y-17706034D02*
X21230284Y-17599967D01*
X21124217Y-17599967D01*
X21124217Y-17706034D01*
X21230284Y-17706034D01*
X21865284Y-9832034D02*
X21865284Y-9725967D01*
X21759217Y-9725967D01*
X21759217Y-9832034D01*
X21865284Y-9832034D01*
X21865284Y-11737033D02*
X21865284Y-11630966D01*
X21759217Y-11630966D01*
X21759217Y-11737033D01*
X21865284Y-11737033D01*
X21865284Y-13642033D02*
X21865284Y-13535966D01*
X21759217Y-13535966D01*
X21759217Y-13642033D01*
X21865284Y-13642033D01*
X21865284Y-15547033D02*
X21865284Y-15440966D01*
X21759217Y-15440966D01*
X21759217Y-15547033D01*
X21865284Y-15547033D01*
X21865284Y-17452034D02*
X21865284Y-17345967D01*
X21759217Y-17345967D01*
X21759217Y-17452034D01*
X21865284Y-17452034D01*
X22182784Y-17706034D02*
X22182784Y-17599967D01*
X22076717Y-17599967D01*
X22076717Y-17706034D01*
X22182784Y-17706034D01*
X22817783Y-17452034D02*
X22817783Y-17345967D01*
X22711716Y-17345967D01*
X22711716Y-17452034D01*
X22817783Y-17452034D01*
X23135283Y-10086034D02*
X23135283Y-9979967D01*
X23029216Y-9979967D01*
X23029216Y-10086034D01*
X23135283Y-10086034D01*
X23135283Y-11991033D02*
X23135283Y-11884966D01*
X23029216Y-11884966D01*
X23029216Y-11991033D01*
X23135283Y-11991033D01*
X23135283Y-13896033D02*
X23135283Y-13789966D01*
X23029216Y-13789966D01*
X23029216Y-13896033D01*
X23135283Y-13896033D01*
X23135283Y-15801033D02*
X23135283Y-15694966D01*
X23029216Y-15694966D01*
X23029216Y-15801033D01*
X23135283Y-15801033D01*
X23135283Y-17706034D02*
X23135283Y-17599967D01*
X23029216Y-17599967D01*
X23029216Y-17706034D01*
X23135283Y-17706034D01*
X23770283Y-9832034D02*
X23770283Y-9725967D01*
X23664216Y-9725967D01*
X23664216Y-9832034D01*
X23770283Y-9832034D01*
X23770283Y-11737033D02*
X23770283Y-11630966D01*
X23664216Y-11630966D01*
X23664216Y-11737033D01*
X23770283Y-11737033D01*
X23770283Y-13642033D02*
X23770283Y-13535966D01*
X23664216Y-13535966D01*
X23664216Y-13642033D01*
X23770283Y-13642033D01*
X23770283Y-15547033D02*
X23770283Y-15440966D01*
X23664216Y-15440966D01*
X23664216Y-15547033D01*
X23770283Y-15547033D01*
X23770283Y-17452034D02*
X23770283Y-17345967D01*
X23664216Y-17345967D01*
X23664216Y-17452034D01*
X23770283Y-17452034D01*
X25040283Y-10086034D02*
X25040283Y-9979967D01*
X24934216Y-9979967D01*
X24934216Y-10086034D01*
X25040283Y-10086034D01*
X25040283Y-11991033D02*
X25040283Y-11884966D01*
X24934216Y-11884966D01*
X24934216Y-11991033D01*
X25040283Y-11991033D01*
X25040283Y-13896033D02*
X25040283Y-13789966D01*
X24934216Y-13789966D01*
X24934216Y-13896033D01*
X25040283Y-13896033D01*
X25040283Y-15801033D02*
X25040283Y-15694966D01*
X24934216Y-15694966D01*
X24934216Y-15801033D01*
X25040283Y-15801033D01*
X25040283Y-17706034D02*
X25040283Y-17599967D01*
X24934216Y-17599967D01*
X24934216Y-17706034D01*
X25040283Y-17706034D01*
X25675283Y-9832034D02*
X25675283Y-9725967D01*
X25569216Y-9725967D01*
X25569216Y-9832034D01*
X25675283Y-9832034D01*
X25675283Y-11737033D02*
X25675283Y-11630966D01*
X25569216Y-11630966D01*
X25569216Y-11737033D01*
X25675283Y-11737033D01*
X25675283Y-13642033D02*
X25675283Y-13535966D01*
X25569216Y-13535966D01*
X25569216Y-13642033D01*
X25675283Y-13642033D01*
X25675283Y-15547033D02*
X25675283Y-15440966D01*
X25569216Y-15440966D01*
X25569216Y-15547033D01*
X25675283Y-15547033D01*
X25675283Y-17452034D02*
X25675283Y-17345967D01*
X25569216Y-17345967D01*
X25569216Y-17452034D01*
X25675283Y-17452034D01*
X26945283Y-10086034D02*
X26945283Y-9979967D01*
X26839216Y-9979967D01*
X26839216Y-10086034D01*
X26945283Y-10086034D01*
X26945283Y-11991033D02*
X26945283Y-11884966D01*
X26839216Y-11884966D01*
X26839216Y-11991033D01*
X26945283Y-11991033D01*
X26945283Y-13896033D02*
X26945283Y-13789966D01*
X26839216Y-13789966D01*
X26839216Y-13896033D01*
X26945283Y-13896033D01*
X26945283Y-15801033D02*
X26945283Y-15694966D01*
X26839216Y-15694966D01*
X26839216Y-15801033D01*
X26945283Y-15801033D01*
X26945283Y-17706034D02*
X26945283Y-17599967D01*
X26839216Y-17599967D01*
X26839216Y-17706034D01*
X26945283Y-17706034D01*
X27580283Y-9832034D02*
X27580283Y-9725967D01*
X27474216Y-9725967D01*
X27474216Y-9832034D01*
X27580283Y-9832034D01*
X27580283Y-11737033D02*
X27580283Y-11630966D01*
X27474216Y-11630966D01*
X27474216Y-11737033D01*
X27580283Y-11737033D01*
X27580283Y-13642033D02*
X27580283Y-13535966D01*
X27474216Y-13535966D01*
X27474216Y-13642033D01*
X27580283Y-13642033D01*
X27580283Y-15547033D02*
X27580283Y-15440966D01*
X27474216Y-15440966D01*
X27474216Y-15547033D01*
X27580283Y-15547033D01*
X27580283Y-17452034D02*
X27580283Y-17345967D01*
X27474216Y-17345967D01*
X27474216Y-17452034D01*
X27580283Y-17452034D01*
X28850283Y-10086034D02*
X28850283Y-9979967D01*
X28744216Y-9979967D01*
X28744216Y-10086034D01*
X28850283Y-10086034D01*
X28850283Y-11991033D02*
X28850283Y-11884966D01*
X28744216Y-11884966D01*
X28744216Y-11991033D01*
X28850283Y-11991033D01*
X28850283Y-13896033D02*
X28850283Y-13789966D01*
X28744216Y-13789966D01*
X28744216Y-13896033D01*
X28850283Y-13896033D01*
X28850283Y-15801033D02*
X28850283Y-15694966D01*
X28744216Y-15694966D01*
X28744216Y-15801033D01*
X28850283Y-15801033D01*
X28850283Y-17706034D02*
X28850283Y-17599967D01*
X28744216Y-17599967D01*
X28744216Y-17706034D01*
X28850283Y-17706034D01*
X29485283Y-9832034D02*
X29485283Y-9725967D01*
X29379216Y-9725967D01*
X29379216Y-9832034D01*
X29485283Y-9832034D01*
X29485283Y-11737033D02*
X29485283Y-11630966D01*
X29379216Y-11630966D01*
X29379216Y-11737033D01*
X29485283Y-11737033D01*
X29485283Y-13642033D02*
X29485283Y-13535966D01*
X29379216Y-13535966D01*
X29379216Y-13642033D01*
X29485283Y-13642033D01*
X29485283Y-15547033D02*
X29485283Y-15440966D01*
X29379216Y-15440966D01*
X29379216Y-15547033D01*
X29485283Y-15547033D01*
X29485283Y-17452034D02*
X29485283Y-17345967D01*
X29379216Y-17345967D01*
X29379216Y-17452034D01*
X29485283Y-17452034D01*
X29802783Y-15801033D02*
X29802783Y-15694966D01*
X29696716Y-15694966D01*
X29696716Y-15801033D01*
X29802783Y-15801033D01*
X30437783Y-15547033D02*
X30437783Y-15440966D01*
X30331716Y-15440966D01*
X30331716Y-15547033D01*
X30437783Y-15547033D01*
X30755283Y-10086034D02*
X30755283Y-9979967D01*
X30649216Y-9979967D01*
X30649216Y-10086034D01*
X30755283Y-10086034D01*
X30755283Y-11991033D02*
X30755283Y-11884966D01*
X30649216Y-11884966D01*
X30649216Y-11991033D01*
X30755283Y-11991033D01*
X30755283Y-13896033D02*
X30755283Y-13789966D01*
X30649216Y-13789966D01*
X30649216Y-13896033D01*
X30755283Y-13896033D01*
X30755283Y-15801033D02*
X30755283Y-15694966D01*
X30649216Y-15694966D01*
X30649216Y-15801033D01*
X30755283Y-15801033D01*
X30755283Y-17706034D02*
X30755283Y-17599967D01*
X30649216Y-17599967D01*
X30649216Y-17706034D01*
X30755283Y-17706034D01*
X31390283Y-9832034D02*
X31390283Y-9725967D01*
X31284216Y-9725967D01*
X31284216Y-9832034D01*
X31390283Y-9832034D01*
X31390283Y-11737033D02*
X31390283Y-11630966D01*
X31284216Y-11630966D01*
X31284216Y-11737033D01*
X31390283Y-11737033D01*
X31390283Y-13642033D02*
X31390283Y-13535966D01*
X31284216Y-13535966D01*
X31284216Y-13642033D01*
X31390283Y-13642033D01*
X31390283Y-15547033D02*
X31390283Y-15440966D01*
X31284216Y-15440966D01*
X31284216Y-15547033D01*
X31390283Y-15547033D01*
X31390283Y-17452034D02*
X31390283Y-17345967D01*
X31284216Y-17345967D01*
X31284216Y-17452034D01*
X31390283Y-17452034D01*
X32660283Y-10086034D02*
X32660283Y-9979967D01*
X32554216Y-9979967D01*
X32554216Y-10086034D01*
X32660283Y-10086034D01*
X32660283Y-11991033D02*
X32660283Y-11884966D01*
X32554216Y-11884966D01*
X32554216Y-11991033D01*
X32660283Y-11991033D01*
X32660283Y-13896033D02*
X32660283Y-13789966D01*
X32554216Y-13789966D01*
X32554216Y-13896033D01*
X32660283Y-13896033D01*
X32660283Y-15801033D02*
X32660283Y-15694966D01*
X32554216Y-15694966D01*
X32554216Y-15801033D01*
X32660283Y-15801033D01*
X32660283Y-17706034D02*
X32660283Y-17599967D01*
X32554216Y-17599967D01*
X32554216Y-17706034D01*
X32660283Y-17706034D01*
X33295283Y-9832034D02*
X33295283Y-9725967D01*
X33189216Y-9725967D01*
X33189216Y-9832034D01*
X33295283Y-9832034D01*
X33295283Y-11737033D02*
X33295283Y-11630966D01*
X33189216Y-11630966D01*
X33189216Y-11737033D01*
X33295283Y-11737033D01*
X33295283Y-13642033D02*
X33295283Y-13535966D01*
X33189216Y-13535966D01*
X33189216Y-13642033D01*
X33295283Y-13642033D01*
X33295283Y-15547033D02*
X33295283Y-15440966D01*
X33189216Y-15440966D01*
X33189216Y-15547033D01*
X33295283Y-15547033D01*
X33295283Y-17452034D02*
X33295283Y-17345967D01*
X33189216Y-17345967D01*
X33189216Y-17452034D01*
X33295283Y-17452034D01*
X33485783Y-11229033D02*
X33485783Y-11122967D01*
X33379716Y-11122967D01*
X33379716Y-11229033D01*
X33485783Y-11229033D01*
X33612784Y-13896033D02*
X33612784Y-13789966D01*
X33506716Y-13789966D01*
X33506716Y-13896033D01*
X33612784Y-13896033D01*
X34120784Y-10975034D02*
X34120784Y-10868967D01*
X34014717Y-10868967D01*
X34014717Y-10975034D01*
X34120784Y-10975034D01*
X34247784Y-13642033D02*
X34247784Y-13535966D01*
X34141717Y-13535966D01*
X34141717Y-13642033D01*
X34247784Y-13642033D01*
X34565284Y-11991033D02*
X34565284Y-11884966D01*
X34459217Y-11884966D01*
X34459217Y-11991033D01*
X34565284Y-11991033D01*
X34565284Y-13896033D02*
X34565284Y-13789966D01*
X34459217Y-13789966D01*
X34459217Y-13896033D01*
X34565284Y-13896033D01*
X34565284Y-15801033D02*
X34565284Y-15694966D01*
X34459217Y-15694966D01*
X34459217Y-15801033D01*
X34565284Y-15801033D01*
X34565284Y-17706034D02*
X34565284Y-17599967D01*
X34459217Y-17599967D01*
X34459217Y-17706034D01*
X34565284Y-17706034D01*
X35200284Y-11737033D02*
X35200284Y-11630966D01*
X35094217Y-11630966D01*
X35094217Y-11737033D01*
X35200284Y-11737033D01*
X35200284Y-13642033D02*
X35200284Y-13535966D01*
X35094217Y-13535966D01*
X35094217Y-13642033D01*
X35200284Y-13642033D01*
X35200284Y-15547033D02*
X35200284Y-15440966D01*
X35094217Y-15440966D01*
X35094217Y-15547033D01*
X35200284Y-15547033D01*
X35200284Y-17452034D02*
X35200284Y-17345967D01*
X35094217Y-17345967D01*
X35094217Y-17452034D01*
X35200284Y-17452034D01*
D10*
X34791250Y-9065000D02*
X34891250Y-8965000D01*
X34791250Y-8865000D01*
X34691250Y-8965000D01*
X34791250Y-9065000D01*
D11*
X34766250Y-9065000D02*
X34816250Y-9065000D01*
X34816250Y-9065000D02*
G75*
G03*
X34816250Y-8865000I0J100000D01*
G01*
X34816250Y-8865000D02*
X34766250Y-8865000D01*
X34766250Y-8865000D02*
G75*
G03*
X34766250Y-9065000I0J-100000D01*
G01*
D10*
X34791250Y-10185000D02*
X34891250Y-10085000D01*
X34791250Y-9985000D01*
X34691250Y-10085000D01*
X34791250Y-10185000D01*
D11*
X34766250Y-10185000D02*
X34816250Y-10185000D01*
X34816250Y-10185000D02*
G75*
G03*
X34816250Y-9985000I0J100000D01*
G01*
X34816250Y-9985000D02*
X34766250Y-9985000D01*
X34766250Y-9985000D02*
G75*
G03*
X34766250Y-10185000I0J-100000D01*
G01*
D10*
X260777Y-311484D02*
X260777Y-111484D01*
X260777Y-111484D02*
X308396Y-111484D01*
X308396Y-111484D02*
X336967Y-121008D01*
X336967Y-121008D02*
X356015Y-140055D01*
X356015Y-140055D02*
X365539Y-159103D01*
X365539Y-159103D02*
X375062Y-197198D01*
X375062Y-197198D02*
X375062Y-225769D01*
X375062Y-225769D02*
X365539Y-263865D01*
X365539Y-263865D02*
X356015Y-282912D01*
X356015Y-282912D02*
X336967Y-301960D01*
X336967Y-301960D02*
X308396Y-311484D01*
X308396Y-311484D02*
X260777Y-311484D01*
X460777Y-311484D02*
X460777Y-178150D01*
X460777Y-216246D02*
X470301Y-197198D01*
X470301Y-197198D02*
X479824Y-187674D01*
X479824Y-187674D02*
X498872Y-178150D01*
X498872Y-178150D02*
X517920Y-178150D01*
X584586Y-311484D02*
X584586Y-178150D01*
X584586Y-111484D02*
X575063Y-121008D01*
X575063Y-121008D02*
X584586Y-130531D01*
X584586Y-130531D02*
X594110Y-121008D01*
X594110Y-121008D02*
X584586Y-111484D01*
X584586Y-111484D02*
X584586Y-130531D01*
X708396Y-311484D02*
X689348Y-301960D01*
X689348Y-301960D02*
X679824Y-282912D01*
X679824Y-282912D02*
X679824Y-111484D01*
X813158Y-311484D02*
X794110Y-301960D01*
X794110Y-301960D02*
X784586Y-282912D01*
X784586Y-282912D02*
X784586Y-111484D01*
X1041729Y-311484D02*
X1041729Y-111484D01*
X1041729Y-111484D02*
X1108396Y-254341D01*
X1108396Y-254341D02*
X1175063Y-111484D01*
X1175063Y-111484D02*
X1175063Y-311484D01*
X1356015Y-311484D02*
X1356015Y-206722D01*
X1356015Y-206722D02*
X1346491Y-187674D01*
X1346491Y-187674D02*
X1327444Y-178150D01*
X1327444Y-178150D02*
X1289348Y-178150D01*
X1289348Y-178150D02*
X1270301Y-187674D01*
X1356015Y-301960D02*
X1336967Y-311484D01*
X1336967Y-311484D02*
X1289348Y-311484D01*
X1289348Y-311484D02*
X1270301Y-301960D01*
X1270301Y-301960D02*
X1260777Y-282912D01*
X1260777Y-282912D02*
X1260777Y-263865D01*
X1260777Y-263865D02*
X1270301Y-244817D01*
X1270301Y-244817D02*
X1289348Y-235293D01*
X1289348Y-235293D02*
X1336967Y-235293D01*
X1336967Y-235293D02*
X1356015Y-225769D01*
X1451253Y-178150D02*
X1451253Y-378150D01*
X1451253Y-187674D02*
X1470301Y-178150D01*
X1470301Y-178150D02*
X1508396Y-178150D01*
X1508396Y-178150D02*
X1527443Y-187674D01*
X1527443Y-187674D02*
X1536967Y-197198D01*
X1536967Y-197198D02*
X1546491Y-216246D01*
X1546491Y-216246D02*
X1546491Y-273389D01*
X1546491Y-273389D02*
X1536967Y-292436D01*
X1536967Y-292436D02*
X1527443Y-301960D01*
X1527443Y-301960D02*
X1508396Y-311484D01*
X1508396Y-311484D02*
X1470301Y-311484D01*
X1470301Y-311484D02*
X1451253Y-301960D01*
X1632205Y-292436D02*
X1641729Y-301960D01*
X1641729Y-301960D02*
X1632205Y-311484D01*
X1632205Y-311484D02*
X1622682Y-301960D01*
X1622682Y-301960D02*
X1632205Y-292436D01*
X1632205Y-292436D02*
X1632205Y-311484D01*
X1632205Y-187674D02*
X1641729Y-197198D01*
X1641729Y-197198D02*
X1632205Y-206722D01*
X1632205Y-206722D02*
X1622682Y-197198D01*
X1622682Y-197198D02*
X1632205Y-187674D01*
X1632205Y-187674D02*
X1632205Y-206722D01*
D11*
X-50000Y-615000D02*
X0Y-665000D01*
X0Y-615000D02*
X-50000Y-665000D01*
D10*
X298872Y-531484D02*
X317920Y-531484D01*
X317920Y-531484D02*
X336967Y-541008D01*
X336967Y-541008D02*
X346491Y-550531D01*
X346491Y-550531D02*
X356015Y-569579D01*
X356015Y-569579D02*
X365539Y-607674D01*
X365539Y-607674D02*
X365539Y-655293D01*
X365539Y-655293D02*
X356015Y-693389D01*
X356015Y-693389D02*
X346491Y-712436D01*
X346491Y-712436D02*
X336967Y-721960D01*
X336967Y-721960D02*
X317920Y-731484D01*
X317920Y-731484D02*
X298872Y-731484D01*
X298872Y-731484D02*
X279824Y-721960D01*
X279824Y-721960D02*
X270301Y-712436D01*
X270301Y-712436D02*
X260777Y-693389D01*
X260777Y-693389D02*
X251253Y-655293D01*
X251253Y-655293D02*
X251253Y-607674D01*
X251253Y-607674D02*
X260777Y-569579D01*
X260777Y-569579D02*
X270301Y-550531D01*
X270301Y-550531D02*
X279824Y-541008D01*
X279824Y-541008D02*
X298872Y-531484D01*
X451253Y-712436D02*
X460777Y-721960D01*
X460777Y-721960D02*
X451253Y-731484D01*
X451253Y-731484D02*
X441729Y-721960D01*
X441729Y-721960D02*
X451253Y-712436D01*
X451253Y-712436D02*
X451253Y-731484D01*
X641729Y-531484D02*
X546491Y-531484D01*
X546491Y-531484D02*
X536967Y-626722D01*
X536967Y-626722D02*
X546491Y-617198D01*
X546491Y-617198D02*
X565539Y-607674D01*
X565539Y-607674D02*
X613158Y-607674D01*
X613158Y-607674D02*
X632205Y-617198D01*
X632205Y-617198D02*
X641729Y-626722D01*
X641729Y-626722D02*
X651253Y-645770D01*
X651253Y-645770D02*
X651253Y-693389D01*
X651253Y-693389D02*
X641729Y-712436D01*
X641729Y-712436D02*
X632205Y-721960D01*
X632205Y-721960D02*
X613158Y-731484D01*
X613158Y-731484D02*
X565539Y-731484D01*
X565539Y-731484D02*
X546491Y-721960D01*
X546491Y-721960D02*
X536967Y-712436D01*
X775062Y-531484D02*
X794110Y-531484D01*
X794110Y-531484D02*
X813158Y-541008D01*
X813158Y-541008D02*
X822682Y-550531D01*
X822682Y-550531D02*
X832205Y-569579D01*
X832205Y-569579D02*
X841729Y-607674D01*
X841729Y-607674D02*
X841729Y-655293D01*
X841729Y-655293D02*
X832205Y-693389D01*
X832205Y-693389D02*
X822682Y-712436D01*
X822682Y-712436D02*
X813158Y-721960D01*
X813158Y-721960D02*
X794110Y-731484D01*
X794110Y-731484D02*
X775062Y-731484D01*
X775062Y-731484D02*
X756015Y-721960D01*
X756015Y-721960D02*
X746491Y-712436D01*
X746491Y-712436D02*
X736967Y-693389D01*
X736967Y-693389D02*
X727443Y-655293D01*
X727443Y-655293D02*
X727443Y-607674D01*
X727443Y-607674D02*
X736967Y-569579D01*
X736967Y-569579D02*
X746491Y-550531D01*
X746491Y-550531D02*
X756015Y-541008D01*
X756015Y-541008D02*
X775062Y-531484D01*
X965539Y-531484D02*
X984586Y-531484D01*
X984586Y-531484D02*
X1003634Y-541008D01*
X1003634Y-541008D02*
X1013158Y-550531D01*
X1013158Y-550531D02*
X1022682Y-569579D01*
X1022682Y-569579D02*
X1032205Y-607674D01*
X1032205Y-607674D02*
X1032205Y-655293D01*
X1032205Y-655293D02*
X1022682Y-693389D01*
X1022682Y-693389D02*
X1013158Y-712436D01*
X1013158Y-712436D02*
X1003634Y-721960D01*
X1003634Y-721960D02*
X984586Y-731484D01*
X984586Y-731484D02*
X965539Y-731484D01*
X965539Y-731484D02*
X946491Y-721960D01*
X946491Y-721960D02*
X936967Y-712436D01*
X936967Y-712436D02*
X927443Y-693389D01*
X927443Y-693389D02*
X917920Y-655293D01*
X917920Y-655293D02*
X917920Y-607674D01*
X917920Y-607674D02*
X927443Y-569579D01*
X927443Y-569579D02*
X936967Y-550531D01*
X936967Y-550531D02*
X946491Y-541008D01*
X946491Y-541008D02*
X965539Y-531484D01*
X1117920Y-731484D02*
X1117920Y-598150D01*
X1117920Y-617198D02*
X1127444Y-607674D01*
X1127444Y-607674D02*
X1146491Y-598150D01*
X1146491Y-598150D02*
X1175063Y-598150D01*
X1175063Y-598150D02*
X1194110Y-607674D01*
X1194110Y-607674D02*
X1203634Y-626722D01*
X1203634Y-626722D02*
X1203634Y-731484D01*
X1203634Y-626722D02*
X1213158Y-607674D01*
X1213158Y-607674D02*
X1232205Y-598150D01*
X1232205Y-598150D02*
X1260777Y-598150D01*
X1260777Y-598150D02*
X1279825Y-607674D01*
X1279825Y-607674D02*
X1289348Y-626722D01*
X1289348Y-626722D02*
X1289348Y-731484D01*
X1384586Y-731484D02*
X1384586Y-598150D01*
X1384586Y-617198D02*
X1394110Y-607674D01*
X1394110Y-607674D02*
X1413158Y-598150D01*
X1413158Y-598150D02*
X1441729Y-598150D01*
X1441729Y-598150D02*
X1460777Y-607674D01*
X1460777Y-607674D02*
X1470301Y-626722D01*
X1470301Y-626722D02*
X1470301Y-731484D01*
X1470301Y-626722D02*
X1479824Y-607674D01*
X1479824Y-607674D02*
X1498872Y-598150D01*
X1498872Y-598150D02*
X1527443Y-598150D01*
X1527443Y-598150D02*
X1546491Y-607674D01*
X1546491Y-607674D02*
X1556015Y-626722D01*
X1556015Y-626722D02*
X1556015Y-731484D01*
X1946491Y-521960D02*
X1775063Y-779103D01*
X2203634Y-531484D02*
X2222682Y-531484D01*
X2222682Y-531484D02*
X2241729Y-541008D01*
X2241729Y-541008D02*
X2251253Y-550531D01*
X2251253Y-550531D02*
X2260777Y-569579D01*
X2260777Y-569579D02*
X2270301Y-607674D01*
X2270301Y-607674D02*
X2270301Y-655293D01*
X2270301Y-655293D02*
X2260777Y-693389D01*
X2260777Y-693389D02*
X2251253Y-712436D01*
X2251253Y-712436D02*
X2241729Y-721960D01*
X2241729Y-721960D02*
X2222682Y-731484D01*
X2222682Y-731484D02*
X2203634Y-731484D01*
X2203634Y-731484D02*
X2184587Y-721960D01*
X2184587Y-721960D02*
X2175063Y-712436D01*
X2175063Y-712436D02*
X2165539Y-693389D01*
X2165539Y-693389D02*
X2156015Y-655293D01*
X2156015Y-655293D02*
X2156015Y-607674D01*
X2156015Y-607674D02*
X2165539Y-569579D01*
X2165539Y-569579D02*
X2175063Y-550531D01*
X2175063Y-550531D02*
X2184587Y-541008D01*
X2184587Y-541008D02*
X2203634Y-531484D01*
X2356015Y-712436D02*
X2365539Y-721960D01*
X2365539Y-721960D02*
X2356015Y-731484D01*
X2356015Y-731484D02*
X2346491Y-721960D01*
X2346491Y-721960D02*
X2356015Y-712436D01*
X2356015Y-712436D02*
X2356015Y-731484D01*
X2489348Y-531484D02*
X2508396Y-531484D01*
X2508396Y-531484D02*
X2527444Y-541008D01*
X2527444Y-541008D02*
X2536968Y-550531D01*
X2536968Y-550531D02*
X2546491Y-569579D01*
X2546491Y-569579D02*
X2556015Y-607674D01*
X2556015Y-607674D02*
X2556015Y-655293D01*
X2556015Y-655293D02*
X2546491Y-693389D01*
X2546491Y-693389D02*
X2536968Y-712436D01*
X2536968Y-712436D02*
X2527444Y-721960D01*
X2527444Y-721960D02*
X2508396Y-731484D01*
X2508396Y-731484D02*
X2489348Y-731484D01*
X2489348Y-731484D02*
X2470301Y-721960D01*
X2470301Y-721960D02*
X2460777Y-712436D01*
X2460777Y-712436D02*
X2451253Y-693389D01*
X2451253Y-693389D02*
X2441729Y-655293D01*
X2441729Y-655293D02*
X2441729Y-607674D01*
X2441729Y-607674D02*
X2451253Y-569579D01*
X2451253Y-569579D02*
X2460777Y-550531D01*
X2460777Y-550531D02*
X2470301Y-541008D01*
X2470301Y-541008D02*
X2489348Y-531484D01*
X2746491Y-731484D02*
X2632206Y-731484D01*
X2689348Y-731484D02*
X2689348Y-531484D01*
X2689348Y-531484D02*
X2670301Y-560055D01*
X2670301Y-560055D02*
X2651253Y-579103D01*
X2651253Y-579103D02*
X2632206Y-588627D01*
X2841729Y-731484D02*
X2879825Y-731484D01*
X2879825Y-731484D02*
X2898872Y-721960D01*
X2898872Y-721960D02*
X2908396Y-712436D01*
X2908396Y-712436D02*
X2927444Y-683865D01*
X2927444Y-683865D02*
X2936967Y-645770D01*
X2936967Y-645770D02*
X2936967Y-569579D01*
X2936967Y-569579D02*
X2927444Y-550531D01*
X2927444Y-550531D02*
X2917920Y-541008D01*
X2917920Y-541008D02*
X2898872Y-531484D01*
X2898872Y-531484D02*
X2860777Y-531484D01*
X2860777Y-531484D02*
X2841729Y-541008D01*
X2841729Y-541008D02*
X2832206Y-550531D01*
X2832206Y-550531D02*
X2822682Y-569579D01*
X2822682Y-569579D02*
X2822682Y-617198D01*
X2822682Y-617198D02*
X2832206Y-636246D01*
X2832206Y-636246D02*
X2841729Y-645770D01*
X2841729Y-645770D02*
X2860777Y-655293D01*
X2860777Y-655293D02*
X2898872Y-655293D01*
X2898872Y-655293D02*
X2917920Y-645770D01*
X2917920Y-645770D02*
X2927444Y-636246D01*
X2927444Y-636246D02*
X2936967Y-617198D01*
X3003634Y-531484D02*
X3136967Y-531484D01*
X3136967Y-531484D02*
X3051253Y-731484D01*
X3203634Y-531484D02*
X3203634Y-569579D01*
X3279825Y-531484D02*
X3279825Y-569579D01*
X3575063Y-807674D02*
X3565539Y-798150D01*
X3565539Y-798150D02*
X3546491Y-769579D01*
X3546491Y-769579D02*
X3536968Y-750531D01*
X3536968Y-750531D02*
X3527444Y-721960D01*
X3527444Y-721960D02*
X3517920Y-674341D01*
X3517920Y-674341D02*
X3517920Y-636246D01*
X3517920Y-636246D02*
X3527444Y-588627D01*
X3527444Y-588627D02*
X3536968Y-560055D01*
X3536968Y-560055D02*
X3546491Y-541008D01*
X3546491Y-541008D02*
X3565539Y-512436D01*
X3565539Y-512436D02*
X3575063Y-502912D01*
X3689348Y-531484D02*
X3708396Y-531484D01*
X3708396Y-531484D02*
X3727444Y-541008D01*
X3727444Y-541008D02*
X3736968Y-550531D01*
X3736968Y-550531D02*
X3746491Y-569579D01*
X3746491Y-569579D02*
X3756015Y-607674D01*
X3756015Y-607674D02*
X3756015Y-655293D01*
X3756015Y-655293D02*
X3746491Y-693389D01*
X3746491Y-693389D02*
X3736968Y-712436D01*
X3736968Y-712436D02*
X3727444Y-721960D01*
X3727444Y-721960D02*
X3708396Y-731484D01*
X3708396Y-731484D02*
X3689348Y-731484D01*
X3689348Y-731484D02*
X3670301Y-721960D01*
X3670301Y-721960D02*
X3660777Y-712436D01*
X3660777Y-712436D02*
X3651253Y-693389D01*
X3651253Y-693389D02*
X3641729Y-655293D01*
X3641729Y-655293D02*
X3641729Y-607674D01*
X3641729Y-607674D02*
X3651253Y-569579D01*
X3651253Y-569579D02*
X3660777Y-550531D01*
X3660777Y-550531D02*
X3670301Y-541008D01*
X3670301Y-541008D02*
X3689348Y-531484D01*
X3994110Y-731484D02*
X3994110Y-531484D01*
X4079825Y-731484D02*
X4079825Y-626722D01*
X4079825Y-626722D02*
X4070301Y-607674D01*
X4070301Y-607674D02*
X4051253Y-598150D01*
X4051253Y-598150D02*
X4022682Y-598150D01*
X4022682Y-598150D02*
X4003634Y-607674D01*
X4003634Y-607674D02*
X3994110Y-617198D01*
X4203634Y-731484D02*
X4184587Y-721960D01*
X4184587Y-721960D02*
X4175063Y-712436D01*
X4175063Y-712436D02*
X4165539Y-693389D01*
X4165539Y-693389D02*
X4165539Y-636246D01*
X4165539Y-636246D02*
X4175063Y-617198D01*
X4175063Y-617198D02*
X4184587Y-607674D01*
X4184587Y-607674D02*
X4203634Y-598150D01*
X4203634Y-598150D02*
X4232206Y-598150D01*
X4232206Y-598150D02*
X4251253Y-607674D01*
X4251253Y-607674D02*
X4260777Y-617198D01*
X4260777Y-617198D02*
X4270301Y-636246D01*
X4270301Y-636246D02*
X4270301Y-693389D01*
X4270301Y-693389D02*
X4260777Y-712436D01*
X4260777Y-712436D02*
X4251253Y-721960D01*
X4251253Y-721960D02*
X4232206Y-731484D01*
X4232206Y-731484D02*
X4203634Y-731484D01*
X4384587Y-731484D02*
X4365539Y-721960D01*
X4365539Y-721960D02*
X4356015Y-702912D01*
X4356015Y-702912D02*
X4356015Y-531484D01*
X4536968Y-721960D02*
X4517920Y-731484D01*
X4517920Y-731484D02*
X4479825Y-731484D01*
X4479825Y-731484D02*
X4460777Y-721960D01*
X4460777Y-721960D02*
X4451253Y-702912D01*
X4451253Y-702912D02*
X4451253Y-626722D01*
X4451253Y-626722D02*
X4460777Y-607674D01*
X4460777Y-607674D02*
X4479825Y-598150D01*
X4479825Y-598150D02*
X4517920Y-598150D01*
X4517920Y-598150D02*
X4536968Y-607674D01*
X4536968Y-607674D02*
X4546492Y-626722D01*
X4546492Y-626722D02*
X4546492Y-645770D01*
X4546492Y-645770D02*
X4451253Y-664817D01*
X4622682Y-721960D02*
X4641730Y-731484D01*
X4641730Y-731484D02*
X4679825Y-731484D01*
X4679825Y-731484D02*
X4698873Y-721960D01*
X4698873Y-721960D02*
X4708396Y-702912D01*
X4708396Y-702912D02*
X4708396Y-693389D01*
X4708396Y-693389D02*
X4698873Y-674341D01*
X4698873Y-674341D02*
X4679825Y-664817D01*
X4679825Y-664817D02*
X4651253Y-664817D01*
X4651253Y-664817D02*
X4632206Y-655293D01*
X4632206Y-655293D02*
X4622682Y-636246D01*
X4622682Y-636246D02*
X4622682Y-626722D01*
X4622682Y-626722D02*
X4632206Y-607674D01*
X4632206Y-607674D02*
X4651253Y-598150D01*
X4651253Y-598150D02*
X4679825Y-598150D01*
X4679825Y-598150D02*
X4698873Y-607674D01*
X4946492Y-655293D02*
X5098873Y-655293D01*
X5022682Y-731484D02*
X5022682Y-579103D01*
X5375063Y-617198D02*
X5356015Y-607674D01*
X5356015Y-607674D02*
X5346492Y-598150D01*
X5346492Y-598150D02*
X5336968Y-579103D01*
X5336968Y-579103D02*
X5336968Y-569579D01*
X5336968Y-569579D02*
X5346492Y-550531D01*
X5346492Y-550531D02*
X5356015Y-541008D01*
X5356015Y-541008D02*
X5375063Y-531484D01*
X5375063Y-531484D02*
X5413158Y-531484D01*
X5413158Y-531484D02*
X5432206Y-541008D01*
X5432206Y-541008D02*
X5441730Y-550531D01*
X5441730Y-550531D02*
X5451254Y-569579D01*
X5451254Y-569579D02*
X5451254Y-579103D01*
X5451254Y-579103D02*
X5441730Y-598150D01*
X5441730Y-598150D02*
X5432206Y-607674D01*
X5432206Y-607674D02*
X5413158Y-617198D01*
X5413158Y-617198D02*
X5375063Y-617198D01*
X5375063Y-617198D02*
X5356015Y-626722D01*
X5356015Y-626722D02*
X5346492Y-636246D01*
X5346492Y-636246D02*
X5336968Y-655293D01*
X5336968Y-655293D02*
X5336968Y-693389D01*
X5336968Y-693389D02*
X5346492Y-712436D01*
X5346492Y-712436D02*
X5356015Y-721960D01*
X5356015Y-721960D02*
X5375063Y-731484D01*
X5375063Y-731484D02*
X5413158Y-731484D01*
X5413158Y-731484D02*
X5432206Y-721960D01*
X5432206Y-721960D02*
X5441730Y-712436D01*
X5441730Y-712436D02*
X5451254Y-693389D01*
X5451254Y-693389D02*
X5451254Y-655293D01*
X5451254Y-655293D02*
X5441730Y-636246D01*
X5441730Y-636246D02*
X5432206Y-626722D01*
X5432206Y-626722D02*
X5413158Y-617198D01*
X5641730Y-731484D02*
X5527444Y-731484D01*
X5584587Y-731484D02*
X5584587Y-531484D01*
X5584587Y-531484D02*
X5565539Y-560055D01*
X5565539Y-560055D02*
X5546492Y-579103D01*
X5546492Y-579103D02*
X5527444Y-588627D01*
X5870301Y-721960D02*
X5889349Y-731484D01*
X5889349Y-731484D02*
X5927444Y-731484D01*
X5927444Y-731484D02*
X5946492Y-721960D01*
X5946492Y-721960D02*
X5956015Y-702912D01*
X5956015Y-702912D02*
X5956015Y-693389D01*
X5956015Y-693389D02*
X5946492Y-674341D01*
X5946492Y-674341D02*
X5927444Y-664817D01*
X5927444Y-664817D02*
X5898873Y-664817D01*
X5898873Y-664817D02*
X5879825Y-655293D01*
X5879825Y-655293D02*
X5870301Y-636246D01*
X5870301Y-636246D02*
X5870301Y-626722D01*
X5870301Y-626722D02*
X5879825Y-607674D01*
X5879825Y-607674D02*
X5898873Y-598150D01*
X5898873Y-598150D02*
X5927444Y-598150D01*
X5927444Y-598150D02*
X5946492Y-607674D01*
X6070301Y-731484D02*
X6051254Y-721960D01*
X6051254Y-721960D02*
X6041730Y-702912D01*
X6041730Y-702912D02*
X6041730Y-531484D01*
X6175063Y-731484D02*
X6156015Y-721960D01*
X6156015Y-721960D02*
X6146492Y-712436D01*
X6146492Y-712436D02*
X6136968Y-693389D01*
X6136968Y-693389D02*
X6136968Y-636246D01*
X6136968Y-636246D02*
X6146492Y-617198D01*
X6146492Y-617198D02*
X6156015Y-607674D01*
X6156015Y-607674D02*
X6175063Y-598150D01*
X6175063Y-598150D02*
X6203635Y-598150D01*
X6203635Y-598150D02*
X6222682Y-607674D01*
X6222682Y-607674D02*
X6232206Y-617198D01*
X6232206Y-617198D02*
X6241730Y-636246D01*
X6241730Y-636246D02*
X6241730Y-693389D01*
X6241730Y-693389D02*
X6232206Y-712436D01*
X6232206Y-712436D02*
X6222682Y-721960D01*
X6222682Y-721960D02*
X6203635Y-731484D01*
X6203635Y-731484D02*
X6175063Y-731484D01*
X6298873Y-598150D02*
X6375063Y-598150D01*
X6327444Y-531484D02*
X6327444Y-702912D01*
X6327444Y-702912D02*
X6336968Y-721960D01*
X6336968Y-721960D02*
X6356015Y-731484D01*
X6356015Y-731484D02*
X6375063Y-731484D01*
X6432206Y-721960D02*
X6451254Y-731484D01*
X6451254Y-731484D02*
X6489349Y-731484D01*
X6489349Y-731484D02*
X6508396Y-721960D01*
X6508396Y-721960D02*
X6517920Y-702912D01*
X6517920Y-702912D02*
X6517920Y-693389D01*
X6517920Y-693389D02*
X6508396Y-674341D01*
X6508396Y-674341D02*
X6489349Y-664817D01*
X6489349Y-664817D02*
X6460777Y-664817D01*
X6460777Y-664817D02*
X6441730Y-655293D01*
X6441730Y-655293D02*
X6432206Y-636246D01*
X6432206Y-636246D02*
X6432206Y-626722D01*
X6432206Y-626722D02*
X6441730Y-607674D01*
X6441730Y-607674D02*
X6460777Y-598150D01*
X6460777Y-598150D02*
X6489349Y-598150D01*
X6489349Y-598150D02*
X6508396Y-607674D01*
X6584587Y-807674D02*
X6594111Y-798150D01*
X6594111Y-798150D02*
X6613158Y-769579D01*
X6613158Y-769579D02*
X6622682Y-750531D01*
X6622682Y-750531D02*
X6632206Y-721960D01*
X6632206Y-721960D02*
X6641730Y-674341D01*
X6641730Y-674341D02*
X6641730Y-636246D01*
X6641730Y-636246D02*
X6632206Y-588627D01*
X6632206Y-588627D02*
X6622682Y-560055D01*
X6622682Y-560055D02*
X6613158Y-541008D01*
X6613158Y-541008D02*
X6594111Y-512436D01*
X6594111Y-512436D02*
X6584587Y-502912D01*
D11*
X0Y-904000D02*
G75*
G03*
X-100000Y-904000I-50000J0D01*
G01*
X-100000Y-904000D02*
G75*
G03*
X0Y-904000I50000J0D01*
G01*
D10*
X365539Y-995484D02*
X251253Y-995484D01*
X308396Y-995484D02*
X308396Y-795484D01*
X308396Y-795484D02*
X289348Y-824055D01*
X289348Y-824055D02*
X270301Y-843103D01*
X270301Y-843103D02*
X251253Y-852627D01*
X451253Y-976436D02*
X460777Y-985960D01*
X460777Y-985960D02*
X451253Y-995484D01*
X451253Y-995484D02*
X441729Y-985960D01*
X441729Y-985960D02*
X451253Y-976436D01*
X451253Y-976436D02*
X451253Y-995484D01*
X584586Y-795484D02*
X603634Y-795484D01*
X603634Y-795484D02*
X622682Y-805008D01*
X622682Y-805008D02*
X632205Y-814531D01*
X632205Y-814531D02*
X641729Y-833579D01*
X641729Y-833579D02*
X651253Y-871674D01*
X651253Y-871674D02*
X651253Y-919293D01*
X651253Y-919293D02*
X641729Y-957388D01*
X641729Y-957388D02*
X632205Y-976436D01*
X632205Y-976436D02*
X622682Y-985960D01*
X622682Y-985960D02*
X603634Y-995484D01*
X603634Y-995484D02*
X584586Y-995484D01*
X584586Y-995484D02*
X565539Y-985960D01*
X565539Y-985960D02*
X556015Y-976436D01*
X556015Y-976436D02*
X546491Y-957388D01*
X546491Y-957388D02*
X536967Y-919293D01*
X536967Y-919293D02*
X536967Y-871674D01*
X536967Y-871674D02*
X546491Y-833579D01*
X546491Y-833579D02*
X556015Y-814531D01*
X556015Y-814531D02*
X565539Y-805008D01*
X565539Y-805008D02*
X584586Y-795484D01*
X775062Y-795484D02*
X794110Y-795484D01*
X794110Y-795484D02*
X813158Y-805008D01*
X813158Y-805008D02*
X822682Y-814531D01*
X822682Y-814531D02*
X832205Y-833579D01*
X832205Y-833579D02*
X841729Y-871674D01*
X841729Y-871674D02*
X841729Y-919293D01*
X841729Y-919293D02*
X832205Y-957388D01*
X832205Y-957388D02*
X822682Y-976436D01*
X822682Y-976436D02*
X813158Y-985960D01*
X813158Y-985960D02*
X794110Y-995484D01*
X794110Y-995484D02*
X775062Y-995484D01*
X775062Y-995484D02*
X756015Y-985960D01*
X756015Y-985960D02*
X746491Y-976436D01*
X746491Y-976436D02*
X736967Y-957388D01*
X736967Y-957388D02*
X727443Y-919293D01*
X727443Y-919293D02*
X727443Y-871674D01*
X727443Y-871674D02*
X736967Y-833579D01*
X736967Y-833579D02*
X746491Y-814531D01*
X746491Y-814531D02*
X756015Y-805008D01*
X756015Y-805008D02*
X775062Y-795484D01*
X965539Y-795484D02*
X984586Y-795484D01*
X984586Y-795484D02*
X1003634Y-805008D01*
X1003634Y-805008D02*
X1013158Y-814531D01*
X1013158Y-814531D02*
X1022682Y-833579D01*
X1022682Y-833579D02*
X1032205Y-871674D01*
X1032205Y-871674D02*
X1032205Y-919293D01*
X1032205Y-919293D02*
X1022682Y-957388D01*
X1022682Y-957388D02*
X1013158Y-976436D01*
X1013158Y-976436D02*
X1003634Y-985960D01*
X1003634Y-985960D02*
X984586Y-995484D01*
X984586Y-995484D02*
X965539Y-995484D01*
X965539Y-995484D02*
X946491Y-985960D01*
X946491Y-985960D02*
X936967Y-976436D01*
X936967Y-976436D02*
X927443Y-957388D01*
X927443Y-957388D02*
X917920Y-919293D01*
X917920Y-919293D02*
X917920Y-871674D01*
X917920Y-871674D02*
X927443Y-833579D01*
X927443Y-833579D02*
X936967Y-814531D01*
X936967Y-814531D02*
X946491Y-805008D01*
X946491Y-805008D02*
X965539Y-795484D01*
X1117920Y-995484D02*
X1117920Y-862150D01*
X1117920Y-881198D02*
X1127444Y-871674D01*
X1127444Y-871674D02*
X1146491Y-862150D01*
X1146491Y-862150D02*
X1175063Y-862150D01*
X1175063Y-862150D02*
X1194110Y-871674D01*
X1194110Y-871674D02*
X1203634Y-890722D01*
X1203634Y-890722D02*
X1203634Y-995484D01*
X1203634Y-890722D02*
X1213158Y-871674D01*
X1213158Y-871674D02*
X1232205Y-862150D01*
X1232205Y-862150D02*
X1260777Y-862150D01*
X1260777Y-862150D02*
X1279825Y-871674D01*
X1279825Y-871674D02*
X1289348Y-890722D01*
X1289348Y-890722D02*
X1289348Y-995484D01*
X1384586Y-995484D02*
X1384586Y-862150D01*
X1384586Y-881198D02*
X1394110Y-871674D01*
X1394110Y-871674D02*
X1413158Y-862150D01*
X1413158Y-862150D02*
X1441729Y-862150D01*
X1441729Y-862150D02*
X1460777Y-871674D01*
X1460777Y-871674D02*
X1470301Y-890722D01*
X1470301Y-890722D02*
X1470301Y-995484D01*
X1470301Y-890722D02*
X1479824Y-871674D01*
X1479824Y-871674D02*
X1498872Y-862150D01*
X1498872Y-862150D02*
X1527443Y-862150D01*
X1527443Y-862150D02*
X1546491Y-871674D01*
X1546491Y-871674D02*
X1556015Y-890722D01*
X1556015Y-890722D02*
X1556015Y-995484D01*
X1946491Y-785960D02*
X1775063Y-1043103D01*
X2203634Y-795484D02*
X2222682Y-795484D01*
X2222682Y-795484D02*
X2241729Y-805008D01*
X2241729Y-805008D02*
X2251253Y-814531D01*
X2251253Y-814531D02*
X2260777Y-833579D01*
X2260777Y-833579D02*
X2270301Y-871674D01*
X2270301Y-871674D02*
X2270301Y-919293D01*
X2270301Y-919293D02*
X2260777Y-957388D01*
X2260777Y-957388D02*
X2251253Y-976436D01*
X2251253Y-976436D02*
X2241729Y-985960D01*
X2241729Y-985960D02*
X2222682Y-995484D01*
X2222682Y-995484D02*
X2203634Y-995484D01*
X2203634Y-995484D02*
X2184587Y-985960D01*
X2184587Y-985960D02*
X2175063Y-976436D01*
X2175063Y-976436D02*
X2165539Y-957388D01*
X2165539Y-957388D02*
X2156015Y-919293D01*
X2156015Y-919293D02*
X2156015Y-871674D01*
X2156015Y-871674D02*
X2165539Y-833579D01*
X2165539Y-833579D02*
X2175063Y-814531D01*
X2175063Y-814531D02*
X2184587Y-805008D01*
X2184587Y-805008D02*
X2203634Y-795484D01*
X2356015Y-976436D02*
X2365539Y-985960D01*
X2365539Y-985960D02*
X2356015Y-995484D01*
X2356015Y-995484D02*
X2346491Y-985960D01*
X2346491Y-985960D02*
X2356015Y-976436D01*
X2356015Y-976436D02*
X2356015Y-995484D01*
X2489348Y-795484D02*
X2508396Y-795484D01*
X2508396Y-795484D02*
X2527444Y-805008D01*
X2527444Y-805008D02*
X2536968Y-814531D01*
X2536968Y-814531D02*
X2546491Y-833579D01*
X2546491Y-833579D02*
X2556015Y-871674D01*
X2556015Y-871674D02*
X2556015Y-919293D01*
X2556015Y-919293D02*
X2546491Y-957388D01*
X2546491Y-957388D02*
X2536968Y-976436D01*
X2536968Y-976436D02*
X2527444Y-985960D01*
X2527444Y-985960D02*
X2508396Y-995484D01*
X2508396Y-995484D02*
X2489348Y-995484D01*
X2489348Y-995484D02*
X2470301Y-985960D01*
X2470301Y-985960D02*
X2460777Y-976436D01*
X2460777Y-976436D02*
X2451253Y-957388D01*
X2451253Y-957388D02*
X2441729Y-919293D01*
X2441729Y-919293D02*
X2441729Y-871674D01*
X2441729Y-871674D02*
X2451253Y-833579D01*
X2451253Y-833579D02*
X2460777Y-814531D01*
X2460777Y-814531D02*
X2470301Y-805008D01*
X2470301Y-805008D02*
X2489348Y-795484D01*
X2622682Y-795484D02*
X2746491Y-795484D01*
X2746491Y-795484D02*
X2679825Y-871674D01*
X2679825Y-871674D02*
X2708396Y-871674D01*
X2708396Y-871674D02*
X2727444Y-881198D01*
X2727444Y-881198D02*
X2736968Y-890722D01*
X2736968Y-890722D02*
X2746491Y-909769D01*
X2746491Y-909769D02*
X2746491Y-957388D01*
X2746491Y-957388D02*
X2736968Y-976436D01*
X2736968Y-976436D02*
X2727444Y-985960D01*
X2727444Y-985960D02*
X2708396Y-995484D01*
X2708396Y-995484D02*
X2651253Y-995484D01*
X2651253Y-995484D02*
X2632206Y-985960D01*
X2632206Y-985960D02*
X2622682Y-976436D01*
X2841729Y-995484D02*
X2879825Y-995484D01*
X2879825Y-995484D02*
X2898872Y-985960D01*
X2898872Y-985960D02*
X2908396Y-976436D01*
X2908396Y-976436D02*
X2927444Y-947865D01*
X2927444Y-947865D02*
X2936967Y-909769D01*
X2936967Y-909769D02*
X2936967Y-833579D01*
X2936967Y-833579D02*
X2927444Y-814531D01*
X2927444Y-814531D02*
X2917920Y-805008D01*
X2917920Y-805008D02*
X2898872Y-795484D01*
X2898872Y-795484D02*
X2860777Y-795484D01*
X2860777Y-795484D02*
X2841729Y-805008D01*
X2841729Y-805008D02*
X2832206Y-814531D01*
X2832206Y-814531D02*
X2822682Y-833579D01*
X2822682Y-833579D02*
X2822682Y-881198D01*
X2822682Y-881198D02*
X2832206Y-900246D01*
X2832206Y-900246D02*
X2841729Y-909769D01*
X2841729Y-909769D02*
X2860777Y-919293D01*
X2860777Y-919293D02*
X2898872Y-919293D01*
X2898872Y-919293D02*
X2917920Y-909769D01*
X2917920Y-909769D02*
X2927444Y-900246D01*
X2927444Y-900246D02*
X2936967Y-881198D01*
X3108396Y-862150D02*
X3108396Y-995484D01*
X3060777Y-785960D02*
X3013158Y-928817D01*
X3013158Y-928817D02*
X3136967Y-928817D01*
X3203634Y-795484D02*
X3203634Y-833579D01*
X3279825Y-795484D02*
X3279825Y-833579D01*
X3575063Y-1071674D02*
X3565539Y-1062150D01*
X3565539Y-1062150D02*
X3546491Y-1033579D01*
X3546491Y-1033579D02*
X3536968Y-1014531D01*
X3536968Y-1014531D02*
X3527444Y-985960D01*
X3527444Y-985960D02*
X3517920Y-938341D01*
X3517920Y-938341D02*
X3517920Y-900246D01*
X3517920Y-900246D02*
X3527444Y-852627D01*
X3527444Y-852627D02*
X3536968Y-824055D01*
X3536968Y-824055D02*
X3546491Y-805008D01*
X3546491Y-805008D02*
X3565539Y-776436D01*
X3565539Y-776436D02*
X3575063Y-766912D01*
X3632206Y-795484D02*
X3756015Y-795484D01*
X3756015Y-795484D02*
X3689348Y-871674D01*
X3689348Y-871674D02*
X3717920Y-871674D01*
X3717920Y-871674D02*
X3736968Y-881198D01*
X3736968Y-881198D02*
X3746491Y-890722D01*
X3746491Y-890722D02*
X3756015Y-909769D01*
X3756015Y-909769D02*
X3756015Y-957388D01*
X3756015Y-957388D02*
X3746491Y-976436D01*
X3746491Y-976436D02*
X3736968Y-985960D01*
X3736968Y-985960D02*
X3717920Y-995484D01*
X3717920Y-995484D02*
X3660777Y-995484D01*
X3660777Y-995484D02*
X3641729Y-985960D01*
X3641729Y-985960D02*
X3632206Y-976436D01*
X3936968Y-795484D02*
X3841729Y-795484D01*
X3841729Y-795484D02*
X3832206Y-890722D01*
X3832206Y-890722D02*
X3841729Y-881198D01*
X3841729Y-881198D02*
X3860777Y-871674D01*
X3860777Y-871674D02*
X3908396Y-871674D01*
X3908396Y-871674D02*
X3927444Y-881198D01*
X3927444Y-881198D02*
X3936968Y-890722D01*
X3936968Y-890722D02*
X3946491Y-909769D01*
X3946491Y-909769D02*
X3946491Y-957388D01*
X3946491Y-957388D02*
X3936968Y-976436D01*
X3936968Y-976436D02*
X3927444Y-985960D01*
X3927444Y-985960D02*
X3908396Y-995484D01*
X3908396Y-995484D02*
X3860777Y-995484D01*
X3860777Y-995484D02*
X3841729Y-985960D01*
X3841729Y-985960D02*
X3832206Y-976436D01*
X4184587Y-995484D02*
X4184587Y-795484D01*
X4270301Y-995484D02*
X4270301Y-890722D01*
X4270301Y-890722D02*
X4260777Y-871674D01*
X4260777Y-871674D02*
X4241730Y-862150D01*
X4241730Y-862150D02*
X4213158Y-862150D01*
X4213158Y-862150D02*
X4194110Y-871674D01*
X4194110Y-871674D02*
X4184587Y-881198D01*
X4394111Y-995484D02*
X4375063Y-985960D01*
X4375063Y-985960D02*
X4365539Y-976436D01*
X4365539Y-976436D02*
X4356015Y-957388D01*
X4356015Y-957388D02*
X4356015Y-900246D01*
X4356015Y-900246D02*
X4365539Y-881198D01*
X4365539Y-881198D02*
X4375063Y-871674D01*
X4375063Y-871674D02*
X4394111Y-862150D01*
X4394111Y-862150D02*
X4422682Y-862150D01*
X4422682Y-862150D02*
X4441730Y-871674D01*
X4441730Y-871674D02*
X4451253Y-881198D01*
X4451253Y-881198D02*
X4460777Y-900246D01*
X4460777Y-900246D02*
X4460777Y-957388D01*
X4460777Y-957388D02*
X4451253Y-976436D01*
X4451253Y-976436D02*
X4441730Y-985960D01*
X4441730Y-985960D02*
X4422682Y-995484D01*
X4422682Y-995484D02*
X4394111Y-995484D01*
X4575063Y-995484D02*
X4556015Y-985960D01*
X4556015Y-985960D02*
X4546492Y-966912D01*
X4546492Y-966912D02*
X4546492Y-795484D01*
X4727444Y-985960D02*
X4708396Y-995484D01*
X4708396Y-995484D02*
X4670301Y-995484D01*
X4670301Y-995484D02*
X4651253Y-985960D01*
X4651253Y-985960D02*
X4641730Y-966912D01*
X4641730Y-966912D02*
X4641730Y-890722D01*
X4641730Y-890722D02*
X4651253Y-871674D01*
X4651253Y-871674D02*
X4670301Y-862150D01*
X4670301Y-862150D02*
X4708396Y-862150D01*
X4708396Y-862150D02*
X4727444Y-871674D01*
X4727444Y-871674D02*
X4736968Y-890722D01*
X4736968Y-890722D02*
X4736968Y-909769D01*
X4736968Y-909769D02*
X4641730Y-928817D01*
X4813158Y-985960D02*
X4832206Y-995484D01*
X4832206Y-995484D02*
X4870301Y-995484D01*
X4870301Y-995484D02*
X4889349Y-985960D01*
X4889349Y-985960D02*
X4898873Y-966912D01*
X4898873Y-966912D02*
X4898873Y-957388D01*
X4898873Y-957388D02*
X4889349Y-938341D01*
X4889349Y-938341D02*
X4870301Y-928817D01*
X4870301Y-928817D02*
X4841730Y-928817D01*
X4841730Y-928817D02*
X4822682Y-919293D01*
X4822682Y-919293D02*
X4813158Y-900246D01*
X4813158Y-900246D02*
X4813158Y-890722D01*
X4813158Y-890722D02*
X4822682Y-871674D01*
X4822682Y-871674D02*
X4841730Y-862150D01*
X4841730Y-862150D02*
X4870301Y-862150D01*
X4870301Y-862150D02*
X4889349Y-871674D01*
X4965539Y-1071674D02*
X4975063Y-1062150D01*
X4975063Y-1062150D02*
X4994111Y-1033579D01*
X4994111Y-1033579D02*
X5003634Y-1014531D01*
X5003634Y-1014531D02*
X5013158Y-985960D01*
X5013158Y-985960D02*
X5022682Y-938341D01*
X5022682Y-938341D02*
X5022682Y-900246D01*
X5022682Y-900246D02*
X5013158Y-852627D01*
X5013158Y-852627D02*
X5003634Y-824055D01*
X5003634Y-824055D02*
X4994111Y-805008D01*
X4994111Y-805008D02*
X4975063Y-776436D01*
X4975063Y-776436D02*
X4965539Y-766912D01*
D12*
X-60000Y-1108000D02*
X-60000Y-1228000D01*
X-120000Y-1168000D02*
X0Y-1168000D01*
D10*
X365539Y-1259484D02*
X251253Y-1259484D01*
X308396Y-1259484D02*
X308396Y-1059484D01*
X308396Y-1059484D02*
X289348Y-1088055D01*
X289348Y-1088055D02*
X270301Y-1107103D01*
X270301Y-1107103D02*
X251253Y-1116627D01*
X451253Y-1240436D02*
X460777Y-1249960D01*
X460777Y-1249960D02*
X451253Y-1259484D01*
X451253Y-1259484D02*
X441729Y-1249960D01*
X441729Y-1249960D02*
X451253Y-1240436D01*
X451253Y-1240436D02*
X451253Y-1259484D01*
X536967Y-1078531D02*
X546491Y-1069008D01*
X546491Y-1069008D02*
X565539Y-1059484D01*
X565539Y-1059484D02*
X613158Y-1059484D01*
X613158Y-1059484D02*
X632205Y-1069008D01*
X632205Y-1069008D02*
X641729Y-1078531D01*
X641729Y-1078531D02*
X651253Y-1097579D01*
X651253Y-1097579D02*
X651253Y-1116627D01*
X651253Y-1116627D02*
X641729Y-1145198D01*
X641729Y-1145198D02*
X527444Y-1259484D01*
X527444Y-1259484D02*
X651253Y-1259484D01*
X775062Y-1059484D02*
X794110Y-1059484D01*
X794110Y-1059484D02*
X813158Y-1069008D01*
X813158Y-1069008D02*
X822682Y-1078531D01*
X822682Y-1078531D02*
X832205Y-1097579D01*
X832205Y-1097579D02*
X841729Y-1135674D01*
X841729Y-1135674D02*
X841729Y-1183293D01*
X841729Y-1183293D02*
X832205Y-1221389D01*
X832205Y-1221389D02*
X822682Y-1240436D01*
X822682Y-1240436D02*
X813158Y-1249960D01*
X813158Y-1249960D02*
X794110Y-1259484D01*
X794110Y-1259484D02*
X775062Y-1259484D01*
X775062Y-1259484D02*
X756015Y-1249960D01*
X756015Y-1249960D02*
X746491Y-1240436D01*
X746491Y-1240436D02*
X736967Y-1221389D01*
X736967Y-1221389D02*
X727443Y-1183293D01*
X727443Y-1183293D02*
X727443Y-1135674D01*
X727443Y-1135674D02*
X736967Y-1097579D01*
X736967Y-1097579D02*
X746491Y-1078531D01*
X746491Y-1078531D02*
X756015Y-1069008D01*
X756015Y-1069008D02*
X775062Y-1059484D01*
X965539Y-1059484D02*
X984586Y-1059484D01*
X984586Y-1059484D02*
X1003634Y-1069008D01*
X1003634Y-1069008D02*
X1013158Y-1078531D01*
X1013158Y-1078531D02*
X1022682Y-1097579D01*
X1022682Y-1097579D02*
X1032205Y-1135674D01*
X1032205Y-1135674D02*
X1032205Y-1183293D01*
X1032205Y-1183293D02*
X1022682Y-1221389D01*
X1022682Y-1221389D02*
X1013158Y-1240436D01*
X1013158Y-1240436D02*
X1003634Y-1249960D01*
X1003634Y-1249960D02*
X984586Y-1259484D01*
X984586Y-1259484D02*
X965539Y-1259484D01*
X965539Y-1259484D02*
X946491Y-1249960D01*
X946491Y-1249960D02*
X936967Y-1240436D01*
X936967Y-1240436D02*
X927443Y-1221389D01*
X927443Y-1221389D02*
X917920Y-1183293D01*
X917920Y-1183293D02*
X917920Y-1135674D01*
X917920Y-1135674D02*
X927443Y-1097579D01*
X927443Y-1097579D02*
X936967Y-1078531D01*
X936967Y-1078531D02*
X946491Y-1069008D01*
X946491Y-1069008D02*
X965539Y-1059484D01*
X1117920Y-1259484D02*
X1117920Y-1126150D01*
X1117920Y-1145198D02*
X1127444Y-1135674D01*
X1127444Y-1135674D02*
X1146491Y-1126150D01*
X1146491Y-1126150D02*
X1175063Y-1126150D01*
X1175063Y-1126150D02*
X1194110Y-1135674D01*
X1194110Y-1135674D02*
X1203634Y-1154722D01*
X1203634Y-1154722D02*
X1203634Y-1259484D01*
X1203634Y-1154722D02*
X1213158Y-1135674D01*
X1213158Y-1135674D02*
X1232205Y-1126150D01*
X1232205Y-1126150D02*
X1260777Y-1126150D01*
X1260777Y-1126150D02*
X1279825Y-1135674D01*
X1279825Y-1135674D02*
X1289348Y-1154722D01*
X1289348Y-1154722D02*
X1289348Y-1259484D01*
X1384586Y-1259484D02*
X1384586Y-1126150D01*
X1384586Y-1145198D02*
X1394110Y-1135674D01*
X1394110Y-1135674D02*
X1413158Y-1126150D01*
X1413158Y-1126150D02*
X1441729Y-1126150D01*
X1441729Y-1126150D02*
X1460777Y-1135674D01*
X1460777Y-1135674D02*
X1470301Y-1154722D01*
X1470301Y-1154722D02*
X1470301Y-1259484D01*
X1470301Y-1154722D02*
X1479824Y-1135674D01*
X1479824Y-1135674D02*
X1498872Y-1126150D01*
X1498872Y-1126150D02*
X1527443Y-1126150D01*
X1527443Y-1126150D02*
X1546491Y-1135674D01*
X1546491Y-1135674D02*
X1556015Y-1154722D01*
X1556015Y-1154722D02*
X1556015Y-1259484D01*
X1946491Y-1049960D02*
X1775063Y-1307103D01*
X2203634Y-1059484D02*
X2222682Y-1059484D01*
X2222682Y-1059484D02*
X2241729Y-1069008D01*
X2241729Y-1069008D02*
X2251253Y-1078531D01*
X2251253Y-1078531D02*
X2260777Y-1097579D01*
X2260777Y-1097579D02*
X2270301Y-1135674D01*
X2270301Y-1135674D02*
X2270301Y-1183293D01*
X2270301Y-1183293D02*
X2260777Y-1221389D01*
X2260777Y-1221389D02*
X2251253Y-1240436D01*
X2251253Y-1240436D02*
X2241729Y-1249960D01*
X2241729Y-1249960D02*
X2222682Y-1259484D01*
X2222682Y-1259484D02*
X2203634Y-1259484D01*
X2203634Y-1259484D02*
X2184587Y-1249960D01*
X2184587Y-1249960D02*
X2175063Y-1240436D01*
X2175063Y-1240436D02*
X2165539Y-1221389D01*
X2165539Y-1221389D02*
X2156015Y-1183293D01*
X2156015Y-1183293D02*
X2156015Y-1135674D01*
X2156015Y-1135674D02*
X2165539Y-1097579D01*
X2165539Y-1097579D02*
X2175063Y-1078531D01*
X2175063Y-1078531D02*
X2184587Y-1069008D01*
X2184587Y-1069008D02*
X2203634Y-1059484D01*
X2356015Y-1240436D02*
X2365539Y-1249960D01*
X2365539Y-1249960D02*
X2356015Y-1259484D01*
X2356015Y-1259484D02*
X2346491Y-1249960D01*
X2346491Y-1249960D02*
X2356015Y-1240436D01*
X2356015Y-1240436D02*
X2356015Y-1259484D01*
X2489348Y-1059484D02*
X2508396Y-1059484D01*
X2508396Y-1059484D02*
X2527444Y-1069008D01*
X2527444Y-1069008D02*
X2536968Y-1078531D01*
X2536968Y-1078531D02*
X2546491Y-1097579D01*
X2546491Y-1097579D02*
X2556015Y-1135674D01*
X2556015Y-1135674D02*
X2556015Y-1183293D01*
X2556015Y-1183293D02*
X2546491Y-1221389D01*
X2546491Y-1221389D02*
X2536968Y-1240436D01*
X2536968Y-1240436D02*
X2527444Y-1249960D01*
X2527444Y-1249960D02*
X2508396Y-1259484D01*
X2508396Y-1259484D02*
X2489348Y-1259484D01*
X2489348Y-1259484D02*
X2470301Y-1249960D01*
X2470301Y-1249960D02*
X2460777Y-1240436D01*
X2460777Y-1240436D02*
X2451253Y-1221389D01*
X2451253Y-1221389D02*
X2441729Y-1183293D01*
X2441729Y-1183293D02*
X2441729Y-1135674D01*
X2441729Y-1135674D02*
X2451253Y-1097579D01*
X2451253Y-1097579D02*
X2460777Y-1078531D01*
X2460777Y-1078531D02*
X2470301Y-1069008D01*
X2470301Y-1069008D02*
X2489348Y-1059484D01*
X2727444Y-1126150D02*
X2727444Y-1259484D01*
X2679825Y-1049960D02*
X2632206Y-1192817D01*
X2632206Y-1192817D02*
X2756015Y-1192817D01*
X2813158Y-1059484D02*
X2946491Y-1059484D01*
X2946491Y-1059484D02*
X2860777Y-1259484D01*
X3013158Y-1078531D02*
X3022682Y-1069008D01*
X3022682Y-1069008D02*
X3041729Y-1059484D01*
X3041729Y-1059484D02*
X3089348Y-1059484D01*
X3089348Y-1059484D02*
X3108396Y-1069008D01*
X3108396Y-1069008D02*
X3117920Y-1078531D01*
X3117920Y-1078531D02*
X3127444Y-1097579D01*
X3127444Y-1097579D02*
X3127444Y-1116627D01*
X3127444Y-1116627D02*
X3117920Y-1145198D01*
X3117920Y-1145198D02*
X3003634Y-1259484D01*
X3003634Y-1259484D02*
X3127444Y-1259484D01*
X3203634Y-1059484D02*
X3203634Y-1097579D01*
X3279825Y-1059484D02*
X3279825Y-1097579D01*
X3575063Y-1335674D02*
X3565539Y-1326150D01*
X3565539Y-1326150D02*
X3546491Y-1297579D01*
X3546491Y-1297579D02*
X3536968Y-1278531D01*
X3536968Y-1278531D02*
X3527444Y-1249960D01*
X3527444Y-1249960D02*
X3517920Y-1202341D01*
X3517920Y-1202341D02*
X3517920Y-1164246D01*
X3517920Y-1164246D02*
X3527444Y-1116627D01*
X3527444Y-1116627D02*
X3536968Y-1088055D01*
X3536968Y-1088055D02*
X3546491Y-1069008D01*
X3546491Y-1069008D02*
X3565539Y-1040436D01*
X3565539Y-1040436D02*
X3575063Y-1030912D01*
X3756015Y-1259484D02*
X3641729Y-1259484D01*
X3698872Y-1259484D02*
X3698872Y-1059484D01*
X3698872Y-1059484D02*
X3679825Y-1088055D01*
X3679825Y-1088055D02*
X3660777Y-1107103D01*
X3660777Y-1107103D02*
X3641729Y-1116627D01*
X3927444Y-1059484D02*
X3889348Y-1059484D01*
X3889348Y-1059484D02*
X3870301Y-1069008D01*
X3870301Y-1069008D02*
X3860777Y-1078531D01*
X3860777Y-1078531D02*
X3841729Y-1107103D01*
X3841729Y-1107103D02*
X3832206Y-1145198D01*
X3832206Y-1145198D02*
X3832206Y-1221389D01*
X3832206Y-1221389D02*
X3841729Y-1240436D01*
X3841729Y-1240436D02*
X3851253Y-1249960D01*
X3851253Y-1249960D02*
X3870301Y-1259484D01*
X3870301Y-1259484D02*
X3908396Y-1259484D01*
X3908396Y-1259484D02*
X3927444Y-1249960D01*
X3927444Y-1249960D02*
X3936968Y-1240436D01*
X3936968Y-1240436D02*
X3946491Y-1221389D01*
X3946491Y-1221389D02*
X3946491Y-1173770D01*
X3946491Y-1173770D02*
X3936968Y-1154722D01*
X3936968Y-1154722D02*
X3927444Y-1145198D01*
X3927444Y-1145198D02*
X3908396Y-1135674D01*
X3908396Y-1135674D02*
X3870301Y-1135674D01*
X3870301Y-1135674D02*
X3851253Y-1145198D01*
X3851253Y-1145198D02*
X3841729Y-1154722D01*
X3841729Y-1154722D02*
X3832206Y-1173770D01*
X4022682Y-1078531D02*
X4032206Y-1069008D01*
X4032206Y-1069008D02*
X4051253Y-1059484D01*
X4051253Y-1059484D02*
X4098872Y-1059484D01*
X4098872Y-1059484D02*
X4117920Y-1069008D01*
X4117920Y-1069008D02*
X4127444Y-1078531D01*
X4127444Y-1078531D02*
X4136968Y-1097579D01*
X4136968Y-1097579D02*
X4136968Y-1116627D01*
X4136968Y-1116627D02*
X4127444Y-1145198D01*
X4127444Y-1145198D02*
X4013158Y-1259484D01*
X4013158Y-1259484D02*
X4136968Y-1259484D01*
X4375063Y-1259484D02*
X4375063Y-1059484D01*
X4460777Y-1259484D02*
X4460777Y-1154722D01*
X4460777Y-1154722D02*
X4451253Y-1135674D01*
X4451253Y-1135674D02*
X4432206Y-1126150D01*
X4432206Y-1126150D02*
X4403634Y-1126150D01*
X4403634Y-1126150D02*
X4384587Y-1135674D01*
X4384587Y-1135674D02*
X4375063Y-1145198D01*
X4584587Y-1259484D02*
X4565539Y-1249960D01*
X4565539Y-1249960D02*
X4556015Y-1240436D01*
X4556015Y-1240436D02*
X4546492Y-1221389D01*
X4546492Y-1221389D02*
X4546492Y-1164246D01*
X4546492Y-1164246D02*
X4556015Y-1145198D01*
X4556015Y-1145198D02*
X4565539Y-1135674D01*
X4565539Y-1135674D02*
X4584587Y-1126150D01*
X4584587Y-1126150D02*
X4613158Y-1126150D01*
X4613158Y-1126150D02*
X4632206Y-1135674D01*
X4632206Y-1135674D02*
X4641730Y-1145198D01*
X4641730Y-1145198D02*
X4651253Y-1164246D01*
X4651253Y-1164246D02*
X4651253Y-1221389D01*
X4651253Y-1221389D02*
X4641730Y-1240436D01*
X4641730Y-1240436D02*
X4632206Y-1249960D01*
X4632206Y-1249960D02*
X4613158Y-1259484D01*
X4613158Y-1259484D02*
X4584587Y-1259484D01*
X4765539Y-1259484D02*
X4746492Y-1249960D01*
X4746492Y-1249960D02*
X4736968Y-1230912D01*
X4736968Y-1230912D02*
X4736968Y-1059484D01*
X4917920Y-1249960D02*
X4898873Y-1259484D01*
X4898873Y-1259484D02*
X4860777Y-1259484D01*
X4860777Y-1259484D02*
X4841730Y-1249960D01*
X4841730Y-1249960D02*
X4832206Y-1230912D01*
X4832206Y-1230912D02*
X4832206Y-1154722D01*
X4832206Y-1154722D02*
X4841730Y-1135674D01*
X4841730Y-1135674D02*
X4860777Y-1126150D01*
X4860777Y-1126150D02*
X4898873Y-1126150D01*
X4898873Y-1126150D02*
X4917920Y-1135674D01*
X4917920Y-1135674D02*
X4927444Y-1154722D01*
X4927444Y-1154722D02*
X4927444Y-1173770D01*
X4927444Y-1173770D02*
X4832206Y-1192817D01*
X5003634Y-1249960D02*
X5022682Y-1259484D01*
X5022682Y-1259484D02*
X5060777Y-1259484D01*
X5060777Y-1259484D02*
X5079825Y-1249960D01*
X5079825Y-1249960D02*
X5089349Y-1230912D01*
X5089349Y-1230912D02*
X5089349Y-1221389D01*
X5089349Y-1221389D02*
X5079825Y-1202341D01*
X5079825Y-1202341D02*
X5060777Y-1192817D01*
X5060777Y-1192817D02*
X5032206Y-1192817D01*
X5032206Y-1192817D02*
X5013158Y-1183293D01*
X5013158Y-1183293D02*
X5003634Y-1164246D01*
X5003634Y-1164246D02*
X5003634Y-1154722D01*
X5003634Y-1154722D02*
X5013158Y-1135674D01*
X5013158Y-1135674D02*
X5032206Y-1126150D01*
X5032206Y-1126150D02*
X5060777Y-1126150D01*
X5060777Y-1126150D02*
X5079825Y-1135674D01*
X5156015Y-1335674D02*
X5165539Y-1326150D01*
X5165539Y-1326150D02*
X5184587Y-1297579D01*
X5184587Y-1297579D02*
X5194111Y-1278531D01*
X5194111Y-1278531D02*
X5203634Y-1249960D01*
X5203634Y-1249960D02*
X5213158Y-1202341D01*
X5213158Y-1202341D02*
X5213158Y-1164246D01*
X5213158Y-1164246D02*
X5203634Y-1116627D01*
X5203634Y-1116627D02*
X5194111Y-1088055D01*
X5194111Y-1088055D02*
X5184587Y-1069008D01*
X5184587Y-1069008D02*
X5165539Y-1040436D01*
X5165539Y-1040436D02*
X5156015Y-1030912D01*
D13*
X-21966Y-1485033D02*
X-21966Y-1378967D01*
X-128033Y-1378967D01*
X-128033Y-1485033D01*
X-21966Y-1485033D01*
D10*
X365539Y-1523484D02*
X251253Y-1523484D01*
X308396Y-1523484D02*
X308396Y-1323484D01*
X308396Y-1323484D02*
X289348Y-1352055D01*
X289348Y-1352055D02*
X270301Y-1371103D01*
X270301Y-1371103D02*
X251253Y-1380627D01*
X451253Y-1504436D02*
X460777Y-1513960D01*
X460777Y-1513960D02*
X451253Y-1523484D01*
X451253Y-1523484D02*
X441729Y-1513960D01*
X441729Y-1513960D02*
X451253Y-1504436D01*
X451253Y-1504436D02*
X451253Y-1523484D01*
X641729Y-1323484D02*
X546491Y-1323484D01*
X546491Y-1323484D02*
X536967Y-1418722D01*
X536967Y-1418722D02*
X546491Y-1409198D01*
X546491Y-1409198D02*
X565539Y-1399674D01*
X565539Y-1399674D02*
X613158Y-1399674D01*
X613158Y-1399674D02*
X632205Y-1409198D01*
X632205Y-1409198D02*
X641729Y-1418722D01*
X641729Y-1418722D02*
X651253Y-1437769D01*
X651253Y-1437769D02*
X651253Y-1485388D01*
X651253Y-1485388D02*
X641729Y-1504436D01*
X641729Y-1504436D02*
X632205Y-1513960D01*
X632205Y-1513960D02*
X613158Y-1523484D01*
X613158Y-1523484D02*
X565539Y-1523484D01*
X565539Y-1523484D02*
X546491Y-1513960D01*
X546491Y-1513960D02*
X536967Y-1504436D01*
X775062Y-1323484D02*
X794110Y-1323484D01*
X794110Y-1323484D02*
X813158Y-1333008D01*
X813158Y-1333008D02*
X822682Y-1342531D01*
X822682Y-1342531D02*
X832205Y-1361579D01*
X832205Y-1361579D02*
X841729Y-1399674D01*
X841729Y-1399674D02*
X841729Y-1447293D01*
X841729Y-1447293D02*
X832205Y-1485388D01*
X832205Y-1485388D02*
X822682Y-1504436D01*
X822682Y-1504436D02*
X813158Y-1513960D01*
X813158Y-1513960D02*
X794110Y-1523484D01*
X794110Y-1523484D02*
X775062Y-1523484D01*
X775062Y-1523484D02*
X756015Y-1513960D01*
X756015Y-1513960D02*
X746491Y-1504436D01*
X746491Y-1504436D02*
X736967Y-1485388D01*
X736967Y-1485388D02*
X727443Y-1447293D01*
X727443Y-1447293D02*
X727443Y-1399674D01*
X727443Y-1399674D02*
X736967Y-1361579D01*
X736967Y-1361579D02*
X746491Y-1342531D01*
X746491Y-1342531D02*
X756015Y-1333008D01*
X756015Y-1333008D02*
X775062Y-1323484D01*
X965539Y-1323484D02*
X984586Y-1323484D01*
X984586Y-1323484D02*
X1003634Y-1333008D01*
X1003634Y-1333008D02*
X1013158Y-1342531D01*
X1013158Y-1342531D02*
X1022682Y-1361579D01*
X1022682Y-1361579D02*
X1032205Y-1399674D01*
X1032205Y-1399674D02*
X1032205Y-1447293D01*
X1032205Y-1447293D02*
X1022682Y-1485388D01*
X1022682Y-1485388D02*
X1013158Y-1504436D01*
X1013158Y-1504436D02*
X1003634Y-1513960D01*
X1003634Y-1513960D02*
X984586Y-1523484D01*
X984586Y-1523484D02*
X965539Y-1523484D01*
X965539Y-1523484D02*
X946491Y-1513960D01*
X946491Y-1513960D02*
X936967Y-1504436D01*
X936967Y-1504436D02*
X927443Y-1485388D01*
X927443Y-1485388D02*
X917920Y-1447293D01*
X917920Y-1447293D02*
X917920Y-1399674D01*
X917920Y-1399674D02*
X927443Y-1361579D01*
X927443Y-1361579D02*
X936967Y-1342531D01*
X936967Y-1342531D02*
X946491Y-1333008D01*
X946491Y-1333008D02*
X965539Y-1323484D01*
X1117920Y-1523484D02*
X1117920Y-1390150D01*
X1117920Y-1409198D02*
X1127444Y-1399674D01*
X1127444Y-1399674D02*
X1146491Y-1390150D01*
X1146491Y-1390150D02*
X1175063Y-1390150D01*
X1175063Y-1390150D02*
X1194110Y-1399674D01*
X1194110Y-1399674D02*
X1203634Y-1418722D01*
X1203634Y-1418722D02*
X1203634Y-1523484D01*
X1203634Y-1418722D02*
X1213158Y-1399674D01*
X1213158Y-1399674D02*
X1232205Y-1390150D01*
X1232205Y-1390150D02*
X1260777Y-1390150D01*
X1260777Y-1390150D02*
X1279825Y-1399674D01*
X1279825Y-1399674D02*
X1289348Y-1418722D01*
X1289348Y-1418722D02*
X1289348Y-1523484D01*
X1384586Y-1523484D02*
X1384586Y-1390150D01*
X1384586Y-1409198D02*
X1394110Y-1399674D01*
X1394110Y-1399674D02*
X1413158Y-1390150D01*
X1413158Y-1390150D02*
X1441729Y-1390150D01*
X1441729Y-1390150D02*
X1460777Y-1399674D01*
X1460777Y-1399674D02*
X1470301Y-1418722D01*
X1470301Y-1418722D02*
X1470301Y-1523484D01*
X1470301Y-1418722D02*
X1479824Y-1399674D01*
X1479824Y-1399674D02*
X1498872Y-1390150D01*
X1498872Y-1390150D02*
X1527443Y-1390150D01*
X1527443Y-1390150D02*
X1546491Y-1399674D01*
X1546491Y-1399674D02*
X1556015Y-1418722D01*
X1556015Y-1418722D02*
X1556015Y-1523484D01*
X1946491Y-1313960D02*
X1775063Y-1571103D01*
X2203634Y-1323484D02*
X2222682Y-1323484D01*
X2222682Y-1323484D02*
X2241729Y-1333008D01*
X2241729Y-1333008D02*
X2251253Y-1342531D01*
X2251253Y-1342531D02*
X2260777Y-1361579D01*
X2260777Y-1361579D02*
X2270301Y-1399674D01*
X2270301Y-1399674D02*
X2270301Y-1447293D01*
X2270301Y-1447293D02*
X2260777Y-1485388D01*
X2260777Y-1485388D02*
X2251253Y-1504436D01*
X2251253Y-1504436D02*
X2241729Y-1513960D01*
X2241729Y-1513960D02*
X2222682Y-1523484D01*
X2222682Y-1523484D02*
X2203634Y-1523484D01*
X2203634Y-1523484D02*
X2184587Y-1513960D01*
X2184587Y-1513960D02*
X2175063Y-1504436D01*
X2175063Y-1504436D02*
X2165539Y-1485388D01*
X2165539Y-1485388D02*
X2156015Y-1447293D01*
X2156015Y-1447293D02*
X2156015Y-1399674D01*
X2156015Y-1399674D02*
X2165539Y-1361579D01*
X2165539Y-1361579D02*
X2175063Y-1342531D01*
X2175063Y-1342531D02*
X2184587Y-1333008D01*
X2184587Y-1333008D02*
X2203634Y-1323484D01*
X2356015Y-1504436D02*
X2365539Y-1513960D01*
X2365539Y-1513960D02*
X2356015Y-1523484D01*
X2356015Y-1523484D02*
X2346491Y-1513960D01*
X2346491Y-1513960D02*
X2356015Y-1504436D01*
X2356015Y-1504436D02*
X2356015Y-1523484D01*
X2489348Y-1323484D02*
X2508396Y-1323484D01*
X2508396Y-1323484D02*
X2527444Y-1333008D01*
X2527444Y-1333008D02*
X2536968Y-1342531D01*
X2536968Y-1342531D02*
X2546491Y-1361579D01*
X2546491Y-1361579D02*
X2556015Y-1399674D01*
X2556015Y-1399674D02*
X2556015Y-1447293D01*
X2556015Y-1447293D02*
X2546491Y-1485388D01*
X2546491Y-1485388D02*
X2536968Y-1504436D01*
X2536968Y-1504436D02*
X2527444Y-1513960D01*
X2527444Y-1513960D02*
X2508396Y-1523484D01*
X2508396Y-1523484D02*
X2489348Y-1523484D01*
X2489348Y-1523484D02*
X2470301Y-1513960D01*
X2470301Y-1513960D02*
X2460777Y-1504436D01*
X2460777Y-1504436D02*
X2451253Y-1485388D01*
X2451253Y-1485388D02*
X2441729Y-1447293D01*
X2441729Y-1447293D02*
X2441729Y-1399674D01*
X2441729Y-1399674D02*
X2451253Y-1361579D01*
X2451253Y-1361579D02*
X2460777Y-1342531D01*
X2460777Y-1342531D02*
X2470301Y-1333008D01*
X2470301Y-1333008D02*
X2489348Y-1323484D01*
X2736968Y-1323484D02*
X2641729Y-1323484D01*
X2641729Y-1323484D02*
X2632206Y-1418722D01*
X2632206Y-1418722D02*
X2641729Y-1409198D01*
X2641729Y-1409198D02*
X2660777Y-1399674D01*
X2660777Y-1399674D02*
X2708396Y-1399674D01*
X2708396Y-1399674D02*
X2727444Y-1409198D01*
X2727444Y-1409198D02*
X2736968Y-1418722D01*
X2736968Y-1418722D02*
X2746491Y-1437769D01*
X2746491Y-1437769D02*
X2746491Y-1485388D01*
X2746491Y-1485388D02*
X2736968Y-1504436D01*
X2736968Y-1504436D02*
X2727444Y-1513960D01*
X2727444Y-1513960D02*
X2708396Y-1523484D01*
X2708396Y-1523484D02*
X2660777Y-1523484D01*
X2660777Y-1523484D02*
X2641729Y-1513960D01*
X2641729Y-1513960D02*
X2632206Y-1504436D01*
X2841729Y-1523484D02*
X2879825Y-1523484D01*
X2879825Y-1523484D02*
X2898872Y-1513960D01*
X2898872Y-1513960D02*
X2908396Y-1504436D01*
X2908396Y-1504436D02*
X2927444Y-1475865D01*
X2927444Y-1475865D02*
X2936967Y-1437769D01*
X2936967Y-1437769D02*
X2936967Y-1361579D01*
X2936967Y-1361579D02*
X2927444Y-1342531D01*
X2927444Y-1342531D02*
X2917920Y-1333008D01*
X2917920Y-1333008D02*
X2898872Y-1323484D01*
X2898872Y-1323484D02*
X2860777Y-1323484D01*
X2860777Y-1323484D02*
X2841729Y-1333008D01*
X2841729Y-1333008D02*
X2832206Y-1342531D01*
X2832206Y-1342531D02*
X2822682Y-1361579D01*
X2822682Y-1361579D02*
X2822682Y-1409198D01*
X2822682Y-1409198D02*
X2832206Y-1428246D01*
X2832206Y-1428246D02*
X2841729Y-1437769D01*
X2841729Y-1437769D02*
X2860777Y-1447293D01*
X2860777Y-1447293D02*
X2898872Y-1447293D01*
X2898872Y-1447293D02*
X2917920Y-1437769D01*
X2917920Y-1437769D02*
X2927444Y-1428246D01*
X2927444Y-1428246D02*
X2936967Y-1409198D01*
X3127444Y-1523484D02*
X3013158Y-1523484D01*
X3070301Y-1523484D02*
X3070301Y-1323484D01*
X3070301Y-1323484D02*
X3051253Y-1352055D01*
X3051253Y-1352055D02*
X3032206Y-1371103D01*
X3032206Y-1371103D02*
X3013158Y-1380627D01*
X3203634Y-1323484D02*
X3203634Y-1361579D01*
X3279825Y-1323484D02*
X3279825Y-1361579D01*
X3575063Y-1599674D02*
X3565539Y-1590150D01*
X3565539Y-1590150D02*
X3546491Y-1561579D01*
X3546491Y-1561579D02*
X3536968Y-1542531D01*
X3536968Y-1542531D02*
X3527444Y-1513960D01*
X3527444Y-1513960D02*
X3517920Y-1466341D01*
X3517920Y-1466341D02*
X3517920Y-1428246D01*
X3517920Y-1428246D02*
X3527444Y-1380627D01*
X3527444Y-1380627D02*
X3536968Y-1352055D01*
X3536968Y-1352055D02*
X3546491Y-1333008D01*
X3546491Y-1333008D02*
X3565539Y-1304436D01*
X3565539Y-1304436D02*
X3575063Y-1294912D01*
X3756015Y-1523484D02*
X3641729Y-1523484D01*
X3698872Y-1523484D02*
X3698872Y-1323484D01*
X3698872Y-1323484D02*
X3679825Y-1352055D01*
X3679825Y-1352055D02*
X3660777Y-1371103D01*
X3660777Y-1371103D02*
X3641729Y-1380627D01*
X3927444Y-1323484D02*
X3889348Y-1323484D01*
X3889348Y-1323484D02*
X3870301Y-1333008D01*
X3870301Y-1333008D02*
X3860777Y-1342531D01*
X3860777Y-1342531D02*
X3841729Y-1371103D01*
X3841729Y-1371103D02*
X3832206Y-1409198D01*
X3832206Y-1409198D02*
X3832206Y-1485388D01*
X3832206Y-1485388D02*
X3841729Y-1504436D01*
X3841729Y-1504436D02*
X3851253Y-1513960D01*
X3851253Y-1513960D02*
X3870301Y-1523484D01*
X3870301Y-1523484D02*
X3908396Y-1523484D01*
X3908396Y-1523484D02*
X3927444Y-1513960D01*
X3927444Y-1513960D02*
X3936968Y-1504436D01*
X3936968Y-1504436D02*
X3946491Y-1485388D01*
X3946491Y-1485388D02*
X3946491Y-1437769D01*
X3946491Y-1437769D02*
X3936968Y-1418722D01*
X3936968Y-1418722D02*
X3927444Y-1409198D01*
X3927444Y-1409198D02*
X3908396Y-1399674D01*
X3908396Y-1399674D02*
X3870301Y-1399674D01*
X3870301Y-1399674D02*
X3851253Y-1409198D01*
X3851253Y-1409198D02*
X3841729Y-1418722D01*
X3841729Y-1418722D02*
X3832206Y-1437769D01*
X4022682Y-1342531D02*
X4032206Y-1333008D01*
X4032206Y-1333008D02*
X4051253Y-1323484D01*
X4051253Y-1323484D02*
X4098872Y-1323484D01*
X4098872Y-1323484D02*
X4117920Y-1333008D01*
X4117920Y-1333008D02*
X4127444Y-1342531D01*
X4127444Y-1342531D02*
X4136968Y-1361579D01*
X4136968Y-1361579D02*
X4136968Y-1380627D01*
X4136968Y-1380627D02*
X4127444Y-1409198D01*
X4127444Y-1409198D02*
X4013158Y-1523484D01*
X4013158Y-1523484D02*
X4136968Y-1523484D01*
X4375063Y-1523484D02*
X4375063Y-1323484D01*
X4460777Y-1523484D02*
X4460777Y-1418722D01*
X4460777Y-1418722D02*
X4451253Y-1399674D01*
X4451253Y-1399674D02*
X4432206Y-1390150D01*
X4432206Y-1390150D02*
X4403634Y-1390150D01*
X4403634Y-1390150D02*
X4384587Y-1399674D01*
X4384587Y-1399674D02*
X4375063Y-1409198D01*
X4584587Y-1523484D02*
X4565539Y-1513960D01*
X4565539Y-1513960D02*
X4556015Y-1504436D01*
X4556015Y-1504436D02*
X4546492Y-1485388D01*
X4546492Y-1485388D02*
X4546492Y-1428246D01*
X4546492Y-1428246D02*
X4556015Y-1409198D01*
X4556015Y-1409198D02*
X4565539Y-1399674D01*
X4565539Y-1399674D02*
X4584587Y-1390150D01*
X4584587Y-1390150D02*
X4613158Y-1390150D01*
X4613158Y-1390150D02*
X4632206Y-1399674D01*
X4632206Y-1399674D02*
X4641730Y-1409198D01*
X4641730Y-1409198D02*
X4651253Y-1428246D01*
X4651253Y-1428246D02*
X4651253Y-1485388D01*
X4651253Y-1485388D02*
X4641730Y-1504436D01*
X4641730Y-1504436D02*
X4632206Y-1513960D01*
X4632206Y-1513960D02*
X4613158Y-1523484D01*
X4613158Y-1523484D02*
X4584587Y-1523484D01*
X4765539Y-1523484D02*
X4746492Y-1513960D01*
X4746492Y-1513960D02*
X4736968Y-1494912D01*
X4736968Y-1494912D02*
X4736968Y-1323484D01*
X4917920Y-1513960D02*
X4898873Y-1523484D01*
X4898873Y-1523484D02*
X4860777Y-1523484D01*
X4860777Y-1523484D02*
X4841730Y-1513960D01*
X4841730Y-1513960D02*
X4832206Y-1494912D01*
X4832206Y-1494912D02*
X4832206Y-1418722D01*
X4832206Y-1418722D02*
X4841730Y-1399674D01*
X4841730Y-1399674D02*
X4860777Y-1390150D01*
X4860777Y-1390150D02*
X4898873Y-1390150D01*
X4898873Y-1390150D02*
X4917920Y-1399674D01*
X4917920Y-1399674D02*
X4927444Y-1418722D01*
X4927444Y-1418722D02*
X4927444Y-1437769D01*
X4927444Y-1437769D02*
X4832206Y-1456817D01*
X5003634Y-1513960D02*
X5022682Y-1523484D01*
X5022682Y-1523484D02*
X5060777Y-1523484D01*
X5060777Y-1523484D02*
X5079825Y-1513960D01*
X5079825Y-1513960D02*
X5089349Y-1494912D01*
X5089349Y-1494912D02*
X5089349Y-1485388D01*
X5089349Y-1485388D02*
X5079825Y-1466341D01*
X5079825Y-1466341D02*
X5060777Y-1456817D01*
X5060777Y-1456817D02*
X5032206Y-1456817D01*
X5032206Y-1456817D02*
X5013158Y-1447293D01*
X5013158Y-1447293D02*
X5003634Y-1428246D01*
X5003634Y-1428246D02*
X5003634Y-1418722D01*
X5003634Y-1418722D02*
X5013158Y-1399674D01*
X5013158Y-1399674D02*
X5032206Y-1390150D01*
X5032206Y-1390150D02*
X5060777Y-1390150D01*
X5060777Y-1390150D02*
X5079825Y-1399674D01*
X5156015Y-1599674D02*
X5165539Y-1590150D01*
X5165539Y-1590150D02*
X5184587Y-1561579D01*
X5184587Y-1561579D02*
X5194111Y-1542531D01*
X5194111Y-1542531D02*
X5203634Y-1513960D01*
X5203634Y-1513960D02*
X5213158Y-1466341D01*
X5213158Y-1466341D02*
X5213158Y-1428246D01*
X5213158Y-1428246D02*
X5203634Y-1380627D01*
X5203634Y-1380627D02*
X5194111Y-1352055D01*
X5194111Y-1352055D02*
X5184587Y-1333008D01*
X5184587Y-1333008D02*
X5165539Y-1304436D01*
X5165539Y-1304436D02*
X5156015Y-1294912D01*
X-100000Y-1802000D02*
X0Y-1702000D01*
X-100000Y-1602000D01*
X-200000Y-1702000D01*
X-100000Y-1802000D01*
X251253Y-1612531D02*
X260777Y-1603008D01*
X260777Y-1603008D02*
X279824Y-1593484D01*
X279824Y-1593484D02*
X327444Y-1593484D01*
X327444Y-1593484D02*
X346491Y-1603008D01*
X346491Y-1603008D02*
X356015Y-1612531D01*
X356015Y-1612531D02*
X365539Y-1631579D01*
X365539Y-1631579D02*
X365539Y-1650627D01*
X365539Y-1650627D02*
X356015Y-1679198D01*
X356015Y-1679198D02*
X241729Y-1793484D01*
X241729Y-1793484D02*
X365539Y-1793484D01*
X451253Y-1774436D02*
X460777Y-1783960D01*
X460777Y-1783960D02*
X451253Y-1793484D01*
X451253Y-1793484D02*
X441729Y-1783960D01*
X441729Y-1783960D02*
X451253Y-1774436D01*
X451253Y-1774436D02*
X451253Y-1793484D01*
X584586Y-1593484D02*
X603634Y-1593484D01*
X603634Y-1593484D02*
X622682Y-1603008D01*
X622682Y-1603008D02*
X632205Y-1612531D01*
X632205Y-1612531D02*
X641729Y-1631579D01*
X641729Y-1631579D02*
X651253Y-1669674D01*
X651253Y-1669674D02*
X651253Y-1717293D01*
X651253Y-1717293D02*
X641729Y-1755388D01*
X641729Y-1755388D02*
X632205Y-1774436D01*
X632205Y-1774436D02*
X622682Y-1783960D01*
X622682Y-1783960D02*
X603634Y-1793484D01*
X603634Y-1793484D02*
X584586Y-1793484D01*
X584586Y-1793484D02*
X565539Y-1783960D01*
X565539Y-1783960D02*
X556015Y-1774436D01*
X556015Y-1774436D02*
X546491Y-1755388D01*
X546491Y-1755388D02*
X536967Y-1717293D01*
X536967Y-1717293D02*
X536967Y-1669674D01*
X536967Y-1669674D02*
X546491Y-1631579D01*
X546491Y-1631579D02*
X556015Y-1612531D01*
X556015Y-1612531D02*
X565539Y-1603008D01*
X565539Y-1603008D02*
X584586Y-1593484D01*
X775062Y-1593484D02*
X794110Y-1593484D01*
X794110Y-1593484D02*
X813158Y-1603008D01*
X813158Y-1603008D02*
X822682Y-1612531D01*
X822682Y-1612531D02*
X832205Y-1631579D01*
X832205Y-1631579D02*
X841729Y-1669674D01*
X841729Y-1669674D02*
X841729Y-1717293D01*
X841729Y-1717293D02*
X832205Y-1755388D01*
X832205Y-1755388D02*
X822682Y-1774436D01*
X822682Y-1774436D02*
X813158Y-1783960D01*
X813158Y-1783960D02*
X794110Y-1793484D01*
X794110Y-1793484D02*
X775062Y-1793484D01*
X775062Y-1793484D02*
X756015Y-1783960D01*
X756015Y-1783960D02*
X746491Y-1774436D01*
X746491Y-1774436D02*
X736967Y-1755388D01*
X736967Y-1755388D02*
X727443Y-1717293D01*
X727443Y-1717293D02*
X727443Y-1669674D01*
X727443Y-1669674D02*
X736967Y-1631579D01*
X736967Y-1631579D02*
X746491Y-1612531D01*
X746491Y-1612531D02*
X756015Y-1603008D01*
X756015Y-1603008D02*
X775062Y-1593484D01*
X965539Y-1593484D02*
X984586Y-1593484D01*
X984586Y-1593484D02*
X1003634Y-1603008D01*
X1003634Y-1603008D02*
X1013158Y-1612531D01*
X1013158Y-1612531D02*
X1022682Y-1631579D01*
X1022682Y-1631579D02*
X1032205Y-1669674D01*
X1032205Y-1669674D02*
X1032205Y-1717293D01*
X1032205Y-1717293D02*
X1022682Y-1755388D01*
X1022682Y-1755388D02*
X1013158Y-1774436D01*
X1013158Y-1774436D02*
X1003634Y-1783960D01*
X1003634Y-1783960D02*
X984586Y-1793484D01*
X984586Y-1793484D02*
X965539Y-1793484D01*
X965539Y-1793484D02*
X946491Y-1783960D01*
X946491Y-1783960D02*
X936967Y-1774436D01*
X936967Y-1774436D02*
X927443Y-1755388D01*
X927443Y-1755388D02*
X917920Y-1717293D01*
X917920Y-1717293D02*
X917920Y-1669674D01*
X917920Y-1669674D02*
X927443Y-1631579D01*
X927443Y-1631579D02*
X936967Y-1612531D01*
X936967Y-1612531D02*
X946491Y-1603008D01*
X946491Y-1603008D02*
X965539Y-1593484D01*
X1117920Y-1793484D02*
X1117920Y-1660150D01*
X1117920Y-1679198D02*
X1127444Y-1669674D01*
X1127444Y-1669674D02*
X1146491Y-1660150D01*
X1146491Y-1660150D02*
X1175063Y-1660150D01*
X1175063Y-1660150D02*
X1194110Y-1669674D01*
X1194110Y-1669674D02*
X1203634Y-1688722D01*
X1203634Y-1688722D02*
X1203634Y-1793484D01*
X1203634Y-1688722D02*
X1213158Y-1669674D01*
X1213158Y-1669674D02*
X1232205Y-1660150D01*
X1232205Y-1660150D02*
X1260777Y-1660150D01*
X1260777Y-1660150D02*
X1279825Y-1669674D01*
X1279825Y-1669674D02*
X1289348Y-1688722D01*
X1289348Y-1688722D02*
X1289348Y-1793484D01*
X1384586Y-1793484D02*
X1384586Y-1660150D01*
X1384586Y-1679198D02*
X1394110Y-1669674D01*
X1394110Y-1669674D02*
X1413158Y-1660150D01*
X1413158Y-1660150D02*
X1441729Y-1660150D01*
X1441729Y-1660150D02*
X1460777Y-1669674D01*
X1460777Y-1669674D02*
X1470301Y-1688722D01*
X1470301Y-1688722D02*
X1470301Y-1793484D01*
X1470301Y-1688722D02*
X1479824Y-1669674D01*
X1479824Y-1669674D02*
X1498872Y-1660150D01*
X1498872Y-1660150D02*
X1527443Y-1660150D01*
X1527443Y-1660150D02*
X1546491Y-1669674D01*
X1546491Y-1669674D02*
X1556015Y-1688722D01*
X1556015Y-1688722D02*
X1556015Y-1793484D01*
X1946491Y-1583960D02*
X1775063Y-1841103D01*
X2203634Y-1593484D02*
X2222682Y-1593484D01*
X2222682Y-1593484D02*
X2241729Y-1603008D01*
X2241729Y-1603008D02*
X2251253Y-1612531D01*
X2251253Y-1612531D02*
X2260777Y-1631579D01*
X2260777Y-1631579D02*
X2270301Y-1669674D01*
X2270301Y-1669674D02*
X2270301Y-1717293D01*
X2270301Y-1717293D02*
X2260777Y-1755388D01*
X2260777Y-1755388D02*
X2251253Y-1774436D01*
X2251253Y-1774436D02*
X2241729Y-1783960D01*
X2241729Y-1783960D02*
X2222682Y-1793484D01*
X2222682Y-1793484D02*
X2203634Y-1793484D01*
X2203634Y-1793484D02*
X2184587Y-1783960D01*
X2184587Y-1783960D02*
X2175063Y-1774436D01*
X2175063Y-1774436D02*
X2165539Y-1755388D01*
X2165539Y-1755388D02*
X2156015Y-1717293D01*
X2156015Y-1717293D02*
X2156015Y-1669674D01*
X2156015Y-1669674D02*
X2165539Y-1631579D01*
X2165539Y-1631579D02*
X2175063Y-1612531D01*
X2175063Y-1612531D02*
X2184587Y-1603008D01*
X2184587Y-1603008D02*
X2203634Y-1593484D01*
X2356015Y-1774436D02*
X2365539Y-1783960D01*
X2365539Y-1783960D02*
X2356015Y-1793484D01*
X2356015Y-1793484D02*
X2346491Y-1783960D01*
X2346491Y-1783960D02*
X2356015Y-1774436D01*
X2356015Y-1774436D02*
X2356015Y-1793484D01*
X2489348Y-1593484D02*
X2508396Y-1593484D01*
X2508396Y-1593484D02*
X2527444Y-1603008D01*
X2527444Y-1603008D02*
X2536968Y-1612531D01*
X2536968Y-1612531D02*
X2546491Y-1631579D01*
X2546491Y-1631579D02*
X2556015Y-1669674D01*
X2556015Y-1669674D02*
X2556015Y-1717293D01*
X2556015Y-1717293D02*
X2546491Y-1755388D01*
X2546491Y-1755388D02*
X2536968Y-1774436D01*
X2536968Y-1774436D02*
X2527444Y-1783960D01*
X2527444Y-1783960D02*
X2508396Y-1793484D01*
X2508396Y-1793484D02*
X2489348Y-1793484D01*
X2489348Y-1793484D02*
X2470301Y-1783960D01*
X2470301Y-1783960D02*
X2460777Y-1774436D01*
X2460777Y-1774436D02*
X2451253Y-1755388D01*
X2451253Y-1755388D02*
X2441729Y-1717293D01*
X2441729Y-1717293D02*
X2441729Y-1669674D01*
X2441729Y-1669674D02*
X2451253Y-1631579D01*
X2451253Y-1631579D02*
X2460777Y-1612531D01*
X2460777Y-1612531D02*
X2470301Y-1603008D01*
X2470301Y-1603008D02*
X2489348Y-1593484D01*
X2622682Y-1593484D02*
X2756015Y-1593484D01*
X2756015Y-1593484D02*
X2670301Y-1793484D01*
X2860777Y-1679198D02*
X2841729Y-1669674D01*
X2841729Y-1669674D02*
X2832206Y-1660150D01*
X2832206Y-1660150D02*
X2822682Y-1641103D01*
X2822682Y-1641103D02*
X2822682Y-1631579D01*
X2822682Y-1631579D02*
X2832206Y-1612531D01*
X2832206Y-1612531D02*
X2841729Y-1603008D01*
X2841729Y-1603008D02*
X2860777Y-1593484D01*
X2860777Y-1593484D02*
X2898872Y-1593484D01*
X2898872Y-1593484D02*
X2917920Y-1603008D01*
X2917920Y-1603008D02*
X2927444Y-1612531D01*
X2927444Y-1612531D02*
X2936967Y-1631579D01*
X2936967Y-1631579D02*
X2936967Y-1641103D01*
X2936967Y-1641103D02*
X2927444Y-1660150D01*
X2927444Y-1660150D02*
X2917920Y-1669674D01*
X2917920Y-1669674D02*
X2898872Y-1679198D01*
X2898872Y-1679198D02*
X2860777Y-1679198D01*
X2860777Y-1679198D02*
X2841729Y-1688722D01*
X2841729Y-1688722D02*
X2832206Y-1698246D01*
X2832206Y-1698246D02*
X2822682Y-1717293D01*
X2822682Y-1717293D02*
X2822682Y-1755388D01*
X2822682Y-1755388D02*
X2832206Y-1774436D01*
X2832206Y-1774436D02*
X2841729Y-1783960D01*
X2841729Y-1783960D02*
X2860777Y-1793484D01*
X2860777Y-1793484D02*
X2898872Y-1793484D01*
X2898872Y-1793484D02*
X2917920Y-1783960D01*
X2917920Y-1783960D02*
X2927444Y-1774436D01*
X2927444Y-1774436D02*
X2936967Y-1755388D01*
X2936967Y-1755388D02*
X2936967Y-1717293D01*
X2936967Y-1717293D02*
X2927444Y-1698246D01*
X2927444Y-1698246D02*
X2917920Y-1688722D01*
X2917920Y-1688722D02*
X2898872Y-1679198D01*
X3003634Y-1593484D02*
X3136967Y-1593484D01*
X3136967Y-1593484D02*
X3051253Y-1793484D01*
X3203634Y-1593484D02*
X3203634Y-1631579D01*
X3279825Y-1593484D02*
X3279825Y-1631579D01*
X3575063Y-1869674D02*
X3565539Y-1860150D01*
X3565539Y-1860150D02*
X3546491Y-1831579D01*
X3546491Y-1831579D02*
X3536968Y-1812531D01*
X3536968Y-1812531D02*
X3527444Y-1783960D01*
X3527444Y-1783960D02*
X3517920Y-1736341D01*
X3517920Y-1736341D02*
X3517920Y-1698246D01*
X3517920Y-1698246D02*
X3527444Y-1650627D01*
X3527444Y-1650627D02*
X3536968Y-1622055D01*
X3536968Y-1622055D02*
X3546491Y-1603008D01*
X3546491Y-1603008D02*
X3565539Y-1574436D01*
X3565539Y-1574436D02*
X3575063Y-1564912D01*
X3689348Y-1593484D02*
X3708396Y-1593484D01*
X3708396Y-1593484D02*
X3727444Y-1603008D01*
X3727444Y-1603008D02*
X3736968Y-1612531D01*
X3736968Y-1612531D02*
X3746491Y-1631579D01*
X3746491Y-1631579D02*
X3756015Y-1669674D01*
X3756015Y-1669674D02*
X3756015Y-1717293D01*
X3756015Y-1717293D02*
X3746491Y-1755388D01*
X3746491Y-1755388D02*
X3736968Y-1774436D01*
X3736968Y-1774436D02*
X3727444Y-1783960D01*
X3727444Y-1783960D02*
X3708396Y-1793484D01*
X3708396Y-1793484D02*
X3689348Y-1793484D01*
X3689348Y-1793484D02*
X3670301Y-1783960D01*
X3670301Y-1783960D02*
X3660777Y-1774436D01*
X3660777Y-1774436D02*
X3651253Y-1755388D01*
X3651253Y-1755388D02*
X3641729Y-1717293D01*
X3641729Y-1717293D02*
X3641729Y-1669674D01*
X3641729Y-1669674D02*
X3651253Y-1631579D01*
X3651253Y-1631579D02*
X3660777Y-1612531D01*
X3660777Y-1612531D02*
X3670301Y-1603008D01*
X3670301Y-1603008D02*
X3689348Y-1593484D01*
X3994110Y-1793484D02*
X3994110Y-1593484D01*
X4079825Y-1793484D02*
X4079825Y-1688722D01*
X4079825Y-1688722D02*
X4070301Y-1669674D01*
X4070301Y-1669674D02*
X4051253Y-1660150D01*
X4051253Y-1660150D02*
X4022682Y-1660150D01*
X4022682Y-1660150D02*
X4003634Y-1669674D01*
X4003634Y-1669674D02*
X3994110Y-1679198D01*
X4203634Y-1793484D02*
X4184587Y-1783960D01*
X4184587Y-1783960D02*
X4175063Y-1774436D01*
X4175063Y-1774436D02*
X4165539Y-1755388D01*
X4165539Y-1755388D02*
X4165539Y-1698246D01*
X4165539Y-1698246D02*
X4175063Y-1679198D01*
X4175063Y-1679198D02*
X4184587Y-1669674D01*
X4184587Y-1669674D02*
X4203634Y-1660150D01*
X4203634Y-1660150D02*
X4232206Y-1660150D01*
X4232206Y-1660150D02*
X4251253Y-1669674D01*
X4251253Y-1669674D02*
X4260777Y-1679198D01*
X4260777Y-1679198D02*
X4270301Y-1698246D01*
X4270301Y-1698246D02*
X4270301Y-1755388D01*
X4270301Y-1755388D02*
X4260777Y-1774436D01*
X4260777Y-1774436D02*
X4251253Y-1783960D01*
X4251253Y-1783960D02*
X4232206Y-1793484D01*
X4232206Y-1793484D02*
X4203634Y-1793484D01*
X4384587Y-1793484D02*
X4365539Y-1783960D01*
X4365539Y-1783960D02*
X4356015Y-1764912D01*
X4356015Y-1764912D02*
X4356015Y-1593484D01*
X4536968Y-1783960D02*
X4517920Y-1793484D01*
X4517920Y-1793484D02*
X4479825Y-1793484D01*
X4479825Y-1793484D02*
X4460777Y-1783960D01*
X4460777Y-1783960D02*
X4451253Y-1764912D01*
X4451253Y-1764912D02*
X4451253Y-1688722D01*
X4451253Y-1688722D02*
X4460777Y-1669674D01*
X4460777Y-1669674D02*
X4479825Y-1660150D01*
X4479825Y-1660150D02*
X4517920Y-1660150D01*
X4517920Y-1660150D02*
X4536968Y-1669674D01*
X4536968Y-1669674D02*
X4546492Y-1688722D01*
X4546492Y-1688722D02*
X4546492Y-1707769D01*
X4546492Y-1707769D02*
X4451253Y-1726817D01*
X4622682Y-1783960D02*
X4641730Y-1793484D01*
X4641730Y-1793484D02*
X4679825Y-1793484D01*
X4679825Y-1793484D02*
X4698873Y-1783960D01*
X4698873Y-1783960D02*
X4708396Y-1764912D01*
X4708396Y-1764912D02*
X4708396Y-1755388D01*
X4708396Y-1755388D02*
X4698873Y-1736341D01*
X4698873Y-1736341D02*
X4679825Y-1726817D01*
X4679825Y-1726817D02*
X4651253Y-1726817D01*
X4651253Y-1726817D02*
X4632206Y-1717293D01*
X4632206Y-1717293D02*
X4622682Y-1698246D01*
X4622682Y-1698246D02*
X4622682Y-1688722D01*
X4622682Y-1688722D02*
X4632206Y-1669674D01*
X4632206Y-1669674D02*
X4651253Y-1660150D01*
X4651253Y-1660150D02*
X4679825Y-1660150D01*
X4679825Y-1660150D02*
X4698873Y-1669674D01*
X4946492Y-1717293D02*
X5098873Y-1717293D01*
X5022682Y-1793484D02*
X5022682Y-1641103D01*
X5336968Y-1612531D02*
X5346492Y-1603008D01*
X5346492Y-1603008D02*
X5365539Y-1593484D01*
X5365539Y-1593484D02*
X5413158Y-1593484D01*
X5413158Y-1593484D02*
X5432206Y-1603008D01*
X5432206Y-1603008D02*
X5441730Y-1612531D01*
X5441730Y-1612531D02*
X5451254Y-1631579D01*
X5451254Y-1631579D02*
X5451254Y-1650627D01*
X5451254Y-1650627D02*
X5441730Y-1679198D01*
X5441730Y-1679198D02*
X5327444Y-1793484D01*
X5327444Y-1793484D02*
X5451254Y-1793484D01*
X5679825Y-1783960D02*
X5698873Y-1793484D01*
X5698873Y-1793484D02*
X5736968Y-1793484D01*
X5736968Y-1793484D02*
X5756015Y-1783960D01*
X5756015Y-1783960D02*
X5765539Y-1764912D01*
X5765539Y-1764912D02*
X5765539Y-1755388D01*
X5765539Y-1755388D02*
X5756015Y-1736341D01*
X5756015Y-1736341D02*
X5736968Y-1726817D01*
X5736968Y-1726817D02*
X5708396Y-1726817D01*
X5708396Y-1726817D02*
X5689349Y-1717293D01*
X5689349Y-1717293D02*
X5679825Y-1698246D01*
X5679825Y-1698246D02*
X5679825Y-1688722D01*
X5679825Y-1688722D02*
X5689349Y-1669674D01*
X5689349Y-1669674D02*
X5708396Y-1660150D01*
X5708396Y-1660150D02*
X5736968Y-1660150D01*
X5736968Y-1660150D02*
X5756015Y-1669674D01*
X5879825Y-1793484D02*
X5860777Y-1783960D01*
X5860777Y-1783960D02*
X5851254Y-1764912D01*
X5851254Y-1764912D02*
X5851254Y-1593484D01*
X5984587Y-1793484D02*
X5965539Y-1783960D01*
X5965539Y-1783960D02*
X5956015Y-1774436D01*
X5956015Y-1774436D02*
X5946492Y-1755388D01*
X5946492Y-1755388D02*
X5946492Y-1698246D01*
X5946492Y-1698246D02*
X5956015Y-1679198D01*
X5956015Y-1679198D02*
X5965539Y-1669674D01*
X5965539Y-1669674D02*
X5984587Y-1660150D01*
X5984587Y-1660150D02*
X6013158Y-1660150D01*
X6013158Y-1660150D02*
X6032206Y-1669674D01*
X6032206Y-1669674D02*
X6041730Y-1679198D01*
X6041730Y-1679198D02*
X6051254Y-1698246D01*
X6051254Y-1698246D02*
X6051254Y-1755388D01*
X6051254Y-1755388D02*
X6041730Y-1774436D01*
X6041730Y-1774436D02*
X6032206Y-1783960D01*
X6032206Y-1783960D02*
X6013158Y-1793484D01*
X6013158Y-1793484D02*
X5984587Y-1793484D01*
X6108396Y-1660150D02*
X6184587Y-1660150D01*
X6136968Y-1593484D02*
X6136968Y-1764912D01*
X6136968Y-1764912D02*
X6146492Y-1783960D01*
X6146492Y-1783960D02*
X6165539Y-1793484D01*
X6165539Y-1793484D02*
X6184587Y-1793484D01*
X6241730Y-1783960D02*
X6260777Y-1793484D01*
X6260777Y-1793484D02*
X6298873Y-1793484D01*
X6298873Y-1793484D02*
X6317920Y-1783960D01*
X6317920Y-1783960D02*
X6327444Y-1764912D01*
X6327444Y-1764912D02*
X6327444Y-1755388D01*
X6327444Y-1755388D02*
X6317920Y-1736341D01*
X6317920Y-1736341D02*
X6298873Y-1726817D01*
X6298873Y-1726817D02*
X6270301Y-1726817D01*
X6270301Y-1726817D02*
X6251254Y-1717293D01*
X6251254Y-1717293D02*
X6241730Y-1698246D01*
X6241730Y-1698246D02*
X6241730Y-1688722D01*
X6241730Y-1688722D02*
X6251254Y-1669674D01*
X6251254Y-1669674D02*
X6270301Y-1660150D01*
X6270301Y-1660150D02*
X6298873Y-1660150D01*
X6298873Y-1660150D02*
X6317920Y-1669674D01*
X6394111Y-1869674D02*
X6403635Y-1860150D01*
X6403635Y-1860150D02*
X6422682Y-1831579D01*
X6422682Y-1831579D02*
X6432206Y-1812531D01*
X6432206Y-1812531D02*
X6441730Y-1783960D01*
X6441730Y-1783960D02*
X6451254Y-1736341D01*
X6451254Y-1736341D02*
X6451254Y-1698246D01*
X6451254Y-1698246D02*
X6441730Y-1650627D01*
X6441730Y-1650627D02*
X6432206Y-1622055D01*
X6432206Y-1622055D02*
X6422682Y-1603008D01*
X6422682Y-1603008D02*
X6403635Y-1574436D01*
X6403635Y-1574436D02*
X6394111Y-1564912D01*
M02*
