M48
; DRILL file {KiCad 7.0.10} date Thu Mar  7 22:32:42 2024
; FORMAT={-:-/ absolute / inch / decimal}
; #@! TF.CreationDate,2024-03-07T22:32:42+00:00
; #@! TF.GenerationSoftware,Kicad,Pcbnew,7.0.10
; #@! TF.FileFunction,Plated,1,2,PTH
FMAT,2
INCH
; #@! TA.AperFunction,Plated,PTH,ComponentDrill
T1C0.0197
; #@! TA.AperFunction,Plated,PTH,ComponentDrill
T2C0.0394
; #@! TA.AperFunction,Plated,PTH,ComponentDrill
T3C0.0472
; #@! TA.AperFunction,Plated,PTH,ComponentDrill
T4C0.0591
; #@! TA.AperFunction,Plated,PTH,ComponentDrill
T5C0.0787
%
G90
G05
T2
X9.2453Y-1.8933
X9.2453Y-2.4933
X9.3453Y-1.8933
X9.3453Y-2.4933
X9.4453Y-1.8933
X9.4453Y-2.4933
X9.5453Y-1.8933
X9.5453Y-2.4933
X9.6453Y-1.8933
X9.6453Y-2.4933
X9.7453Y-1.8933
X9.7453Y-2.4933
X9.8453Y-1.8933
X9.8453Y-2.4933
X9.9453Y-1.8933
X9.9453Y-2.4933
X10.0453Y-1.8933
X10.0453Y-2.4933
X10.1453Y-1.8933
X10.1453Y-2.4933
X10.2453Y-1.8933
X10.2453Y-2.4933
X10.3453Y-1.8933
X10.3453Y-2.4933
X10.4453Y-1.8933
X10.4453Y-2.4933
X10.5453Y-1.8933
X10.5453Y-2.4933
X10.6453Y-1.8933
X10.6453Y-2.4933
X13.4021Y-3.6516
X13.4021Y-3.75
X13.4021Y-3.8484
X13.9729Y-3.6516
X13.9729Y-3.8484
T3
X3.1875Y-4.0059
X3.1875Y-4.7559
X3.1875Y-5.5059
X3.1875Y-6.2559
X3.1875Y-7.0059
X3.3371Y-3.8996
X3.3371Y-4.6496
X3.3371Y-5.3996
X3.3371Y-6.1496
X3.3371Y-6.8996
X3.4129Y-5.8504
X3.5625Y-5.7441
X3.9375Y-4.0059
X3.9375Y-4.7559
X3.9375Y-5.5059
X3.9375Y-6.2559
X3.9375Y-7.0059
X4.0871Y-3.8996
X4.0871Y-4.6496
X4.0871Y-5.3996
X4.0871Y-6.1496
X4.0871Y-6.8996
X4.6875Y-4.0059
X4.6875Y-4.7559
X4.6875Y-5.5059
X4.6875Y-6.2559
X4.6875Y-7.0059
X4.8371Y-3.8996
X4.8371Y-4.6496
X4.8371Y-5.3996
X4.8371Y-6.1496
X4.8371Y-6.8996
X5.4375Y-4.0059
X5.4375Y-4.7559
X5.4375Y-5.5059
X5.4375Y-6.2559
X5.4375Y-7.0059
X5.5871Y-3.8996
X5.5871Y-4.6496
X5.5871Y-5.3996
X5.5871Y-6.1496
X5.5871Y-6.8996
X6.1875Y-4.0059
X6.1875Y-4.7559
X6.1875Y-5.5059
X6.1875Y-6.2559
X6.1875Y-7.0059
X6.3371Y-3.8996
X6.3371Y-4.6496
X6.3371Y-5.3996
X6.3371Y-6.1496
X6.3371Y-6.8996
X6.5625Y-7.0059
X6.7121Y-6.8996
X6.9375Y-4.0059
X6.9375Y-4.7559
X6.9375Y-5.5059
X6.9375Y-6.2559
X6.9375Y-7.0059
X7.0871Y-3.8996
X7.0871Y-4.6496
X7.0871Y-5.3996
X7.0871Y-6.1496
X7.0871Y-6.8996
X7.6875Y-4.0059
X7.6875Y-4.7559
X7.6875Y-5.5059
X7.6875Y-6.2559
X7.6875Y-7.0059
X7.8371Y-3.8996
X7.8371Y-4.6496
X7.8371Y-5.3996
X7.8371Y-6.1496
X7.8371Y-6.8996
X8.0625Y-7.0059
X8.2121Y-6.8996
X8.4375Y-4.0059
X8.4375Y-4.7559
X8.4375Y-5.5059
X8.4375Y-6.2559
X8.4375Y-7.0059
X8.5871Y-3.8996
X8.5871Y-4.6496
X8.5871Y-5.3996
X8.5871Y-6.1496
X8.5871Y-6.8996
X8.8125Y-7.0059
X8.9621Y-6.8996
X9.1875Y-4.0059
X9.1875Y-4.7559
X9.1875Y-5.5059
X9.1875Y-6.2559
X9.1875Y-7.0059
X9.3371Y-3.8996
X9.3371Y-4.6496
X9.3371Y-5.3996
X9.3371Y-6.1496
X9.3371Y-6.8996
X9.9375Y-4.0059
X9.9375Y-4.7559
X9.9375Y-5.5059
X9.9375Y-6.2559
X9.9375Y-7.0059
X10.0871Y-3.8996
X10.0871Y-4.6496
X10.0871Y-5.3996
X10.0871Y-6.1496
X10.0871Y-6.8996
X10.6875Y-4.0059
X10.6875Y-4.7559
X10.6875Y-5.5059
X10.6875Y-6.2559
X10.6875Y-7.0059
X10.8371Y-3.8996
X10.8371Y-4.6496
X10.8371Y-5.3996
X10.8371Y-6.1496
X10.8371Y-6.8996
X11.4375Y-4.0059
X11.4375Y-4.7559
X11.4375Y-5.5059
X11.4375Y-6.2559
X11.4375Y-7.0059
X11.5871Y-3.8996
X11.5871Y-4.6496
X11.5871Y-5.3996
X11.5871Y-6.1496
X11.5871Y-6.8996
X11.8125Y-6.2559
X11.9621Y-6.1496
X12.1875Y-4.0059
X12.1875Y-4.7559
X12.1875Y-5.5059
X12.1875Y-6.2559
X12.1875Y-7.0059
X12.3371Y-3.8996
X12.3371Y-4.6496
X12.3371Y-5.3996
X12.3371Y-6.1496
X12.3371Y-6.8996
X12.9375Y-4.0059
X12.9375Y-4.7559
X12.9375Y-5.5059
X12.9375Y-6.2559
X12.9375Y-7.0059
X13.0871Y-3.8996
X13.0871Y-4.6496
X13.0871Y-5.3996
X13.0871Y-6.1496
X13.0871Y-6.8996
X13.1629Y-4.3504
X13.3125Y-4.2441
X13.3125Y-5.5059
X13.4621Y-5.3996
X13.6875Y-4.7559
X13.6875Y-5.5059
X13.6875Y-6.2559
X13.6875Y-7.0059
X13.8371Y-4.6496
X13.8371Y-5.3996
X13.8371Y-6.1496
X13.8371Y-6.8996
T4
X3.0875Y-3.95
X3.0875Y-4.7
X3.0875Y-5.45
X3.0875Y-6.2
X3.0875Y-6.95
X3.3375Y-3.85
X3.3375Y-4.6
X3.3375Y-5.35
X3.3375Y-6.1
X3.3375Y-6.85
X3.4125Y-5.9
X3.6625Y-5.8
X3.8375Y-3.95
X3.8375Y-4.7
X3.8375Y-5.45
X3.8375Y-6.2
X3.8375Y-6.95
X4.0875Y-3.85
X4.0875Y-4.6
X4.0875Y-5.35
X4.0875Y-6.1
X4.0875Y-6.85
X4.5875Y-3.95
X4.5875Y-4.7
X4.5875Y-5.45
X4.5875Y-6.2
X4.5875Y-6.95
X4.8375Y-3.85
X4.8375Y-4.6
X4.8375Y-5.35
X4.8375Y-6.1
X4.8375Y-6.85
X5.3375Y-3.95
X5.3375Y-4.7
X5.3375Y-5.45
X5.3375Y-6.2
X5.3375Y-6.95
X5.5875Y-3.85
X5.5875Y-4.6
X5.5875Y-5.35
X5.5875Y-6.1
X5.5875Y-6.85
X6.0875Y-3.95
X6.0875Y-4.7
X6.0875Y-5.45
X6.0875Y-6.2
X6.0875Y-6.95
X6.3375Y-3.85
X6.3375Y-4.6
X6.3375Y-5.35
X6.3375Y-6.1
X6.3375Y-6.85
X6.4625Y-6.95
X6.7125Y-6.85
X6.8375Y-3.95
X6.8375Y-4.7
X6.8375Y-5.45
X6.8375Y-6.2
X6.8375Y-6.95
X7.0875Y-3.85
X7.0875Y-4.6
X7.0875Y-5.35
X7.0875Y-6.1
X7.0875Y-6.85
X7.5875Y-3.95
X7.5875Y-4.7
X7.5875Y-5.45
X7.5875Y-6.2
X7.5875Y-6.95
X7.8375Y-3.85
X7.8375Y-4.6
X7.8375Y-5.35
X7.8375Y-6.1
X7.8375Y-6.85
X7.9625Y-6.95
X8.2125Y-6.85
X8.3375Y-3.95
X8.3375Y-4.7
X8.3375Y-5.45
X8.3375Y-6.2
X8.3375Y-6.95
X8.5875Y-3.85
X8.5875Y-4.6
X8.5875Y-5.35
X8.5875Y-6.1
X8.5875Y-6.85
X8.7125Y-6.95
X8.9625Y-6.85
X9.0875Y-3.95
X9.0875Y-4.7
X9.0875Y-5.45
X9.0875Y-6.2
X9.0875Y-6.95
X9.3375Y-3.85
X9.3375Y-4.6
X9.3375Y-5.35
X9.3375Y-6.1
X9.3375Y-6.85
X9.8375Y-3.95
X9.8375Y-4.7
X9.8375Y-5.45
X9.8375Y-6.2
X9.8375Y-6.95
X10.0875Y-3.85
X10.0875Y-4.6
X10.0875Y-5.35
X10.0875Y-6.1
X10.0875Y-6.85
X10.5875Y-3.95
X10.5875Y-4.7
X10.5875Y-5.45
X10.5875Y-6.2
X10.5875Y-6.95
X10.8375Y-3.85
X10.8375Y-4.6
X10.8375Y-5.35
X10.8375Y-6.1
X10.8375Y-6.85
X11.3375Y-3.95
X11.3375Y-4.7
X11.3375Y-5.45
X11.3375Y-6.2
X11.3375Y-6.95
X11.5875Y-3.85
X11.5875Y-4.6
X11.5875Y-5.35
X11.5875Y-6.1
X11.5875Y-6.85
X11.7125Y-6.2
X11.9625Y-6.1
X12.0875Y-3.95
X12.0875Y-4.7
X12.0875Y-5.45
X12.0875Y-6.2
X12.0875Y-6.95
X12.3375Y-3.85
X12.3375Y-4.6
X12.3375Y-5.35
X12.3375Y-6.1
X12.3375Y-6.85
X12.8375Y-3.95
X12.8375Y-4.7
X12.8375Y-5.45
X12.8375Y-6.2
X12.8375Y-6.95
X13.0875Y-3.85
X13.0875Y-4.6
X13.0875Y-5.35
X13.0875Y-6.1
X13.0875Y-6.85
X13.1625Y-4.4
X13.2125Y-5.45
X13.4125Y-4.3
X13.4625Y-5.35
X13.5875Y-4.7
X13.5875Y-5.45
X13.5875Y-6.2
X13.5875Y-6.95
X13.8375Y-4.6
X13.8375Y-5.35
X13.8375Y-6.1
X13.8375Y-6.85
T1
G00X3.1038Y-6.248
M15
G01X2.9267Y-6.248
M16
G05
G00X3.6462Y-3.502
M15
G01X3.8233Y-3.502
M16
G05
G00X3.6462Y-4.252
M15
G01X3.8233Y-4.252
M16
G05
G00X3.6462Y-5.002
M15
G01X3.8233Y-5.002
M16
G05
G00X3.6462Y-5.752
M15
G01X3.8233Y-5.752
M16
G05
G00X3.6462Y-6.502
M15
G01X3.8233Y-6.502
M16
G05
G00X4.3962Y-3.502
M15
G01X4.5733Y-3.502
M16
G05
G00X4.3962Y-4.252
M15
G01X4.5733Y-4.252
M16
G05
G00X4.3962Y-5.002
M15
G01X4.5733Y-5.002
M16
G05
G00X4.3962Y-5.752
M15
G01X4.5733Y-5.752
M16
G05
G00X4.3962Y-6.502
M15
G01X4.5733Y-6.502
M16
G05
G00X5.1462Y-3.502
M15
G01X5.3233Y-3.502
M16
G05
G00X5.1462Y-4.252
M15
G01X5.3233Y-4.252
M16
G05
G00X5.1462Y-5.002
M15
G01X5.3233Y-5.002
M16
G05
G00X5.1462Y-5.752
M15
G01X5.3233Y-5.752
M16
G05
G00X5.1462Y-6.502
M15
G01X5.3233Y-6.502
M16
G05
G00X5.8962Y-3.502
M15
G01X6.0733Y-3.502
M16
G05
G00X5.8962Y-4.252
M15
G01X6.0733Y-4.252
M16
G05
G00X5.8962Y-5.002
M15
G01X6.0733Y-5.002
M16
G05
G00X5.8962Y-5.752
M15
G01X6.0733Y-5.752
M16
G05
G00X5.8962Y-6.502
M15
G01X6.0733Y-6.502
M16
G05
G00X6.6462Y-3.502
M15
G01X6.8233Y-3.502
M16
G05
G00X6.6462Y-4.252
M15
G01X6.8233Y-4.252
M16
G05
G00X6.6462Y-5.002
M15
G01X6.8233Y-5.002
M16
G05
G00X6.6462Y-5.752
M15
G01X6.8233Y-5.752
M16
G05
G00X6.6462Y-6.502
M15
G01X6.8233Y-6.502
M16
G05
G00X7.0212Y-6.502
M15
G01X7.1983Y-6.502
M16
G05
G00X7.3962Y-3.502
M15
G01X7.5733Y-3.502
M16
G05
G00X7.3962Y-4.252
M15
G01X7.5733Y-4.252
M16
G05
G00X7.3962Y-5.002
M15
G01X7.5733Y-5.002
M16
G05
G00X7.3962Y-5.752
M15
G01X7.5733Y-5.752
M16
G05
G00X7.3962Y-6.502
M15
G01X7.5733Y-6.502
M16
G05
G00X8.1462Y-3.502
M15
G01X8.3233Y-3.502
M16
G05
G00X8.1462Y-4.252
M15
G01X8.3233Y-4.252
M16
G05
G00X8.1462Y-5.002
M15
G01X8.3233Y-5.002
M16
G05
G00X8.1462Y-5.752
M15
G01X8.3233Y-5.752
M16
G05
G00X8.1462Y-6.502
M15
G01X8.3233Y-6.502
M16
G05
G00X8.5212Y-6.502
M15
G01X8.6983Y-6.502
M16
G05
G00X8.8962Y-3.502
M15
G01X9.0733Y-3.502
M16
G05
G00X8.8962Y-4.252
M15
G01X9.0733Y-4.252
M16
G05
G00X8.8962Y-5.002
M15
G01X9.0733Y-5.002
M16
G05
G00X8.8962Y-5.752
M15
G01X9.0733Y-5.752
M16
G05
G00X8.8962Y-6.502
M15
G01X9.0733Y-6.502
M16
G05
G00X9.2712Y-6.502
M15
G01X9.4483Y-6.502
M16
G05
G00X9.6462Y-3.502
M15
G01X9.8233Y-3.502
M16
G05
G00X9.6462Y-4.252
M15
G01X9.8233Y-4.252
M16
G05
G00X9.6462Y-5.002
M15
G01X9.8233Y-5.002
M16
G05
G00X9.6462Y-5.752
M15
G01X9.8233Y-5.752
M16
G05
G00X9.6462Y-6.502
M15
G01X9.8233Y-6.502
M16
G05
G00X10.3962Y-3.502
M15
G01X10.5733Y-3.502
M16
G05
G00X10.3962Y-4.252
M15
G01X10.5733Y-4.252
M16
G05
G00X10.3962Y-5.002
M15
G01X10.5733Y-5.002
M16
G05
G00X10.3962Y-5.752
M15
G01X10.5733Y-5.752
M16
G05
G00X10.3962Y-6.502
M15
G01X10.5733Y-6.502
M16
G05
G00X11.1462Y-3.502
M15
G01X11.3233Y-3.502
M16
G05
G00X11.1462Y-4.252
M15
G01X11.3233Y-4.252
M16
G05
G00X11.1462Y-5.002
M15
G01X11.3233Y-5.002
M16
G05
G00X11.1462Y-5.752
M15
G01X11.3233Y-5.752
M16
G05
G00X11.1462Y-6.502
M15
G01X11.3233Y-6.502
M16
G05
G00X11.8962Y-3.502
M15
G01X12.0733Y-3.502
M16
G05
G00X11.8962Y-4.252
M15
G01X12.0733Y-4.252
M16
G05
G00X11.8962Y-5.002
M15
G01X12.0733Y-5.002
M16
G05
G00X11.8962Y-5.752
M15
G01X12.0733Y-5.752
M16
G05
G00X11.8962Y-6.502
M15
G01X12.0733Y-6.502
M16
G05
G00X12.2712Y-5.752
M15
G01X12.4483Y-5.752
M16
G05
G00X12.6462Y-3.502
M15
G01X12.8233Y-3.502
M16
G05
G00X12.6462Y-4.252
M15
G01X12.8233Y-4.252
M16
G05
G00X12.6462Y-5.002
M15
G01X12.8233Y-5.002
M16
G05
G00X12.6462Y-5.752
M15
G01X12.8233Y-5.752
M16
G05
G00X12.6462Y-6.502
M15
G01X12.8233Y-6.502
M16
G05
G00X12.8538Y-4.748
M15
G01X12.6767Y-4.748
M16
G05
G00X13.3962Y-3.502
M15
G01X13.5733Y-3.502
M16
G05
G00X13.3962Y-4.252
M15
G01X13.5733Y-4.252
M16
G05
G00X13.3962Y-5.002
M15
G01X13.5733Y-5.002
M16
G05
G00X13.3962Y-5.752
M15
G01X13.5733Y-5.752
M16
G05
G00X13.3962Y-6.502
M15
G01X13.5733Y-6.502
M16
G05
G00X13.7712Y-5.002
M15
G01X13.9483Y-5.002
M16
G05
G00X14.1462Y-4.252
M15
G01X14.3233Y-4.252
M16
G05
G00X14.1462Y-5.002
M15
G01X14.3233Y-5.002
M16
G05
G00X14.1462Y-5.752
M15
G01X14.3233Y-5.752
M16
G05
G00X14.1462Y-6.502
M15
G01X14.3233Y-6.502
M16
G05
T5
G00X13.6875Y-3.5295
M15
G01X13.7072Y-3.5295
M16
G05
G00X13.6875Y-3.9705
M15
G01X13.7072Y-3.9705
M16
G05
M30
