%TF.GenerationSoftware,KiCad,Pcbnew,7.0.10*%
%TF.CreationDate,2024-03-07T22:32:40+00:00*%
%TF.ProjectId,keyboard,6b657962-6f61-4726-942e-6b696361645f,rev?*%
%TF.SameCoordinates,Original*%
%TF.FileFunction,Soldermask,Bot*%
%TF.FilePolarity,Negative*%
%FSLAX46Y46*%
G04 Gerber Fmt 4.6, Leading zero omitted, Abs format (unit mm)*
G04 Created by KiCad (PCBNEW 7.0.10) date 2024-03-07 22:32:40*
%MOMM*%
%LPD*%
G01*
G04 APERTURE LIST*
G04 Aperture macros list*
%AMRoundRect*
0 Rectangle with rounded corners*
0 $1 Rounding radius*
0 $2 $3 $4 $5 $6 $7 $8 $9 X,Y pos of 4 corners*
0 Add a 4 corners polygon primitive as box body*
4,1,4,$2,$3,$4,$5,$6,$7,$8,$9,$2,$3,0*
0 Add four circle primitives for the rounded corners*
1,1,$1+$1,$2,$3*
1,1,$1+$1,$4,$5*
1,1,$1+$1,$6,$7*
1,1,$1+$1,$8,$9*
0 Add four rect primitives between the rounded corners*
20,1,$1+$1,$2,$3,$4,$5,0*
20,1,$1+$1,$4,$5,$6,$7,0*
20,1,$1+$1,$6,$7,$8,$9,0*
20,1,$1+$1,$8,$9,$2,$3,0*%
%AMFreePoly0*
4,1,17,1.800000,-0.700000,3.400000,-2.500000,4.900000,-2.500000,5.500000,-1.600000,6.700000,-1.600000,7.000000,-2.600000,7.900000,-3.700000,9.300000,-3.700000,9.300000,-4.800000,7.500000,-4.800000,6.800000,-3.500000,3.500000,-3.500000,1.700000,-1.800000,-0.900000,-1.800000,-0.900000,1.300000,1.800000,1.300000,1.800000,-0.700000,1.800000,-0.700000,$1*%
%AMFreePoly1*
4,1,54,0.217060,1.231010,0.427525,1.174616,0.625000,1.082532,0.803485,0.957556,0.957556,0.803485,1.000330,0.742395,1.374143,0.688995,1.385778,0.683287,1.398693,0.682211,1.412848,0.670008,1.429630,0.661776,1.435688,0.650318,1.445504,0.641857,1.449782,0.623665,1.458521,0.607141,1.456687,0.594309,1.459655,0.581695,1.359655,-0.618305,1.356587,-0.625615,1.357195,-0.633517,
1.344855,-0.653573,1.335741,-0.675295,1.328962,-0.679405,1.324810,-0.686156,1.303038,-0.695128,1.282897,-0.707344,1.274995,-0.706685,1.267669,-0.709705,1.009305,-0.729579,0.957556,-0.803485,0.803485,-0.957556,0.625000,-1.082532,0.427525,-1.174616,0.217060,-1.231010,0.000000,-1.250000,-0.217060,-1.231010,-0.427525,-1.174616,-0.625000,-1.082532,-0.803485,-0.957556,-0.957556,-0.803485,
-1.082532,-0.625000,-1.174616,-0.427525,-1.231010,-0.217060,-1.250000,0.000000,-1.231010,0.217060,-1.174616,0.427525,-1.082532,0.625000,-0.957556,0.803485,-0.803485,0.957556,-0.625000,1.082532,-0.427525,1.174616,-0.217060,1.231010,0.000000,1.250000,0.217060,1.231010,0.217060,1.231010,$1*%
G04 Aperture macros list end*
%ADD10C,1.701800*%
%ADD11C,1.700000*%
%ADD12C,3.000000*%
%ADD13C,5.250000*%
%ADD14FreePoly0,180.000000*%
%ADD15C,2.500000*%
%ADD16C,2.200000*%
%ADD17FreePoly1,90.000000*%
%ADD18RoundRect,0.480000X1.370000X0.720000X-1.370000X0.720000X-1.370000X-0.720000X1.370000X-0.720000X0*%
%ADD19O,6.200000X3.450000*%
%ADD20FreePoly0,0.000000*%
%ADD21FreePoly1,270.000000*%
%ADD22RoundRect,0.480000X-1.370000X-0.720000X1.370000X-0.720000X1.370000X0.720000X-1.370000X0.720000X0*%
%ADD23R,1.600000X1.600000*%
%ADD24O,1.600000X1.600000*%
%ADD25R,2.000000X2.000000*%
%ADD26C,2.000000*%
%ADD27R,3.000000X2.500000*%
G04 APERTURE END LIST*
D10*
%TO.C,SW82*%
X343637500Y-114300000D03*
D11*
X343217500Y-114300000D03*
D12*
X343137500Y-110500000D03*
X342537500Y-109600000D03*
D13*
X338137500Y-114300000D03*
D12*
X338137500Y-108400000D03*
X335537500Y-108550000D03*
D11*
X333057500Y-114300000D03*
D10*
X332637500Y-114300000D03*
D14*
X346737500Y-110500000D03*
D15*
X340677500Y-109220000D03*
D16*
X338137500Y-107800000D03*
X334337500Y-110500000D03*
D17*
X334327500Y-111760000D03*
D18*
X333087500Y-108500000D03*
D19*
X324137500Y-119625000D03*
%TD*%
D10*
%TO.C,SW81*%
X294537500Y-152400000D03*
D11*
X294957500Y-152400000D03*
D12*
X295037500Y-156200000D03*
X295637500Y-157100000D03*
D13*
X300037500Y-152400000D03*
D12*
X300037500Y-158300000D03*
X302637500Y-158150000D03*
D11*
X305117500Y-152400000D03*
D10*
X305537500Y-152400000D03*
D20*
X291437500Y-156200000D03*
D15*
X297497500Y-157480000D03*
D16*
X300037500Y-158900000D03*
X303837500Y-156200000D03*
D21*
X303847500Y-154940000D03*
D22*
X305087500Y-158200000D03*
D19*
X314037500Y-147075000D03*
%TD*%
D10*
%TO.C,SW80*%
X218337500Y-171450000D03*
D11*
X218757500Y-171450000D03*
D12*
X218837500Y-175250000D03*
X219437500Y-176150000D03*
D13*
X223837500Y-171450000D03*
D12*
X223837500Y-177350000D03*
X226437500Y-177200000D03*
D11*
X228917500Y-171450000D03*
D10*
X229337500Y-171450000D03*
D20*
X215237500Y-175250000D03*
D15*
X221297500Y-176530000D03*
D16*
X223837500Y-177950000D03*
X227637500Y-175250000D03*
D21*
X227647500Y-173990000D03*
D22*
X228887500Y-177250000D03*
D19*
X237837500Y-166125000D03*
%TD*%
D10*
%TO.C,SW79*%
X95987500Y-152400000D03*
D11*
X95567500Y-152400000D03*
D12*
X95487500Y-148600000D03*
X94887500Y-147700000D03*
D13*
X90487500Y-152400000D03*
D12*
X90487500Y-146500000D03*
X87887500Y-146650000D03*
D11*
X85407500Y-152400000D03*
D10*
X84987500Y-152400000D03*
D14*
X99087500Y-148600000D03*
D15*
X93027500Y-147320000D03*
D16*
X90487500Y-145900000D03*
X86687500Y-148600000D03*
D17*
X86677500Y-149860000D03*
D18*
X85437500Y-146600000D03*
D19*
X76487500Y-157725000D03*
%TD*%
D10*
%TO.C,SW78*%
X199287500Y-171450000D03*
D11*
X199707500Y-171450000D03*
D12*
X199787500Y-175250000D03*
X200387500Y-176150000D03*
D13*
X204787500Y-171450000D03*
D12*
X204787500Y-177350000D03*
X207387500Y-177200000D03*
D11*
X209867500Y-171450000D03*
D10*
X210287500Y-171450000D03*
D20*
X196187500Y-175250000D03*
D15*
X202247500Y-176530000D03*
D16*
X204787500Y-177950000D03*
X208587500Y-175250000D03*
D21*
X208597500Y-173990000D03*
D22*
X209837500Y-177250000D03*
D19*
X218787500Y-166125000D03*
%TD*%
D10*
%TO.C,SW77*%
X332637500Y-133350000D03*
D11*
X333057500Y-133350000D03*
D12*
X333137500Y-137150000D03*
X333737500Y-138050000D03*
D13*
X338137500Y-133350000D03*
D12*
X338137500Y-139250000D03*
X340737500Y-139100000D03*
D11*
X343217500Y-133350000D03*
D10*
X343637500Y-133350000D03*
D20*
X329537500Y-137150000D03*
D15*
X335597500Y-138430000D03*
D16*
X338137500Y-139850000D03*
X341937500Y-137150000D03*
D21*
X341947500Y-135890000D03*
D22*
X343187500Y-139150000D03*
D19*
X352137500Y-128025000D03*
%TD*%
D10*
%TO.C,SW75*%
X161187500Y-171450000D03*
D11*
X161607500Y-171450000D03*
D12*
X161687500Y-175250000D03*
X162287500Y-176150000D03*
D13*
X166687500Y-171450000D03*
D12*
X166687500Y-177350000D03*
X169287500Y-177200000D03*
D11*
X171767500Y-171450000D03*
D10*
X172187500Y-171450000D03*
D20*
X158087500Y-175250000D03*
D15*
X164147500Y-176530000D03*
D16*
X166687500Y-177950000D03*
X170487500Y-175250000D03*
D21*
X170497500Y-173990000D03*
D22*
X171737500Y-177250000D03*
D19*
X180687500Y-166125000D03*
%TD*%
D10*
%TO.C,SW74*%
X342162500Y-171450000D03*
D11*
X342582500Y-171450000D03*
D12*
X342662500Y-175250000D03*
X343262500Y-176150000D03*
D13*
X347662500Y-171450000D03*
D12*
X347662500Y-177350000D03*
X350262500Y-177200000D03*
D11*
X352742500Y-171450000D03*
D10*
X353162500Y-171450000D03*
D20*
X339062500Y-175250000D03*
D15*
X345122500Y-176530000D03*
D16*
X347662500Y-177950000D03*
X351462500Y-175250000D03*
D21*
X351472500Y-173990000D03*
D22*
X352712500Y-177250000D03*
D19*
X361662500Y-166125000D03*
%TD*%
D10*
%TO.C,SW73*%
X323112500Y-171450000D03*
D11*
X323532500Y-171450000D03*
D12*
X323612500Y-175250000D03*
X324212500Y-176150000D03*
D13*
X328612500Y-171450000D03*
D12*
X328612500Y-177350000D03*
X331212500Y-177200000D03*
D11*
X333692500Y-171450000D03*
D10*
X334112500Y-171450000D03*
D20*
X320012500Y-175250000D03*
D15*
X326072500Y-176530000D03*
D16*
X328612500Y-177950000D03*
X332412500Y-175250000D03*
D21*
X332422500Y-173990000D03*
D22*
X333662500Y-177250000D03*
D19*
X342612500Y-166125000D03*
%TD*%
D10*
%TO.C,SW72*%
X304062500Y-171450000D03*
D11*
X304482500Y-171450000D03*
D12*
X304562500Y-175250000D03*
X305162500Y-176150000D03*
D13*
X309562500Y-171450000D03*
D12*
X309562500Y-177350000D03*
X312162500Y-177200000D03*
D11*
X314642500Y-171450000D03*
D10*
X315062500Y-171450000D03*
D20*
X300962500Y-175250000D03*
D15*
X307022500Y-176530000D03*
D16*
X309562500Y-177950000D03*
X313362500Y-175250000D03*
D21*
X313372500Y-173990000D03*
D22*
X314612500Y-177250000D03*
D19*
X323562500Y-166125000D03*
%TD*%
D10*
%TO.C,SW71*%
X285012500Y-171450000D03*
D11*
X285432500Y-171450000D03*
D12*
X285512500Y-175250000D03*
X286112500Y-176150000D03*
D13*
X290512500Y-171450000D03*
D12*
X290512500Y-177350000D03*
X293112500Y-177200000D03*
D11*
X295592500Y-171450000D03*
D10*
X296012500Y-171450000D03*
D20*
X281912500Y-175250000D03*
D15*
X287972500Y-176530000D03*
D16*
X290512500Y-177950000D03*
X294312500Y-175250000D03*
D21*
X294322500Y-173990000D03*
D22*
X295562500Y-177250000D03*
D19*
X304512500Y-166125000D03*
%TD*%
D10*
%TO.C,SW70*%
X265962500Y-171450000D03*
D11*
X266382500Y-171450000D03*
D12*
X266462500Y-175250000D03*
X267062500Y-176150000D03*
D13*
X271462500Y-171450000D03*
D12*
X271462500Y-177350000D03*
X274062500Y-177200000D03*
D11*
X276542500Y-171450000D03*
D10*
X276962500Y-171450000D03*
D20*
X262862500Y-175250000D03*
D15*
X268922500Y-176530000D03*
D16*
X271462500Y-177950000D03*
X275262500Y-175250000D03*
D21*
X275272500Y-173990000D03*
D22*
X276512500Y-177250000D03*
D19*
X285462500Y-166125000D03*
%TD*%
D10*
%TO.C,SW69*%
X246912500Y-171450000D03*
D11*
X247332500Y-171450000D03*
D12*
X247412500Y-175250000D03*
X248012500Y-176150000D03*
D13*
X252412500Y-171450000D03*
D12*
X252412500Y-177350000D03*
X255012500Y-177200000D03*
D11*
X257492500Y-171450000D03*
D10*
X257912500Y-171450000D03*
D20*
X243812500Y-175250000D03*
D15*
X249872500Y-176530000D03*
D16*
X252412500Y-177950000D03*
X256212500Y-175250000D03*
D21*
X256222500Y-173990000D03*
D22*
X257462500Y-177250000D03*
D19*
X266412500Y-166125000D03*
%TD*%
D10*
%TO.C,SW68*%
X227862500Y-171450000D03*
D11*
X228282500Y-171450000D03*
D12*
X228362500Y-175250000D03*
X228962500Y-176150000D03*
D13*
X233362500Y-171450000D03*
D12*
X233362500Y-177350000D03*
X235962500Y-177200000D03*
D11*
X238442500Y-171450000D03*
D10*
X238862500Y-171450000D03*
D20*
X224762500Y-175250000D03*
D15*
X230822500Y-176530000D03*
D16*
X233362500Y-177950000D03*
X237162500Y-175250000D03*
D21*
X237172500Y-173990000D03*
D22*
X238412500Y-177250000D03*
D19*
X247362500Y-166125000D03*
%TD*%
D10*
%TO.C,SW67*%
X208812500Y-171450000D03*
D11*
X209232500Y-171450000D03*
D12*
X209312500Y-175250000D03*
X209912500Y-176150000D03*
D13*
X214312500Y-171450000D03*
D12*
X214312500Y-177350000D03*
X216912500Y-177200000D03*
D11*
X219392500Y-171450000D03*
D10*
X219812500Y-171450000D03*
D20*
X205712500Y-175250000D03*
D15*
X211772500Y-176530000D03*
D16*
X214312500Y-177950000D03*
X218112500Y-175250000D03*
D21*
X218122500Y-173990000D03*
D22*
X219362500Y-177250000D03*
D19*
X228312500Y-166125000D03*
%TD*%
D10*
%TO.C,SW66*%
X189762500Y-171450000D03*
D11*
X190182500Y-171450000D03*
D12*
X190262500Y-175250000D03*
X190862500Y-176150000D03*
D13*
X195262500Y-171450000D03*
D12*
X195262500Y-177350000D03*
X197862500Y-177200000D03*
D11*
X200342500Y-171450000D03*
D10*
X200762500Y-171450000D03*
D20*
X186662500Y-175250000D03*
D15*
X192722500Y-176530000D03*
D16*
X195262500Y-177950000D03*
X199062500Y-175250000D03*
D21*
X199072500Y-173990000D03*
D22*
X200312500Y-177250000D03*
D19*
X209262500Y-166125000D03*
%TD*%
D10*
%TO.C,SW65*%
X170712500Y-171450000D03*
D11*
X171132500Y-171450000D03*
D12*
X171212500Y-175250000D03*
X171812500Y-176150000D03*
D13*
X176212500Y-171450000D03*
D12*
X176212500Y-177350000D03*
X178812500Y-177200000D03*
D11*
X181292500Y-171450000D03*
D10*
X181712500Y-171450000D03*
D20*
X167612500Y-175250000D03*
D15*
X173672500Y-176530000D03*
D16*
X176212500Y-177950000D03*
X180012500Y-175250000D03*
D21*
X180022500Y-173990000D03*
D22*
X181262500Y-177250000D03*
D19*
X190212500Y-166125000D03*
%TD*%
D10*
%TO.C,SW64*%
X151662500Y-171450000D03*
D11*
X152082500Y-171450000D03*
D12*
X152162500Y-175250000D03*
X152762500Y-176150000D03*
D13*
X157162500Y-171450000D03*
D12*
X157162500Y-177350000D03*
X159762500Y-177200000D03*
D11*
X162242500Y-171450000D03*
D10*
X162662500Y-171450000D03*
D20*
X148562500Y-175250000D03*
D15*
X154622500Y-176530000D03*
D16*
X157162500Y-177950000D03*
X160962500Y-175250000D03*
D21*
X160972500Y-173990000D03*
D22*
X162212500Y-177250000D03*
D19*
X171162500Y-166125000D03*
%TD*%
D10*
%TO.C,SW63*%
X132612500Y-171450000D03*
D11*
X133032500Y-171450000D03*
D12*
X133112500Y-175250000D03*
X133712500Y-176150000D03*
D13*
X138112500Y-171450000D03*
D12*
X138112500Y-177350000D03*
X140712500Y-177200000D03*
D11*
X143192500Y-171450000D03*
D10*
X143612500Y-171450000D03*
D20*
X129512500Y-175250000D03*
D15*
X135572500Y-176530000D03*
D16*
X138112500Y-177950000D03*
X141912500Y-175250000D03*
D21*
X141922500Y-173990000D03*
D22*
X143162500Y-177250000D03*
D19*
X152112500Y-166125000D03*
%TD*%
D10*
%TO.C,SW62*%
X113562500Y-171450000D03*
D11*
X113982500Y-171450000D03*
D12*
X114062500Y-175250000D03*
X114662500Y-176150000D03*
D13*
X119062500Y-171450000D03*
D12*
X119062500Y-177350000D03*
X121662500Y-177200000D03*
D11*
X124142500Y-171450000D03*
D10*
X124562500Y-171450000D03*
D20*
X110462500Y-175250000D03*
D15*
X116522500Y-176530000D03*
D16*
X119062500Y-177950000D03*
X122862500Y-175250000D03*
D21*
X122872500Y-173990000D03*
D22*
X124112500Y-177250000D03*
D19*
X133062500Y-166125000D03*
%TD*%
D10*
%TO.C,SW61*%
X94512500Y-171450000D03*
D11*
X94932500Y-171450000D03*
D12*
X95012500Y-175250000D03*
X95612500Y-176150000D03*
D13*
X100012500Y-171450000D03*
D12*
X100012500Y-177350000D03*
X102612500Y-177200000D03*
D11*
X105092500Y-171450000D03*
D10*
X105512500Y-171450000D03*
D20*
X91412500Y-175250000D03*
D15*
X97472500Y-176530000D03*
D16*
X100012500Y-177950000D03*
X103812500Y-175250000D03*
D21*
X103822500Y-173990000D03*
D22*
X105062500Y-177250000D03*
D19*
X114012500Y-166125000D03*
%TD*%
D10*
%TO.C,SW60*%
X75462500Y-171450000D03*
D11*
X75882500Y-171450000D03*
D12*
X75962500Y-175250000D03*
X76562500Y-176150000D03*
D13*
X80962500Y-171450000D03*
D12*
X80962500Y-177350000D03*
X83562500Y-177200000D03*
D11*
X86042500Y-171450000D03*
D10*
X86462500Y-171450000D03*
D20*
X72362500Y-175250000D03*
D15*
X78422500Y-176530000D03*
D16*
X80962500Y-177950000D03*
X84762500Y-175250000D03*
D21*
X84772500Y-173990000D03*
D22*
X86012500Y-177250000D03*
D19*
X94962500Y-166125000D03*
%TD*%
D10*
%TO.C,SW59*%
X342162500Y-152400000D03*
D11*
X342582500Y-152400000D03*
D12*
X342662500Y-156200000D03*
X343262500Y-157100000D03*
D13*
X347662500Y-152400000D03*
D12*
X347662500Y-158300000D03*
X350262500Y-158150000D03*
D11*
X352742500Y-152400000D03*
D10*
X353162500Y-152400000D03*
D20*
X339062500Y-156200000D03*
D15*
X345122500Y-157480000D03*
D16*
X347662500Y-158900000D03*
X351462500Y-156200000D03*
D21*
X351472500Y-154940000D03*
D22*
X352712500Y-158200000D03*
D19*
X361662500Y-147075000D03*
%TD*%
D10*
%TO.C,SW58*%
X323112500Y-152400000D03*
D11*
X323532500Y-152400000D03*
D12*
X323612500Y-156200000D03*
X324212500Y-157100000D03*
D13*
X328612500Y-152400000D03*
D12*
X328612500Y-158300000D03*
X331212500Y-158150000D03*
D11*
X333692500Y-152400000D03*
D10*
X334112500Y-152400000D03*
D20*
X320012500Y-156200000D03*
D15*
X326072500Y-157480000D03*
D16*
X328612500Y-158900000D03*
X332412500Y-156200000D03*
D21*
X332422500Y-154940000D03*
D22*
X333662500Y-158200000D03*
D19*
X342612500Y-147075000D03*
%TD*%
D10*
%TO.C,SW57*%
X304062500Y-152400000D03*
D11*
X304482500Y-152400000D03*
D12*
X304562500Y-156200000D03*
X305162500Y-157100000D03*
D13*
X309562500Y-152400000D03*
D12*
X309562500Y-158300000D03*
X312162500Y-158150000D03*
D11*
X314642500Y-152400000D03*
D10*
X315062500Y-152400000D03*
D20*
X300962500Y-156200000D03*
D15*
X307022500Y-157480000D03*
D16*
X309562500Y-158900000D03*
X313362500Y-156200000D03*
D21*
X313372500Y-154940000D03*
D22*
X314612500Y-158200000D03*
D19*
X323562500Y-147075000D03*
%TD*%
D10*
%TO.C,SW56*%
X285012500Y-152400000D03*
D11*
X285432500Y-152400000D03*
D12*
X285512500Y-156200000D03*
X286112500Y-157100000D03*
D13*
X290512500Y-152400000D03*
D12*
X290512500Y-158300000D03*
X293112500Y-158150000D03*
D11*
X295592500Y-152400000D03*
D10*
X296012500Y-152400000D03*
D20*
X281912500Y-156200000D03*
D15*
X287972500Y-157480000D03*
D16*
X290512500Y-158900000D03*
X294312500Y-156200000D03*
D21*
X294322500Y-154940000D03*
D22*
X295562500Y-158200000D03*
D19*
X304512500Y-147075000D03*
%TD*%
D10*
%TO.C,SW55*%
X265962500Y-152400000D03*
D11*
X266382500Y-152400000D03*
D12*
X266462500Y-156200000D03*
X267062500Y-157100000D03*
D13*
X271462500Y-152400000D03*
D12*
X271462500Y-158300000D03*
X274062500Y-158150000D03*
D11*
X276542500Y-152400000D03*
D10*
X276962500Y-152400000D03*
D20*
X262862500Y-156200000D03*
D15*
X268922500Y-157480000D03*
D16*
X271462500Y-158900000D03*
X275262500Y-156200000D03*
D21*
X275272500Y-154940000D03*
D22*
X276512500Y-158200000D03*
D19*
X285462500Y-147075000D03*
%TD*%
D10*
%TO.C,SW54*%
X246912500Y-152400000D03*
D11*
X247332500Y-152400000D03*
D12*
X247412500Y-156200000D03*
X248012500Y-157100000D03*
D13*
X252412500Y-152400000D03*
D12*
X252412500Y-158300000D03*
X255012500Y-158150000D03*
D11*
X257492500Y-152400000D03*
D10*
X257912500Y-152400000D03*
D20*
X243812500Y-156200000D03*
D15*
X249872500Y-157480000D03*
D16*
X252412500Y-158900000D03*
X256212500Y-156200000D03*
D21*
X256222500Y-154940000D03*
D22*
X257462500Y-158200000D03*
D19*
X266412500Y-147075000D03*
%TD*%
D10*
%TO.C,SW53*%
X227862500Y-152400000D03*
D11*
X228282500Y-152400000D03*
D12*
X228362500Y-156200000D03*
X228962500Y-157100000D03*
D13*
X233362500Y-152400000D03*
D12*
X233362500Y-158300000D03*
X235962500Y-158150000D03*
D11*
X238442500Y-152400000D03*
D10*
X238862500Y-152400000D03*
D20*
X224762500Y-156200000D03*
D15*
X230822500Y-157480000D03*
D16*
X233362500Y-158900000D03*
X237162500Y-156200000D03*
D21*
X237172500Y-154940000D03*
D22*
X238412500Y-158200000D03*
D19*
X247362500Y-147075000D03*
%TD*%
D10*
%TO.C,SW52*%
X208812500Y-152400000D03*
D11*
X209232500Y-152400000D03*
D12*
X209312500Y-156200000D03*
X209912500Y-157100000D03*
D13*
X214312500Y-152400000D03*
D12*
X214312500Y-158300000D03*
X216912500Y-158150000D03*
D11*
X219392500Y-152400000D03*
D10*
X219812500Y-152400000D03*
D20*
X205712500Y-156200000D03*
D15*
X211772500Y-157480000D03*
D16*
X214312500Y-158900000D03*
X218112500Y-156200000D03*
D21*
X218122500Y-154940000D03*
D22*
X219362500Y-158200000D03*
D19*
X228312500Y-147075000D03*
%TD*%
D10*
%TO.C,SW51*%
X189762500Y-152400000D03*
D11*
X190182500Y-152400000D03*
D12*
X190262500Y-156200000D03*
X190862500Y-157100000D03*
D13*
X195262500Y-152400000D03*
D12*
X195262500Y-158300000D03*
X197862500Y-158150000D03*
D11*
X200342500Y-152400000D03*
D10*
X200762500Y-152400000D03*
D20*
X186662500Y-156200000D03*
D15*
X192722500Y-157480000D03*
D16*
X195262500Y-158900000D03*
X199062500Y-156200000D03*
D21*
X199072500Y-154940000D03*
D22*
X200312500Y-158200000D03*
D19*
X209262500Y-147075000D03*
%TD*%
D10*
%TO.C,SW50*%
X170712500Y-152400000D03*
D11*
X171132500Y-152400000D03*
D12*
X171212500Y-156200000D03*
X171812500Y-157100000D03*
D13*
X176212500Y-152400000D03*
D12*
X176212500Y-158300000D03*
X178812500Y-158150000D03*
D11*
X181292500Y-152400000D03*
D10*
X181712500Y-152400000D03*
D20*
X167612500Y-156200000D03*
D15*
X173672500Y-157480000D03*
D16*
X176212500Y-158900000D03*
X180012500Y-156200000D03*
D21*
X180022500Y-154940000D03*
D22*
X181262500Y-158200000D03*
D19*
X190212500Y-147075000D03*
%TD*%
D10*
%TO.C,SW49*%
X151662500Y-152400000D03*
D11*
X152082500Y-152400000D03*
D12*
X152162500Y-156200000D03*
X152762500Y-157100000D03*
D13*
X157162500Y-152400000D03*
D12*
X157162500Y-158300000D03*
X159762500Y-158150000D03*
D11*
X162242500Y-152400000D03*
D10*
X162662500Y-152400000D03*
D20*
X148562500Y-156200000D03*
D15*
X154622500Y-157480000D03*
D16*
X157162500Y-158900000D03*
X160962500Y-156200000D03*
D21*
X160972500Y-154940000D03*
D22*
X162212500Y-158200000D03*
D19*
X171162500Y-147075000D03*
%TD*%
D10*
%TO.C,SW48*%
X132612500Y-152400000D03*
D11*
X133032500Y-152400000D03*
D12*
X133112500Y-156200000D03*
X133712500Y-157100000D03*
D13*
X138112500Y-152400000D03*
D12*
X138112500Y-158300000D03*
X140712500Y-158150000D03*
D11*
X143192500Y-152400000D03*
D10*
X143612500Y-152400000D03*
D20*
X129512500Y-156200000D03*
D15*
X135572500Y-157480000D03*
D16*
X138112500Y-158900000D03*
X141912500Y-156200000D03*
D21*
X141922500Y-154940000D03*
D22*
X143162500Y-158200000D03*
D19*
X152112500Y-147075000D03*
%TD*%
D10*
%TO.C,SW47*%
X113562500Y-152400000D03*
D11*
X113982500Y-152400000D03*
D12*
X114062500Y-156200000D03*
X114662500Y-157100000D03*
D13*
X119062500Y-152400000D03*
D12*
X119062500Y-158300000D03*
X121662500Y-158150000D03*
D11*
X124142500Y-152400000D03*
D10*
X124562500Y-152400000D03*
D20*
X110462500Y-156200000D03*
D15*
X116522500Y-157480000D03*
D16*
X119062500Y-158900000D03*
X122862500Y-156200000D03*
D21*
X122872500Y-154940000D03*
D22*
X124112500Y-158200000D03*
D19*
X133062500Y-147075000D03*
%TD*%
D10*
%TO.C,SW46*%
X94512500Y-152400000D03*
D11*
X94932500Y-152400000D03*
D12*
X95012500Y-156200000D03*
X95612500Y-157100000D03*
D13*
X100012500Y-152400000D03*
D12*
X100012500Y-158300000D03*
X102612500Y-158150000D03*
D11*
X105092500Y-152400000D03*
D10*
X105512500Y-152400000D03*
D20*
X91412500Y-156200000D03*
D15*
X97472500Y-157480000D03*
D16*
X100012500Y-158900000D03*
X103812500Y-156200000D03*
D21*
X103822500Y-154940000D03*
D22*
X105062500Y-158200000D03*
D19*
X114012500Y-147075000D03*
%TD*%
D10*
%TO.C,SW45*%
X75462500Y-152400000D03*
D11*
X75882500Y-152400000D03*
D12*
X75962500Y-156200000D03*
X76562500Y-157100000D03*
D13*
X80962500Y-152400000D03*
D12*
X80962500Y-158300000D03*
X83562500Y-158150000D03*
D11*
X86042500Y-152400000D03*
D10*
X86462500Y-152400000D03*
D20*
X72362500Y-156200000D03*
D15*
X78422500Y-157480000D03*
D16*
X80962500Y-158900000D03*
X84762500Y-156200000D03*
D21*
X84772500Y-154940000D03*
D22*
X86012500Y-158200000D03*
D19*
X94962500Y-147075000D03*
%TD*%
D10*
%TO.C,SW44*%
X342162500Y-133350000D03*
D11*
X342582500Y-133350000D03*
D12*
X342662500Y-137150000D03*
X343262500Y-138050000D03*
D13*
X347662500Y-133350000D03*
D12*
X347662500Y-139250000D03*
X350262500Y-139100000D03*
D11*
X352742500Y-133350000D03*
D10*
X353162500Y-133350000D03*
D20*
X339062500Y-137150000D03*
D15*
X345122500Y-138430000D03*
D16*
X347662500Y-139850000D03*
X351462500Y-137150000D03*
D21*
X351472500Y-135890000D03*
D22*
X352712500Y-139150000D03*
D19*
X361662500Y-128025000D03*
%TD*%
D10*
%TO.C,SW43*%
X323112500Y-133350000D03*
D11*
X323532500Y-133350000D03*
D12*
X323612500Y-137150000D03*
X324212500Y-138050000D03*
D13*
X328612500Y-133350000D03*
D12*
X328612500Y-139250000D03*
X331212500Y-139100000D03*
D11*
X333692500Y-133350000D03*
D10*
X334112500Y-133350000D03*
D20*
X320012500Y-137150000D03*
D15*
X326072500Y-138430000D03*
D16*
X328612500Y-139850000D03*
X332412500Y-137150000D03*
D21*
X332422500Y-135890000D03*
D22*
X333662500Y-139150000D03*
D19*
X342612500Y-128025000D03*
%TD*%
D10*
%TO.C,SW42*%
X304062500Y-133350000D03*
D11*
X304482500Y-133350000D03*
D12*
X304562500Y-137150000D03*
X305162500Y-138050000D03*
D13*
X309562500Y-133350000D03*
D12*
X309562500Y-139250000D03*
X312162500Y-139100000D03*
D11*
X314642500Y-133350000D03*
D10*
X315062500Y-133350000D03*
D20*
X300962500Y-137150000D03*
D15*
X307022500Y-138430000D03*
D16*
X309562500Y-139850000D03*
X313362500Y-137150000D03*
D21*
X313372500Y-135890000D03*
D22*
X314612500Y-139150000D03*
D19*
X323562500Y-128025000D03*
%TD*%
D10*
%TO.C,SW41*%
X285012500Y-133350000D03*
D11*
X285432500Y-133350000D03*
D12*
X285512500Y-137150000D03*
X286112500Y-138050000D03*
D13*
X290512500Y-133350000D03*
D12*
X290512500Y-139250000D03*
X293112500Y-139100000D03*
D11*
X295592500Y-133350000D03*
D10*
X296012500Y-133350000D03*
D20*
X281912500Y-137150000D03*
D15*
X287972500Y-138430000D03*
D16*
X290512500Y-139850000D03*
X294312500Y-137150000D03*
D21*
X294322500Y-135890000D03*
D22*
X295562500Y-139150000D03*
D19*
X304512500Y-128025000D03*
%TD*%
D10*
%TO.C,SW40*%
X265962500Y-133350000D03*
D11*
X266382500Y-133350000D03*
D12*
X266462500Y-137150000D03*
X267062500Y-138050000D03*
D13*
X271462500Y-133350000D03*
D12*
X271462500Y-139250000D03*
X274062500Y-139100000D03*
D11*
X276542500Y-133350000D03*
D10*
X276962500Y-133350000D03*
D20*
X262862500Y-137150000D03*
D15*
X268922500Y-138430000D03*
D16*
X271462500Y-139850000D03*
X275262500Y-137150000D03*
D21*
X275272500Y-135890000D03*
D22*
X276512500Y-139150000D03*
D19*
X285462500Y-128025000D03*
%TD*%
D10*
%TO.C,SW39*%
X246912500Y-133350000D03*
D11*
X247332500Y-133350000D03*
D12*
X247412500Y-137150000D03*
X248012500Y-138050000D03*
D13*
X252412500Y-133350000D03*
D12*
X252412500Y-139250000D03*
X255012500Y-139100000D03*
D11*
X257492500Y-133350000D03*
D10*
X257912500Y-133350000D03*
D20*
X243812500Y-137150000D03*
D15*
X249872500Y-138430000D03*
D16*
X252412500Y-139850000D03*
X256212500Y-137150000D03*
D21*
X256222500Y-135890000D03*
D22*
X257462500Y-139150000D03*
D19*
X266412500Y-128025000D03*
%TD*%
D10*
%TO.C,SW38*%
X227862500Y-133350000D03*
D11*
X228282500Y-133350000D03*
D12*
X228362500Y-137150000D03*
X228962500Y-138050000D03*
D13*
X233362500Y-133350000D03*
D12*
X233362500Y-139250000D03*
X235962500Y-139100000D03*
D11*
X238442500Y-133350000D03*
D10*
X238862500Y-133350000D03*
D20*
X224762500Y-137150000D03*
D15*
X230822500Y-138430000D03*
D16*
X233362500Y-139850000D03*
X237162500Y-137150000D03*
D21*
X237172500Y-135890000D03*
D22*
X238412500Y-139150000D03*
D19*
X247362500Y-128025000D03*
%TD*%
D10*
%TO.C,SW37*%
X208812500Y-133350000D03*
D11*
X209232500Y-133350000D03*
D12*
X209312500Y-137150000D03*
X209912500Y-138050000D03*
D13*
X214312500Y-133350000D03*
D12*
X214312500Y-139250000D03*
X216912500Y-139100000D03*
D11*
X219392500Y-133350000D03*
D10*
X219812500Y-133350000D03*
D20*
X205712500Y-137150000D03*
D15*
X211772500Y-138430000D03*
D16*
X214312500Y-139850000D03*
X218112500Y-137150000D03*
D21*
X218122500Y-135890000D03*
D22*
X219362500Y-139150000D03*
D19*
X228312500Y-128025000D03*
%TD*%
D10*
%TO.C,SW36*%
X189762500Y-133350000D03*
D11*
X190182500Y-133350000D03*
D12*
X190262500Y-137150000D03*
X190862500Y-138050000D03*
D13*
X195262500Y-133350000D03*
D12*
X195262500Y-139250000D03*
X197862500Y-139100000D03*
D11*
X200342500Y-133350000D03*
D10*
X200762500Y-133350000D03*
D20*
X186662500Y-137150000D03*
D15*
X192722500Y-138430000D03*
D16*
X195262500Y-139850000D03*
X199062500Y-137150000D03*
D21*
X199072500Y-135890000D03*
D22*
X200312500Y-139150000D03*
D19*
X209262500Y-128025000D03*
%TD*%
D10*
%TO.C,SW35*%
X170712500Y-133350000D03*
D11*
X171132500Y-133350000D03*
D12*
X171212500Y-137150000D03*
X171812500Y-138050000D03*
D13*
X176212500Y-133350000D03*
D12*
X176212500Y-139250000D03*
X178812500Y-139100000D03*
D11*
X181292500Y-133350000D03*
D10*
X181712500Y-133350000D03*
D20*
X167612500Y-137150000D03*
D15*
X173672500Y-138430000D03*
D16*
X176212500Y-139850000D03*
X180012500Y-137150000D03*
D21*
X180022500Y-135890000D03*
D22*
X181262500Y-139150000D03*
D19*
X190212500Y-128025000D03*
%TD*%
D10*
%TO.C,SW34*%
X151662500Y-133350000D03*
D11*
X152082500Y-133350000D03*
D12*
X152162500Y-137150000D03*
X152762500Y-138050000D03*
D13*
X157162500Y-133350000D03*
D12*
X157162500Y-139250000D03*
X159762500Y-139100000D03*
D11*
X162242500Y-133350000D03*
D10*
X162662500Y-133350000D03*
D20*
X148562500Y-137150000D03*
D15*
X154622500Y-138430000D03*
D16*
X157162500Y-139850000D03*
X160962500Y-137150000D03*
D21*
X160972500Y-135890000D03*
D22*
X162212500Y-139150000D03*
D19*
X171162500Y-128025000D03*
%TD*%
D10*
%TO.C,SW33*%
X132612500Y-133350000D03*
D11*
X133032500Y-133350000D03*
D12*
X133112500Y-137150000D03*
X133712500Y-138050000D03*
D13*
X138112500Y-133350000D03*
D12*
X138112500Y-139250000D03*
X140712500Y-139100000D03*
D11*
X143192500Y-133350000D03*
D10*
X143612500Y-133350000D03*
D20*
X129512500Y-137150000D03*
D15*
X135572500Y-138430000D03*
D16*
X138112500Y-139850000D03*
X141912500Y-137150000D03*
D21*
X141922500Y-135890000D03*
D22*
X143162500Y-139150000D03*
D19*
X152112500Y-128025000D03*
%TD*%
D10*
%TO.C,SW32*%
X113562500Y-133350000D03*
D11*
X113982500Y-133350000D03*
D12*
X114062500Y-137150000D03*
X114662500Y-138050000D03*
D13*
X119062500Y-133350000D03*
D12*
X119062500Y-139250000D03*
X121662500Y-139100000D03*
D11*
X124142500Y-133350000D03*
D10*
X124562500Y-133350000D03*
D20*
X110462500Y-137150000D03*
D15*
X116522500Y-138430000D03*
D16*
X119062500Y-139850000D03*
X122862500Y-137150000D03*
D21*
X122872500Y-135890000D03*
D22*
X124112500Y-139150000D03*
D19*
X133062500Y-128025000D03*
%TD*%
D10*
%TO.C,SW31*%
X94512500Y-133350000D03*
D11*
X94932500Y-133350000D03*
D12*
X95012500Y-137150000D03*
X95612500Y-138050000D03*
D13*
X100012500Y-133350000D03*
D12*
X100012500Y-139250000D03*
X102612500Y-139100000D03*
D11*
X105092500Y-133350000D03*
D10*
X105512500Y-133350000D03*
D20*
X91412500Y-137150000D03*
D15*
X97472500Y-138430000D03*
D16*
X100012500Y-139850000D03*
X103812500Y-137150000D03*
D21*
X103822500Y-135890000D03*
D22*
X105062500Y-139150000D03*
D19*
X114012500Y-128025000D03*
%TD*%
D10*
%TO.C,SW30*%
X75462500Y-133350000D03*
D11*
X75882500Y-133350000D03*
D12*
X75962500Y-137150000D03*
X76562500Y-138050000D03*
D13*
X80962500Y-133350000D03*
D12*
X80962500Y-139250000D03*
X83562500Y-139100000D03*
D11*
X86042500Y-133350000D03*
D10*
X86462500Y-133350000D03*
D20*
X72362500Y-137150000D03*
D15*
X78422500Y-138430000D03*
D16*
X80962500Y-139850000D03*
X84762500Y-137150000D03*
D21*
X84772500Y-135890000D03*
D22*
X86012500Y-139150000D03*
D19*
X94962500Y-128025000D03*
%TD*%
D10*
%TO.C,SW29*%
X342162500Y-114300000D03*
D11*
X342582500Y-114300000D03*
D12*
X342662500Y-118100000D03*
X343262500Y-119000000D03*
D13*
X347662500Y-114300000D03*
D12*
X347662500Y-120200000D03*
X350262500Y-120050000D03*
D11*
X352742500Y-114300000D03*
D10*
X353162500Y-114300000D03*
D20*
X339062500Y-118100000D03*
D15*
X345122500Y-119380000D03*
D16*
X347662500Y-120800000D03*
X351462500Y-118100000D03*
D21*
X351472500Y-116840000D03*
D22*
X352712500Y-120100000D03*
D19*
X361662500Y-108975000D03*
%TD*%
D10*
%TO.C,SW28*%
X323112500Y-114300000D03*
D11*
X323532500Y-114300000D03*
D12*
X323612500Y-118100000D03*
X324212500Y-119000000D03*
D13*
X328612500Y-114300000D03*
D12*
X328612500Y-120200000D03*
X331212500Y-120050000D03*
D11*
X333692500Y-114300000D03*
D10*
X334112500Y-114300000D03*
D20*
X320012500Y-118100000D03*
D15*
X326072500Y-119380000D03*
D16*
X328612500Y-120800000D03*
X332412500Y-118100000D03*
D21*
X332422500Y-116840000D03*
D22*
X333662500Y-120100000D03*
D19*
X342612500Y-108975000D03*
%TD*%
D10*
%TO.C,SW27*%
X304062500Y-114300000D03*
D11*
X304482500Y-114300000D03*
D12*
X304562500Y-118100000D03*
X305162500Y-119000000D03*
D13*
X309562500Y-114300000D03*
D12*
X309562500Y-120200000D03*
X312162500Y-120050000D03*
D11*
X314642500Y-114300000D03*
D10*
X315062500Y-114300000D03*
D20*
X300962500Y-118100000D03*
D15*
X307022500Y-119380000D03*
D16*
X309562500Y-120800000D03*
X313362500Y-118100000D03*
D21*
X313372500Y-116840000D03*
D22*
X314612500Y-120100000D03*
D19*
X323562500Y-108975000D03*
%TD*%
D10*
%TO.C,SW26*%
X285012500Y-114300000D03*
D11*
X285432500Y-114300000D03*
D12*
X285512500Y-118100000D03*
X286112500Y-119000000D03*
D13*
X290512500Y-114300000D03*
D12*
X290512500Y-120200000D03*
X293112500Y-120050000D03*
D11*
X295592500Y-114300000D03*
D10*
X296012500Y-114300000D03*
D20*
X281912500Y-118100000D03*
D15*
X287972500Y-119380000D03*
D16*
X290512500Y-120800000D03*
X294312500Y-118100000D03*
D21*
X294322500Y-116840000D03*
D22*
X295562500Y-120100000D03*
D19*
X304512500Y-108975000D03*
%TD*%
D10*
%TO.C,SW25*%
X265962500Y-114300000D03*
D11*
X266382500Y-114300000D03*
D12*
X266462500Y-118100000D03*
X267062500Y-119000000D03*
D13*
X271462500Y-114300000D03*
D12*
X271462500Y-120200000D03*
X274062500Y-120050000D03*
D11*
X276542500Y-114300000D03*
D10*
X276962500Y-114300000D03*
D20*
X262862500Y-118100000D03*
D15*
X268922500Y-119380000D03*
D16*
X271462500Y-120800000D03*
X275262500Y-118100000D03*
D21*
X275272500Y-116840000D03*
D22*
X276512500Y-120100000D03*
D19*
X285462500Y-108975000D03*
%TD*%
D10*
%TO.C,SW24*%
X246912500Y-114300000D03*
D11*
X247332500Y-114300000D03*
D12*
X247412500Y-118100000D03*
X248012500Y-119000000D03*
D13*
X252412500Y-114300000D03*
D12*
X252412500Y-120200000D03*
X255012500Y-120050000D03*
D11*
X257492500Y-114300000D03*
D10*
X257912500Y-114300000D03*
D20*
X243812500Y-118100000D03*
D15*
X249872500Y-119380000D03*
D16*
X252412500Y-120800000D03*
X256212500Y-118100000D03*
D21*
X256222500Y-116840000D03*
D22*
X257462500Y-120100000D03*
D19*
X266412500Y-108975000D03*
%TD*%
D10*
%TO.C,SW23*%
X227862500Y-114300000D03*
D11*
X228282500Y-114300000D03*
D12*
X228362500Y-118100000D03*
X228962500Y-119000000D03*
D13*
X233362500Y-114300000D03*
D12*
X233362500Y-120200000D03*
X235962500Y-120050000D03*
D11*
X238442500Y-114300000D03*
D10*
X238862500Y-114300000D03*
D20*
X224762500Y-118100000D03*
D15*
X230822500Y-119380000D03*
D16*
X233362500Y-120800000D03*
X237162500Y-118100000D03*
D21*
X237172500Y-116840000D03*
D22*
X238412500Y-120100000D03*
D19*
X247362500Y-108975000D03*
%TD*%
D10*
%TO.C,SW22*%
X208812500Y-114300000D03*
D11*
X209232500Y-114300000D03*
D12*
X209312500Y-118100000D03*
X209912500Y-119000000D03*
D13*
X214312500Y-114300000D03*
D12*
X214312500Y-120200000D03*
X216912500Y-120050000D03*
D11*
X219392500Y-114300000D03*
D10*
X219812500Y-114300000D03*
D20*
X205712500Y-118100000D03*
D15*
X211772500Y-119380000D03*
D16*
X214312500Y-120800000D03*
X218112500Y-118100000D03*
D21*
X218122500Y-116840000D03*
D22*
X219362500Y-120100000D03*
D19*
X228312500Y-108975000D03*
%TD*%
D10*
%TO.C,SW21*%
X189762500Y-114300000D03*
D11*
X190182500Y-114300000D03*
D12*
X190262500Y-118100000D03*
X190862500Y-119000000D03*
D13*
X195262500Y-114300000D03*
D12*
X195262500Y-120200000D03*
X197862500Y-120050000D03*
D11*
X200342500Y-114300000D03*
D10*
X200762500Y-114300000D03*
D20*
X186662500Y-118100000D03*
D15*
X192722500Y-119380000D03*
D16*
X195262500Y-120800000D03*
X199062500Y-118100000D03*
D21*
X199072500Y-116840000D03*
D22*
X200312500Y-120100000D03*
D19*
X209262500Y-108975000D03*
%TD*%
D10*
%TO.C,SW20*%
X170712500Y-114300000D03*
D11*
X171132500Y-114300000D03*
D12*
X171212500Y-118100000D03*
X171812500Y-119000000D03*
D13*
X176212500Y-114300000D03*
D12*
X176212500Y-120200000D03*
X178812500Y-120050000D03*
D11*
X181292500Y-114300000D03*
D10*
X181712500Y-114300000D03*
D20*
X167612500Y-118100000D03*
D15*
X173672500Y-119380000D03*
D16*
X176212500Y-120800000D03*
X180012500Y-118100000D03*
D21*
X180022500Y-116840000D03*
D22*
X181262500Y-120100000D03*
D19*
X190212500Y-108975000D03*
%TD*%
D10*
%TO.C,SW19*%
X151662500Y-114300000D03*
D11*
X152082500Y-114300000D03*
D12*
X152162500Y-118100000D03*
X152762500Y-119000000D03*
D13*
X157162500Y-114300000D03*
D12*
X157162500Y-120200000D03*
X159762500Y-120050000D03*
D11*
X162242500Y-114300000D03*
D10*
X162662500Y-114300000D03*
D20*
X148562500Y-118100000D03*
D15*
X154622500Y-119380000D03*
D16*
X157162500Y-120800000D03*
X160962500Y-118100000D03*
D21*
X160972500Y-116840000D03*
D22*
X162212500Y-120100000D03*
D19*
X171162500Y-108975000D03*
%TD*%
D10*
%TO.C,SW18*%
X132612500Y-114300000D03*
D11*
X133032500Y-114300000D03*
D12*
X133112500Y-118100000D03*
X133712500Y-119000000D03*
D13*
X138112500Y-114300000D03*
D12*
X138112500Y-120200000D03*
X140712500Y-120050000D03*
D11*
X143192500Y-114300000D03*
D10*
X143612500Y-114300000D03*
D20*
X129512500Y-118100000D03*
D15*
X135572500Y-119380000D03*
D16*
X138112500Y-120800000D03*
X141912500Y-118100000D03*
D21*
X141922500Y-116840000D03*
D22*
X143162500Y-120100000D03*
D19*
X152112500Y-108975000D03*
%TD*%
D10*
%TO.C,SW17*%
X113562500Y-114300000D03*
D11*
X113982500Y-114300000D03*
D12*
X114062500Y-118100000D03*
X114662500Y-119000000D03*
D13*
X119062500Y-114300000D03*
D12*
X119062500Y-120200000D03*
X121662500Y-120050000D03*
D11*
X124142500Y-114300000D03*
D10*
X124562500Y-114300000D03*
D20*
X110462500Y-118100000D03*
D15*
X116522500Y-119380000D03*
D16*
X119062500Y-120800000D03*
X122862500Y-118100000D03*
D21*
X122872500Y-116840000D03*
D22*
X124112500Y-120100000D03*
D19*
X133062500Y-108975000D03*
%TD*%
D10*
%TO.C,SW16*%
X94512500Y-114300000D03*
D11*
X94932500Y-114300000D03*
D12*
X95012500Y-118100000D03*
X95612500Y-119000000D03*
D13*
X100012500Y-114300000D03*
D12*
X100012500Y-120200000D03*
X102612500Y-120050000D03*
D11*
X105092500Y-114300000D03*
D10*
X105512500Y-114300000D03*
D20*
X91412500Y-118100000D03*
D15*
X97472500Y-119380000D03*
D16*
X100012500Y-120800000D03*
X103812500Y-118100000D03*
D21*
X103822500Y-116840000D03*
D22*
X105062500Y-120100000D03*
D19*
X114012500Y-108975000D03*
%TD*%
D10*
%TO.C,SW15*%
X75462500Y-114300000D03*
D11*
X75882500Y-114300000D03*
D12*
X75962500Y-118100000D03*
X76562500Y-119000000D03*
D13*
X80962500Y-114300000D03*
D12*
X80962500Y-120200000D03*
X83562500Y-120050000D03*
D11*
X86042500Y-114300000D03*
D10*
X86462500Y-114300000D03*
D20*
X72362500Y-118100000D03*
D15*
X78422500Y-119380000D03*
D16*
X80962500Y-120800000D03*
X84762500Y-118100000D03*
D21*
X84772500Y-116840000D03*
D22*
X86012500Y-120100000D03*
D19*
X94962500Y-108975000D03*
%TD*%
D10*
%TO.C,SW13*%
X323112500Y-95250000D03*
D11*
X323532500Y-95250000D03*
D12*
X323612500Y-99050000D03*
X324212500Y-99950000D03*
D13*
X328612500Y-95250000D03*
D12*
X328612500Y-101150000D03*
X331212500Y-101000000D03*
D11*
X333692500Y-95250000D03*
D10*
X334112500Y-95250000D03*
D20*
X320012500Y-99050000D03*
D15*
X326072500Y-100330000D03*
D16*
X328612500Y-101750000D03*
X332412500Y-99050000D03*
D21*
X332422500Y-97790000D03*
D22*
X333662500Y-101050000D03*
D19*
X342612500Y-89925000D03*
%TD*%
D10*
%TO.C,SW12*%
X304062500Y-95250000D03*
D11*
X304482500Y-95250000D03*
D12*
X304562500Y-99050000D03*
X305162500Y-99950000D03*
D13*
X309562500Y-95250000D03*
D12*
X309562500Y-101150000D03*
X312162500Y-101000000D03*
D11*
X314642500Y-95250000D03*
D10*
X315062500Y-95250000D03*
D20*
X300962500Y-99050000D03*
D15*
X307022500Y-100330000D03*
D16*
X309562500Y-101750000D03*
X313362500Y-99050000D03*
D21*
X313372500Y-97790000D03*
D22*
X314612500Y-101050000D03*
D19*
X323562500Y-89925000D03*
%TD*%
D10*
%TO.C,SW11*%
X285012500Y-95250000D03*
D11*
X285432500Y-95250000D03*
D12*
X285512500Y-99050000D03*
X286112500Y-99950000D03*
D13*
X290512500Y-95250000D03*
D12*
X290512500Y-101150000D03*
X293112500Y-101000000D03*
D11*
X295592500Y-95250000D03*
D10*
X296012500Y-95250000D03*
D20*
X281912500Y-99050000D03*
D15*
X287972500Y-100330000D03*
D16*
X290512500Y-101750000D03*
X294312500Y-99050000D03*
D21*
X294322500Y-97790000D03*
D22*
X295562500Y-101050000D03*
D19*
X304512500Y-89925000D03*
%TD*%
D10*
%TO.C,SW10*%
X265962500Y-95250000D03*
D11*
X266382500Y-95250000D03*
D12*
X266462500Y-99050000D03*
X267062500Y-99950000D03*
D13*
X271462500Y-95250000D03*
D12*
X271462500Y-101150000D03*
X274062500Y-101000000D03*
D11*
X276542500Y-95250000D03*
D10*
X276962500Y-95250000D03*
D20*
X262862500Y-99050000D03*
D15*
X268922500Y-100330000D03*
D16*
X271462500Y-101750000D03*
X275262500Y-99050000D03*
D21*
X275272500Y-97790000D03*
D22*
X276512500Y-101050000D03*
D19*
X285462500Y-89925000D03*
%TD*%
D10*
%TO.C,SW9*%
X246912500Y-95250000D03*
D11*
X247332500Y-95250000D03*
D12*
X247412500Y-99050000D03*
X248012500Y-99950000D03*
D13*
X252412500Y-95250000D03*
D12*
X252412500Y-101150000D03*
X255012500Y-101000000D03*
D11*
X257492500Y-95250000D03*
D10*
X257912500Y-95250000D03*
D20*
X243812500Y-99050000D03*
D15*
X249872500Y-100330000D03*
D16*
X252412500Y-101750000D03*
X256212500Y-99050000D03*
D21*
X256222500Y-97790000D03*
D22*
X257462500Y-101050000D03*
D19*
X266412500Y-89925000D03*
%TD*%
D10*
%TO.C,SW8*%
X227862500Y-95250000D03*
D11*
X228282500Y-95250000D03*
D12*
X228362500Y-99050000D03*
X228962500Y-99950000D03*
D13*
X233362500Y-95250000D03*
D12*
X233362500Y-101150000D03*
X235962500Y-101000000D03*
D11*
X238442500Y-95250000D03*
D10*
X238862500Y-95250000D03*
D20*
X224762500Y-99050000D03*
D15*
X230822500Y-100330000D03*
D16*
X233362500Y-101750000D03*
X237162500Y-99050000D03*
D21*
X237172500Y-97790000D03*
D22*
X238412500Y-101050000D03*
D19*
X247362500Y-89925000D03*
%TD*%
D10*
%TO.C,SW7*%
X208812500Y-95250000D03*
D11*
X209232500Y-95250000D03*
D12*
X209312500Y-99050000D03*
X209912500Y-99950000D03*
D13*
X214312500Y-95250000D03*
D12*
X214312500Y-101150000D03*
X216912500Y-101000000D03*
D11*
X219392500Y-95250000D03*
D10*
X219812500Y-95250000D03*
D20*
X205712500Y-99050000D03*
D15*
X211772500Y-100330000D03*
D16*
X214312500Y-101750000D03*
X218112500Y-99050000D03*
D21*
X218122500Y-97790000D03*
D22*
X219362500Y-101050000D03*
D19*
X228312500Y-89925000D03*
%TD*%
D10*
%TO.C,SW6*%
X189762500Y-95250000D03*
D11*
X190182500Y-95250000D03*
D12*
X190262500Y-99050000D03*
X190862500Y-99950000D03*
D13*
X195262500Y-95250000D03*
D12*
X195262500Y-101150000D03*
X197862500Y-101000000D03*
D11*
X200342500Y-95250000D03*
D10*
X200762500Y-95250000D03*
D20*
X186662500Y-99050000D03*
D15*
X192722500Y-100330000D03*
D16*
X195262500Y-101750000D03*
X199062500Y-99050000D03*
D21*
X199072500Y-97790000D03*
D22*
X200312500Y-101050000D03*
D19*
X209262500Y-89925000D03*
%TD*%
D10*
%TO.C,SW5*%
X170712500Y-95250000D03*
D11*
X171132500Y-95250000D03*
D12*
X171212500Y-99050000D03*
X171812500Y-99950000D03*
D13*
X176212500Y-95250000D03*
D12*
X176212500Y-101150000D03*
X178812500Y-101000000D03*
D11*
X181292500Y-95250000D03*
D10*
X181712500Y-95250000D03*
D20*
X167612500Y-99050000D03*
D15*
X173672500Y-100330000D03*
D16*
X176212500Y-101750000D03*
X180012500Y-99050000D03*
D21*
X180022500Y-97790000D03*
D22*
X181262500Y-101050000D03*
D19*
X190212500Y-89925000D03*
%TD*%
D10*
%TO.C,SW4*%
X151662500Y-95250000D03*
D11*
X152082500Y-95250000D03*
D12*
X152162500Y-99050000D03*
X152762500Y-99950000D03*
D13*
X157162500Y-95250000D03*
D12*
X157162500Y-101150000D03*
X159762500Y-101000000D03*
D11*
X162242500Y-95250000D03*
D10*
X162662500Y-95250000D03*
D20*
X148562500Y-99050000D03*
D15*
X154622500Y-100330000D03*
D16*
X157162500Y-101750000D03*
X160962500Y-99050000D03*
D21*
X160972500Y-97790000D03*
D22*
X162212500Y-101050000D03*
D19*
X171162500Y-89925000D03*
%TD*%
D10*
%TO.C,SW3*%
X132612500Y-95250000D03*
D11*
X133032500Y-95250000D03*
D12*
X133112500Y-99050000D03*
X133712500Y-99950000D03*
D13*
X138112500Y-95250000D03*
D12*
X138112500Y-101150000D03*
X140712500Y-101000000D03*
D11*
X143192500Y-95250000D03*
D10*
X143612500Y-95250000D03*
D20*
X129512500Y-99050000D03*
D15*
X135572500Y-100330000D03*
D16*
X138112500Y-101750000D03*
X141912500Y-99050000D03*
D21*
X141922500Y-97790000D03*
D22*
X143162500Y-101050000D03*
D19*
X152112500Y-89925000D03*
%TD*%
D10*
%TO.C,SW2*%
X113562500Y-95250000D03*
D11*
X113982500Y-95250000D03*
D12*
X114062500Y-99050000D03*
X114662500Y-99950000D03*
D13*
X119062500Y-95250000D03*
D12*
X119062500Y-101150000D03*
X121662500Y-101000000D03*
D11*
X124142500Y-95250000D03*
D10*
X124562500Y-95250000D03*
D20*
X110462500Y-99050000D03*
D15*
X116522500Y-100330000D03*
D16*
X119062500Y-101750000D03*
X122862500Y-99050000D03*
D21*
X122872500Y-97790000D03*
D22*
X124112500Y-101050000D03*
D19*
X133062500Y-89925000D03*
%TD*%
D10*
%TO.C,SW1*%
X94512500Y-95250000D03*
D11*
X94932500Y-95250000D03*
D12*
X95012500Y-99050000D03*
X95612500Y-99950000D03*
D13*
X100012500Y-95250000D03*
D12*
X100012500Y-101150000D03*
X102612500Y-101000000D03*
D11*
X105092500Y-95250000D03*
D10*
X105512500Y-95250000D03*
D20*
X91412500Y-99050000D03*
D15*
X97472500Y-100330000D03*
D16*
X100012500Y-101750000D03*
X103812500Y-99050000D03*
D21*
X103822500Y-97790000D03*
D22*
X105062500Y-101050000D03*
D19*
X114012500Y-89925000D03*
%TD*%
D10*
%TO.C,SW0*%
X75462500Y-95250000D03*
D11*
X75882500Y-95250000D03*
D12*
X75962500Y-99050000D03*
X76562500Y-99950000D03*
D13*
X80962500Y-95250000D03*
D12*
X80962500Y-101150000D03*
X83562500Y-101000000D03*
D11*
X86042500Y-95250000D03*
D10*
X86462500Y-95250000D03*
D20*
X72362500Y-99050000D03*
D15*
X78422500Y-100330000D03*
D16*
X80962500Y-101750000D03*
X84762500Y-99050000D03*
D21*
X84772500Y-97790000D03*
D22*
X86012500Y-101050000D03*
D19*
X94962500Y-89925000D03*
%TD*%
D23*
%TO.C,A0*%
X270390000Y-48090000D03*
D24*
X267850000Y-48090000D03*
X265310000Y-48090000D03*
X262770000Y-48090000D03*
X260230000Y-48090000D03*
X257690000Y-48090000D03*
X255150000Y-48090000D03*
X252610000Y-48090000D03*
X250070000Y-48090000D03*
X247530000Y-48090000D03*
X244990000Y-48090000D03*
X242450000Y-48090000D03*
X239910000Y-48090000D03*
X237370000Y-48090000D03*
X234830000Y-48090000D03*
X234830000Y-63330000D03*
X237370000Y-63330000D03*
X239910000Y-63330000D03*
X242450000Y-63330000D03*
X244990000Y-63330000D03*
X247530000Y-63330000D03*
X250070000Y-63330000D03*
X252610000Y-63330000D03*
X255150000Y-63330000D03*
X257690000Y-63330000D03*
X260230000Y-63330000D03*
X262770000Y-63330000D03*
X265310000Y-63330000D03*
X267850000Y-63330000D03*
X270390000Y-63330000D03*
%TD*%
D25*
%TO.C,SW14*%
X340412500Y-92750000D03*
D26*
X340412500Y-97750000D03*
X340412500Y-95250000D03*
D27*
X347912500Y-100850000D03*
X347912500Y-89650000D03*
D26*
X354912500Y-92750000D03*
X354912500Y-97750000D03*
%TD*%
M02*
