%TF.GenerationSoftware,KiCad,Pcbnew,7.0.10*%
%TF.CreationDate,2024-03-07T22:32:39+00:00*%
%TF.ProjectId,keyboard,6b657962-6f61-4726-942e-6b696361645f,rev?*%
%TF.SameCoordinates,Original*%
%TF.FileFunction,Legend,Top*%
%TF.FilePolarity,Positive*%
%FSLAX46Y46*%
G04 Gerber Fmt 4.6, Leading zero omitted, Abs format (unit mm)*
G04 Created by KiCad (PCBNEW 7.0.10) date 2024-03-07 22:32:39*
%MOMM*%
%LPD*%
G01*
G04 APERTURE LIST*
%ADD10C,0.150000*%
%ADD11C,0.140000*%
%ADD12C,0.120000*%
G04 APERTURE END LIST*
D10*
X275639104Y-56424285D02*
X275639104Y-55948095D01*
X275924819Y-56519523D02*
X274924819Y-56186190D01*
X274924819Y-56186190D02*
X275924819Y-55852857D01*
X274924819Y-55329047D02*
X274924819Y-55233809D01*
X274924819Y-55233809D02*
X274972438Y-55138571D01*
X274972438Y-55138571D02*
X275020057Y-55090952D01*
X275020057Y-55090952D02*
X275115295Y-55043333D01*
X275115295Y-55043333D02*
X275305771Y-54995714D01*
X275305771Y-54995714D02*
X275543866Y-54995714D01*
X275543866Y-54995714D02*
X275734342Y-55043333D01*
X275734342Y-55043333D02*
X275829580Y-55090952D01*
X275829580Y-55090952D02*
X275877200Y-55138571D01*
X275877200Y-55138571D02*
X275924819Y-55233809D01*
X275924819Y-55233809D02*
X275924819Y-55329047D01*
X275924819Y-55329047D02*
X275877200Y-55424285D01*
X275877200Y-55424285D02*
X275829580Y-55471904D01*
X275829580Y-55471904D02*
X275734342Y-55519523D01*
X275734342Y-55519523D02*
X275543866Y-55567142D01*
X275543866Y-55567142D02*
X275305771Y-55567142D01*
X275305771Y-55567142D02*
X275115295Y-55519523D01*
X275115295Y-55519523D02*
X275020057Y-55471904D01*
X275020057Y-55471904D02*
X274972438Y-55424285D01*
X274972438Y-55424285D02*
X274924819Y-55329047D01*
X235375180Y-54448095D02*
X234565657Y-54448095D01*
X234565657Y-54448095D02*
X234470419Y-54495714D01*
X234470419Y-54495714D02*
X234422800Y-54543333D01*
X234422800Y-54543333D02*
X234375180Y-54638571D01*
X234375180Y-54638571D02*
X234375180Y-54829047D01*
X234375180Y-54829047D02*
X234422800Y-54924285D01*
X234422800Y-54924285D02*
X234470419Y-54971904D01*
X234470419Y-54971904D02*
X234565657Y-55019523D01*
X234565657Y-55019523D02*
X235375180Y-55019523D01*
X234422800Y-55448095D02*
X234375180Y-55590952D01*
X234375180Y-55590952D02*
X234375180Y-55829047D01*
X234375180Y-55829047D02*
X234422800Y-55924285D01*
X234422800Y-55924285D02*
X234470419Y-55971904D01*
X234470419Y-55971904D02*
X234565657Y-56019523D01*
X234565657Y-56019523D02*
X234660895Y-56019523D01*
X234660895Y-56019523D02*
X234756133Y-55971904D01*
X234756133Y-55971904D02*
X234803752Y-55924285D01*
X234803752Y-55924285D02*
X234851371Y-55829047D01*
X234851371Y-55829047D02*
X234898990Y-55638571D01*
X234898990Y-55638571D02*
X234946609Y-55543333D01*
X234946609Y-55543333D02*
X234994228Y-55495714D01*
X234994228Y-55495714D02*
X235089466Y-55448095D01*
X235089466Y-55448095D02*
X235184704Y-55448095D01*
X235184704Y-55448095D02*
X235279942Y-55495714D01*
X235279942Y-55495714D02*
X235327561Y-55543333D01*
X235327561Y-55543333D02*
X235375180Y-55638571D01*
X235375180Y-55638571D02*
X235375180Y-55876666D01*
X235375180Y-55876666D02*
X235327561Y-56019523D01*
X234898990Y-56781428D02*
X234851371Y-56924285D01*
X234851371Y-56924285D02*
X234803752Y-56971904D01*
X234803752Y-56971904D02*
X234708514Y-57019523D01*
X234708514Y-57019523D02*
X234565657Y-57019523D01*
X234565657Y-57019523D02*
X234470419Y-56971904D01*
X234470419Y-56971904D02*
X234422800Y-56924285D01*
X234422800Y-56924285D02*
X234375180Y-56829047D01*
X234375180Y-56829047D02*
X234375180Y-56448095D01*
X234375180Y-56448095D02*
X235375180Y-56448095D01*
X235375180Y-56448095D02*
X235375180Y-56781428D01*
X235375180Y-56781428D02*
X235327561Y-56876666D01*
X235327561Y-56876666D02*
X235279942Y-56924285D01*
X235279942Y-56924285D02*
X235184704Y-56971904D01*
X235184704Y-56971904D02*
X235089466Y-56971904D01*
X235089466Y-56971904D02*
X234994228Y-56924285D01*
X234994228Y-56924285D02*
X234946609Y-56876666D01*
X234946609Y-56876666D02*
X234898990Y-56781428D01*
X234898990Y-56781428D02*
X234898990Y-56448095D01*
X341402976Y-88457200D02*
X341545833Y-88504819D01*
X341545833Y-88504819D02*
X341783928Y-88504819D01*
X341783928Y-88504819D02*
X341879166Y-88457200D01*
X341879166Y-88457200D02*
X341926785Y-88409580D01*
X341926785Y-88409580D02*
X341974404Y-88314342D01*
X341974404Y-88314342D02*
X341974404Y-88219104D01*
X341974404Y-88219104D02*
X341926785Y-88123866D01*
X341926785Y-88123866D02*
X341879166Y-88076247D01*
X341879166Y-88076247D02*
X341783928Y-88028628D01*
X341783928Y-88028628D02*
X341593452Y-87981009D01*
X341593452Y-87981009D02*
X341498214Y-87933390D01*
X341498214Y-87933390D02*
X341450595Y-87885771D01*
X341450595Y-87885771D02*
X341402976Y-87790533D01*
X341402976Y-87790533D02*
X341402976Y-87695295D01*
X341402976Y-87695295D02*
X341450595Y-87600057D01*
X341450595Y-87600057D02*
X341498214Y-87552438D01*
X341498214Y-87552438D02*
X341593452Y-87504819D01*
X341593452Y-87504819D02*
X341831547Y-87504819D01*
X341831547Y-87504819D02*
X341974404Y-87552438D01*
X342307738Y-87504819D02*
X342545833Y-88504819D01*
X342545833Y-88504819D02*
X342736309Y-87790533D01*
X342736309Y-87790533D02*
X342926785Y-88504819D01*
X342926785Y-88504819D02*
X343164881Y-87504819D01*
X344069642Y-88504819D02*
X343498214Y-88504819D01*
X343783928Y-88504819D02*
X343783928Y-87504819D01*
X343783928Y-87504819D02*
X343688690Y-87647676D01*
X343688690Y-87647676D02*
X343593452Y-87742914D01*
X343593452Y-87742914D02*
X343498214Y-87790533D01*
X344926785Y-87838152D02*
X344926785Y-88504819D01*
X344688690Y-87457200D02*
X344450595Y-88171485D01*
X344450595Y-88171485D02*
X345069642Y-88171485D01*
D11*
%TO.C,SW82*%
X344637500Y-119800000D02*
X344637500Y-120800000D01*
X344637500Y-107800000D02*
X344637500Y-108800000D01*
X344637500Y-107800000D02*
X343637500Y-107800000D01*
X343637500Y-120800000D02*
X344637500Y-120800000D01*
X332637500Y-107800000D02*
X331637500Y-107800000D01*
X331637500Y-120800000D02*
X332637500Y-120800000D01*
X331637500Y-120800000D02*
X331637500Y-119800000D01*
X331637500Y-108800000D02*
X331637500Y-107800000D01*
%TO.C,SW81*%
X293537500Y-146900000D02*
X293537500Y-145900000D01*
X293537500Y-158900000D02*
X293537500Y-157900000D01*
X293537500Y-158900000D02*
X294537500Y-158900000D01*
X294537500Y-145900000D02*
X293537500Y-145900000D01*
X305537500Y-158900000D02*
X306537500Y-158900000D01*
X306537500Y-145900000D02*
X305537500Y-145900000D01*
X306537500Y-145900000D02*
X306537500Y-146900000D01*
X306537500Y-157900000D02*
X306537500Y-158900000D01*
%TO.C,SW80*%
X217337500Y-165950000D02*
X217337500Y-164950000D01*
X217337500Y-177950000D02*
X217337500Y-176950000D01*
X217337500Y-177950000D02*
X218337500Y-177950000D01*
X218337500Y-164950000D02*
X217337500Y-164950000D01*
X229337500Y-177950000D02*
X230337500Y-177950000D01*
X230337500Y-164950000D02*
X229337500Y-164950000D01*
X230337500Y-164950000D02*
X230337500Y-165950000D01*
X230337500Y-176950000D02*
X230337500Y-177950000D01*
%TO.C,SW79*%
X96987500Y-157900000D02*
X96987500Y-158900000D01*
X96987500Y-145900000D02*
X96987500Y-146900000D01*
X96987500Y-145900000D02*
X95987500Y-145900000D01*
X95987500Y-158900000D02*
X96987500Y-158900000D01*
X84987500Y-145900000D02*
X83987500Y-145900000D01*
X83987500Y-158900000D02*
X84987500Y-158900000D01*
X83987500Y-158900000D02*
X83987500Y-157900000D01*
X83987500Y-146900000D02*
X83987500Y-145900000D01*
%TO.C,SW78*%
X198287500Y-165950000D02*
X198287500Y-164950000D01*
X198287500Y-177950000D02*
X198287500Y-176950000D01*
X198287500Y-177950000D02*
X199287500Y-177950000D01*
X199287500Y-164950000D02*
X198287500Y-164950000D01*
X210287500Y-177950000D02*
X211287500Y-177950000D01*
X211287500Y-164950000D02*
X210287500Y-164950000D01*
X211287500Y-164950000D02*
X211287500Y-165950000D01*
X211287500Y-176950000D02*
X211287500Y-177950000D01*
%TO.C,SW77*%
X331637500Y-127850000D02*
X331637500Y-126850000D01*
X331637500Y-139850000D02*
X331637500Y-138850000D01*
X331637500Y-139850000D02*
X332637500Y-139850000D01*
X332637500Y-126850000D02*
X331637500Y-126850000D01*
X343637500Y-139850000D02*
X344637500Y-139850000D01*
X344637500Y-126850000D02*
X343637500Y-126850000D01*
X344637500Y-126850000D02*
X344637500Y-127850000D01*
X344637500Y-138850000D02*
X344637500Y-139850000D01*
%TO.C,SW75*%
X160187500Y-165950000D02*
X160187500Y-164950000D01*
X160187500Y-177950000D02*
X160187500Y-176950000D01*
X160187500Y-177950000D02*
X161187500Y-177950000D01*
X161187500Y-164950000D02*
X160187500Y-164950000D01*
X172187500Y-177950000D02*
X173187500Y-177950000D01*
X173187500Y-164950000D02*
X172187500Y-164950000D01*
X173187500Y-164950000D02*
X173187500Y-165950000D01*
X173187500Y-176950000D02*
X173187500Y-177950000D01*
%TO.C,SW74*%
X341162500Y-165950000D02*
X341162500Y-164950000D01*
X341162500Y-177950000D02*
X341162500Y-176950000D01*
X341162500Y-177950000D02*
X342162500Y-177950000D01*
X342162500Y-164950000D02*
X341162500Y-164950000D01*
X353162500Y-177950000D02*
X354162500Y-177950000D01*
X354162500Y-164950000D02*
X353162500Y-164950000D01*
X354162500Y-164950000D02*
X354162500Y-165950000D01*
X354162500Y-176950000D02*
X354162500Y-177950000D01*
%TO.C,SW73*%
X322112500Y-165950000D02*
X322112500Y-164950000D01*
X322112500Y-177950000D02*
X322112500Y-176950000D01*
X322112500Y-177950000D02*
X323112500Y-177950000D01*
X323112500Y-164950000D02*
X322112500Y-164950000D01*
X334112500Y-177950000D02*
X335112500Y-177950000D01*
X335112500Y-164950000D02*
X334112500Y-164950000D01*
X335112500Y-164950000D02*
X335112500Y-165950000D01*
X335112500Y-176950000D02*
X335112500Y-177950000D01*
%TO.C,SW72*%
X303062500Y-165950000D02*
X303062500Y-164950000D01*
X303062500Y-177950000D02*
X303062500Y-176950000D01*
X303062500Y-177950000D02*
X304062500Y-177950000D01*
X304062500Y-164950000D02*
X303062500Y-164950000D01*
X315062500Y-177950000D02*
X316062500Y-177950000D01*
X316062500Y-164950000D02*
X315062500Y-164950000D01*
X316062500Y-164950000D02*
X316062500Y-165950000D01*
X316062500Y-176950000D02*
X316062500Y-177950000D01*
%TO.C,SW71*%
X284012500Y-165950000D02*
X284012500Y-164950000D01*
X284012500Y-177950000D02*
X284012500Y-176950000D01*
X284012500Y-177950000D02*
X285012500Y-177950000D01*
X285012500Y-164950000D02*
X284012500Y-164950000D01*
X296012500Y-177950000D02*
X297012500Y-177950000D01*
X297012500Y-164950000D02*
X296012500Y-164950000D01*
X297012500Y-164950000D02*
X297012500Y-165950000D01*
X297012500Y-176950000D02*
X297012500Y-177950000D01*
%TO.C,SW70*%
X264962500Y-165950000D02*
X264962500Y-164950000D01*
X264962500Y-177950000D02*
X264962500Y-176950000D01*
X264962500Y-177950000D02*
X265962500Y-177950000D01*
X265962500Y-164950000D02*
X264962500Y-164950000D01*
X276962500Y-177950000D02*
X277962500Y-177950000D01*
X277962500Y-164950000D02*
X276962500Y-164950000D01*
X277962500Y-164950000D02*
X277962500Y-165950000D01*
X277962500Y-176950000D02*
X277962500Y-177950000D01*
%TO.C,SW69*%
X245912500Y-165950000D02*
X245912500Y-164950000D01*
X245912500Y-177950000D02*
X245912500Y-176950000D01*
X245912500Y-177950000D02*
X246912500Y-177950000D01*
X246912500Y-164950000D02*
X245912500Y-164950000D01*
X257912500Y-177950000D02*
X258912500Y-177950000D01*
X258912500Y-164950000D02*
X257912500Y-164950000D01*
X258912500Y-164950000D02*
X258912500Y-165950000D01*
X258912500Y-176950000D02*
X258912500Y-177950000D01*
%TO.C,SW68*%
X226862500Y-165950000D02*
X226862500Y-164950000D01*
X226862500Y-177950000D02*
X226862500Y-176950000D01*
X226862500Y-177950000D02*
X227862500Y-177950000D01*
X227862500Y-164950000D02*
X226862500Y-164950000D01*
X238862500Y-177950000D02*
X239862500Y-177950000D01*
X239862500Y-164950000D02*
X238862500Y-164950000D01*
X239862500Y-164950000D02*
X239862500Y-165950000D01*
X239862500Y-176950000D02*
X239862500Y-177950000D01*
%TO.C,SW67*%
X207812500Y-165950000D02*
X207812500Y-164950000D01*
X207812500Y-177950000D02*
X207812500Y-176950000D01*
X207812500Y-177950000D02*
X208812500Y-177950000D01*
X208812500Y-164950000D02*
X207812500Y-164950000D01*
X219812500Y-177950000D02*
X220812500Y-177950000D01*
X220812500Y-164950000D02*
X219812500Y-164950000D01*
X220812500Y-164950000D02*
X220812500Y-165950000D01*
X220812500Y-176950000D02*
X220812500Y-177950000D01*
%TO.C,SW66*%
X188762500Y-165950000D02*
X188762500Y-164950000D01*
X188762500Y-177950000D02*
X188762500Y-176950000D01*
X188762500Y-177950000D02*
X189762500Y-177950000D01*
X189762500Y-164950000D02*
X188762500Y-164950000D01*
X200762500Y-177950000D02*
X201762500Y-177950000D01*
X201762500Y-164950000D02*
X200762500Y-164950000D01*
X201762500Y-164950000D02*
X201762500Y-165950000D01*
X201762500Y-176950000D02*
X201762500Y-177950000D01*
%TO.C,SW65*%
X169712500Y-165950000D02*
X169712500Y-164950000D01*
X169712500Y-177950000D02*
X169712500Y-176950000D01*
X169712500Y-177950000D02*
X170712500Y-177950000D01*
X170712500Y-164950000D02*
X169712500Y-164950000D01*
X181712500Y-177950000D02*
X182712500Y-177950000D01*
X182712500Y-164950000D02*
X181712500Y-164950000D01*
X182712500Y-164950000D02*
X182712500Y-165950000D01*
X182712500Y-176950000D02*
X182712500Y-177950000D01*
%TO.C,SW64*%
X150662500Y-165950000D02*
X150662500Y-164950000D01*
X150662500Y-177950000D02*
X150662500Y-176950000D01*
X150662500Y-177950000D02*
X151662500Y-177950000D01*
X151662500Y-164950000D02*
X150662500Y-164950000D01*
X162662500Y-177950000D02*
X163662500Y-177950000D01*
X163662500Y-164950000D02*
X162662500Y-164950000D01*
X163662500Y-164950000D02*
X163662500Y-165950000D01*
X163662500Y-176950000D02*
X163662500Y-177950000D01*
%TO.C,SW63*%
X131612500Y-165950000D02*
X131612500Y-164950000D01*
X131612500Y-177950000D02*
X131612500Y-176950000D01*
X131612500Y-177950000D02*
X132612500Y-177950000D01*
X132612500Y-164950000D02*
X131612500Y-164950000D01*
X143612500Y-177950000D02*
X144612500Y-177950000D01*
X144612500Y-164950000D02*
X143612500Y-164950000D01*
X144612500Y-164950000D02*
X144612500Y-165950000D01*
X144612500Y-176950000D02*
X144612500Y-177950000D01*
%TO.C,SW62*%
X112562500Y-165950000D02*
X112562500Y-164950000D01*
X112562500Y-177950000D02*
X112562500Y-176950000D01*
X112562500Y-177950000D02*
X113562500Y-177950000D01*
X113562500Y-164950000D02*
X112562500Y-164950000D01*
X124562500Y-177950000D02*
X125562500Y-177950000D01*
X125562500Y-164950000D02*
X124562500Y-164950000D01*
X125562500Y-164950000D02*
X125562500Y-165950000D01*
X125562500Y-176950000D02*
X125562500Y-177950000D01*
%TO.C,SW61*%
X93512500Y-165950000D02*
X93512500Y-164950000D01*
X93512500Y-177950000D02*
X93512500Y-176950000D01*
X93512500Y-177950000D02*
X94512500Y-177950000D01*
X94512500Y-164950000D02*
X93512500Y-164950000D01*
X105512500Y-177950000D02*
X106512500Y-177950000D01*
X106512500Y-164950000D02*
X105512500Y-164950000D01*
X106512500Y-164950000D02*
X106512500Y-165950000D01*
X106512500Y-176950000D02*
X106512500Y-177950000D01*
%TO.C,SW60*%
X74462500Y-165950000D02*
X74462500Y-164950000D01*
X74462500Y-177950000D02*
X74462500Y-176950000D01*
X74462500Y-177950000D02*
X75462500Y-177950000D01*
X75462500Y-164950000D02*
X74462500Y-164950000D01*
X86462500Y-177950000D02*
X87462500Y-177950000D01*
X87462500Y-164950000D02*
X86462500Y-164950000D01*
X87462500Y-164950000D02*
X87462500Y-165950000D01*
X87462500Y-176950000D02*
X87462500Y-177950000D01*
%TO.C,SW59*%
X341162500Y-146900000D02*
X341162500Y-145900000D01*
X341162500Y-158900000D02*
X341162500Y-157900000D01*
X341162500Y-158900000D02*
X342162500Y-158900000D01*
X342162500Y-145900000D02*
X341162500Y-145900000D01*
X353162500Y-158900000D02*
X354162500Y-158900000D01*
X354162500Y-145900000D02*
X353162500Y-145900000D01*
X354162500Y-145900000D02*
X354162500Y-146900000D01*
X354162500Y-157900000D02*
X354162500Y-158900000D01*
%TO.C,SW58*%
X322112500Y-146900000D02*
X322112500Y-145900000D01*
X322112500Y-158900000D02*
X322112500Y-157900000D01*
X322112500Y-158900000D02*
X323112500Y-158900000D01*
X323112500Y-145900000D02*
X322112500Y-145900000D01*
X334112500Y-158900000D02*
X335112500Y-158900000D01*
X335112500Y-145900000D02*
X334112500Y-145900000D01*
X335112500Y-145900000D02*
X335112500Y-146900000D01*
X335112500Y-157900000D02*
X335112500Y-158900000D01*
%TO.C,SW57*%
X303062500Y-146900000D02*
X303062500Y-145900000D01*
X303062500Y-158900000D02*
X303062500Y-157900000D01*
X303062500Y-158900000D02*
X304062500Y-158900000D01*
X304062500Y-145900000D02*
X303062500Y-145900000D01*
X315062500Y-158900000D02*
X316062500Y-158900000D01*
X316062500Y-145900000D02*
X315062500Y-145900000D01*
X316062500Y-145900000D02*
X316062500Y-146900000D01*
X316062500Y-157900000D02*
X316062500Y-158900000D01*
%TO.C,SW56*%
X284012500Y-146900000D02*
X284012500Y-145900000D01*
X284012500Y-158900000D02*
X284012500Y-157900000D01*
X284012500Y-158900000D02*
X285012500Y-158900000D01*
X285012500Y-145900000D02*
X284012500Y-145900000D01*
X296012500Y-158900000D02*
X297012500Y-158900000D01*
X297012500Y-145900000D02*
X296012500Y-145900000D01*
X297012500Y-145900000D02*
X297012500Y-146900000D01*
X297012500Y-157900000D02*
X297012500Y-158900000D01*
%TO.C,SW55*%
X264962500Y-146900000D02*
X264962500Y-145900000D01*
X264962500Y-158900000D02*
X264962500Y-157900000D01*
X264962500Y-158900000D02*
X265962500Y-158900000D01*
X265962500Y-145900000D02*
X264962500Y-145900000D01*
X276962500Y-158900000D02*
X277962500Y-158900000D01*
X277962500Y-145900000D02*
X276962500Y-145900000D01*
X277962500Y-145900000D02*
X277962500Y-146900000D01*
X277962500Y-157900000D02*
X277962500Y-158900000D01*
%TO.C,SW54*%
X245912500Y-146900000D02*
X245912500Y-145900000D01*
X245912500Y-158900000D02*
X245912500Y-157900000D01*
X245912500Y-158900000D02*
X246912500Y-158900000D01*
X246912500Y-145900000D02*
X245912500Y-145900000D01*
X257912500Y-158900000D02*
X258912500Y-158900000D01*
X258912500Y-145900000D02*
X257912500Y-145900000D01*
X258912500Y-145900000D02*
X258912500Y-146900000D01*
X258912500Y-157900000D02*
X258912500Y-158900000D01*
%TO.C,SW53*%
X226862500Y-146900000D02*
X226862500Y-145900000D01*
X226862500Y-158900000D02*
X226862500Y-157900000D01*
X226862500Y-158900000D02*
X227862500Y-158900000D01*
X227862500Y-145900000D02*
X226862500Y-145900000D01*
X238862500Y-158900000D02*
X239862500Y-158900000D01*
X239862500Y-145900000D02*
X238862500Y-145900000D01*
X239862500Y-145900000D02*
X239862500Y-146900000D01*
X239862500Y-157900000D02*
X239862500Y-158900000D01*
%TO.C,SW52*%
X207812500Y-146900000D02*
X207812500Y-145900000D01*
X207812500Y-158900000D02*
X207812500Y-157900000D01*
X207812500Y-158900000D02*
X208812500Y-158900000D01*
X208812500Y-145900000D02*
X207812500Y-145900000D01*
X219812500Y-158900000D02*
X220812500Y-158900000D01*
X220812500Y-145900000D02*
X219812500Y-145900000D01*
X220812500Y-145900000D02*
X220812500Y-146900000D01*
X220812500Y-157900000D02*
X220812500Y-158900000D01*
%TO.C,SW51*%
X188762500Y-146900000D02*
X188762500Y-145900000D01*
X188762500Y-158900000D02*
X188762500Y-157900000D01*
X188762500Y-158900000D02*
X189762500Y-158900000D01*
X189762500Y-145900000D02*
X188762500Y-145900000D01*
X200762500Y-158900000D02*
X201762500Y-158900000D01*
X201762500Y-145900000D02*
X200762500Y-145900000D01*
X201762500Y-145900000D02*
X201762500Y-146900000D01*
X201762500Y-157900000D02*
X201762500Y-158900000D01*
%TO.C,SW50*%
X169712500Y-146900000D02*
X169712500Y-145900000D01*
X169712500Y-158900000D02*
X169712500Y-157900000D01*
X169712500Y-158900000D02*
X170712500Y-158900000D01*
X170712500Y-145900000D02*
X169712500Y-145900000D01*
X181712500Y-158900000D02*
X182712500Y-158900000D01*
X182712500Y-145900000D02*
X181712500Y-145900000D01*
X182712500Y-145900000D02*
X182712500Y-146900000D01*
X182712500Y-157900000D02*
X182712500Y-158900000D01*
%TO.C,SW49*%
X150662500Y-146900000D02*
X150662500Y-145900000D01*
X150662500Y-158900000D02*
X150662500Y-157900000D01*
X150662500Y-158900000D02*
X151662500Y-158900000D01*
X151662500Y-145900000D02*
X150662500Y-145900000D01*
X162662500Y-158900000D02*
X163662500Y-158900000D01*
X163662500Y-145900000D02*
X162662500Y-145900000D01*
X163662500Y-145900000D02*
X163662500Y-146900000D01*
X163662500Y-157900000D02*
X163662500Y-158900000D01*
%TO.C,SW48*%
X131612500Y-146900000D02*
X131612500Y-145900000D01*
X131612500Y-158900000D02*
X131612500Y-157900000D01*
X131612500Y-158900000D02*
X132612500Y-158900000D01*
X132612500Y-145900000D02*
X131612500Y-145900000D01*
X143612500Y-158900000D02*
X144612500Y-158900000D01*
X144612500Y-145900000D02*
X143612500Y-145900000D01*
X144612500Y-145900000D02*
X144612500Y-146900000D01*
X144612500Y-157900000D02*
X144612500Y-158900000D01*
%TO.C,SW47*%
X112562500Y-146900000D02*
X112562500Y-145900000D01*
X112562500Y-158900000D02*
X112562500Y-157900000D01*
X112562500Y-158900000D02*
X113562500Y-158900000D01*
X113562500Y-145900000D02*
X112562500Y-145900000D01*
X124562500Y-158900000D02*
X125562500Y-158900000D01*
X125562500Y-145900000D02*
X124562500Y-145900000D01*
X125562500Y-145900000D02*
X125562500Y-146900000D01*
X125562500Y-157900000D02*
X125562500Y-158900000D01*
%TO.C,SW46*%
X93512500Y-146900000D02*
X93512500Y-145900000D01*
X93512500Y-158900000D02*
X93512500Y-157900000D01*
X93512500Y-158900000D02*
X94512500Y-158900000D01*
X94512500Y-145900000D02*
X93512500Y-145900000D01*
X105512500Y-158900000D02*
X106512500Y-158900000D01*
X106512500Y-145900000D02*
X105512500Y-145900000D01*
X106512500Y-145900000D02*
X106512500Y-146900000D01*
X106512500Y-157900000D02*
X106512500Y-158900000D01*
%TO.C,SW45*%
X74462500Y-146900000D02*
X74462500Y-145900000D01*
X74462500Y-158900000D02*
X74462500Y-157900000D01*
X74462500Y-158900000D02*
X75462500Y-158900000D01*
X75462500Y-145900000D02*
X74462500Y-145900000D01*
X86462500Y-158900000D02*
X87462500Y-158900000D01*
X87462500Y-145900000D02*
X86462500Y-145900000D01*
X87462500Y-145900000D02*
X87462500Y-146900000D01*
X87462500Y-157900000D02*
X87462500Y-158900000D01*
%TO.C,SW44*%
X341162500Y-127850000D02*
X341162500Y-126850000D01*
X341162500Y-139850000D02*
X341162500Y-138850000D01*
X341162500Y-139850000D02*
X342162500Y-139850000D01*
X342162500Y-126850000D02*
X341162500Y-126850000D01*
X353162500Y-139850000D02*
X354162500Y-139850000D01*
X354162500Y-126850000D02*
X353162500Y-126850000D01*
X354162500Y-126850000D02*
X354162500Y-127850000D01*
X354162500Y-138850000D02*
X354162500Y-139850000D01*
%TO.C,SW43*%
X322112500Y-127850000D02*
X322112500Y-126850000D01*
X322112500Y-139850000D02*
X322112500Y-138850000D01*
X322112500Y-139850000D02*
X323112500Y-139850000D01*
X323112500Y-126850000D02*
X322112500Y-126850000D01*
X334112500Y-139850000D02*
X335112500Y-139850000D01*
X335112500Y-126850000D02*
X334112500Y-126850000D01*
X335112500Y-126850000D02*
X335112500Y-127850000D01*
X335112500Y-138850000D02*
X335112500Y-139850000D01*
%TO.C,SW42*%
X303062500Y-127850000D02*
X303062500Y-126850000D01*
X303062500Y-139850000D02*
X303062500Y-138850000D01*
X303062500Y-139850000D02*
X304062500Y-139850000D01*
X304062500Y-126850000D02*
X303062500Y-126850000D01*
X315062500Y-139850000D02*
X316062500Y-139850000D01*
X316062500Y-126850000D02*
X315062500Y-126850000D01*
X316062500Y-126850000D02*
X316062500Y-127850000D01*
X316062500Y-138850000D02*
X316062500Y-139850000D01*
%TO.C,SW41*%
X284012500Y-127850000D02*
X284012500Y-126850000D01*
X284012500Y-139850000D02*
X284012500Y-138850000D01*
X284012500Y-139850000D02*
X285012500Y-139850000D01*
X285012500Y-126850000D02*
X284012500Y-126850000D01*
X296012500Y-139850000D02*
X297012500Y-139850000D01*
X297012500Y-126850000D02*
X296012500Y-126850000D01*
X297012500Y-126850000D02*
X297012500Y-127850000D01*
X297012500Y-138850000D02*
X297012500Y-139850000D01*
%TO.C,SW40*%
X264962500Y-127850000D02*
X264962500Y-126850000D01*
X264962500Y-139850000D02*
X264962500Y-138850000D01*
X264962500Y-139850000D02*
X265962500Y-139850000D01*
X265962500Y-126850000D02*
X264962500Y-126850000D01*
X276962500Y-139850000D02*
X277962500Y-139850000D01*
X277962500Y-126850000D02*
X276962500Y-126850000D01*
X277962500Y-126850000D02*
X277962500Y-127850000D01*
X277962500Y-138850000D02*
X277962500Y-139850000D01*
%TO.C,SW39*%
X245912500Y-127850000D02*
X245912500Y-126850000D01*
X245912500Y-139850000D02*
X245912500Y-138850000D01*
X245912500Y-139850000D02*
X246912500Y-139850000D01*
X246912500Y-126850000D02*
X245912500Y-126850000D01*
X257912500Y-139850000D02*
X258912500Y-139850000D01*
X258912500Y-126850000D02*
X257912500Y-126850000D01*
X258912500Y-126850000D02*
X258912500Y-127850000D01*
X258912500Y-138850000D02*
X258912500Y-139850000D01*
%TO.C,SW38*%
X226862500Y-127850000D02*
X226862500Y-126850000D01*
X226862500Y-139850000D02*
X226862500Y-138850000D01*
X226862500Y-139850000D02*
X227862500Y-139850000D01*
X227862500Y-126850000D02*
X226862500Y-126850000D01*
X238862500Y-139850000D02*
X239862500Y-139850000D01*
X239862500Y-126850000D02*
X238862500Y-126850000D01*
X239862500Y-126850000D02*
X239862500Y-127850000D01*
X239862500Y-138850000D02*
X239862500Y-139850000D01*
%TO.C,SW37*%
X207812500Y-127850000D02*
X207812500Y-126850000D01*
X207812500Y-139850000D02*
X207812500Y-138850000D01*
X207812500Y-139850000D02*
X208812500Y-139850000D01*
X208812500Y-126850000D02*
X207812500Y-126850000D01*
X219812500Y-139850000D02*
X220812500Y-139850000D01*
X220812500Y-126850000D02*
X219812500Y-126850000D01*
X220812500Y-126850000D02*
X220812500Y-127850000D01*
X220812500Y-138850000D02*
X220812500Y-139850000D01*
%TO.C,SW36*%
X188762500Y-127850000D02*
X188762500Y-126850000D01*
X188762500Y-139850000D02*
X188762500Y-138850000D01*
X188762500Y-139850000D02*
X189762500Y-139850000D01*
X189762500Y-126850000D02*
X188762500Y-126850000D01*
X200762500Y-139850000D02*
X201762500Y-139850000D01*
X201762500Y-126850000D02*
X200762500Y-126850000D01*
X201762500Y-126850000D02*
X201762500Y-127850000D01*
X201762500Y-138850000D02*
X201762500Y-139850000D01*
%TO.C,SW35*%
X169712500Y-127850000D02*
X169712500Y-126850000D01*
X169712500Y-139850000D02*
X169712500Y-138850000D01*
X169712500Y-139850000D02*
X170712500Y-139850000D01*
X170712500Y-126850000D02*
X169712500Y-126850000D01*
X181712500Y-139850000D02*
X182712500Y-139850000D01*
X182712500Y-126850000D02*
X181712500Y-126850000D01*
X182712500Y-126850000D02*
X182712500Y-127850000D01*
X182712500Y-138850000D02*
X182712500Y-139850000D01*
%TO.C,SW34*%
X150662500Y-127850000D02*
X150662500Y-126850000D01*
X150662500Y-139850000D02*
X150662500Y-138850000D01*
X150662500Y-139850000D02*
X151662500Y-139850000D01*
X151662500Y-126850000D02*
X150662500Y-126850000D01*
X162662500Y-139850000D02*
X163662500Y-139850000D01*
X163662500Y-126850000D02*
X162662500Y-126850000D01*
X163662500Y-126850000D02*
X163662500Y-127850000D01*
X163662500Y-138850000D02*
X163662500Y-139850000D01*
%TO.C,SW33*%
X131612500Y-127850000D02*
X131612500Y-126850000D01*
X131612500Y-139850000D02*
X131612500Y-138850000D01*
X131612500Y-139850000D02*
X132612500Y-139850000D01*
X132612500Y-126850000D02*
X131612500Y-126850000D01*
X143612500Y-139850000D02*
X144612500Y-139850000D01*
X144612500Y-126850000D02*
X143612500Y-126850000D01*
X144612500Y-126850000D02*
X144612500Y-127850000D01*
X144612500Y-138850000D02*
X144612500Y-139850000D01*
%TO.C,SW32*%
X112562500Y-127850000D02*
X112562500Y-126850000D01*
X112562500Y-139850000D02*
X112562500Y-138850000D01*
X112562500Y-139850000D02*
X113562500Y-139850000D01*
X113562500Y-126850000D02*
X112562500Y-126850000D01*
X124562500Y-139850000D02*
X125562500Y-139850000D01*
X125562500Y-126850000D02*
X124562500Y-126850000D01*
X125562500Y-126850000D02*
X125562500Y-127850000D01*
X125562500Y-138850000D02*
X125562500Y-139850000D01*
%TO.C,SW31*%
X93512500Y-127850000D02*
X93512500Y-126850000D01*
X93512500Y-139850000D02*
X93512500Y-138850000D01*
X93512500Y-139850000D02*
X94512500Y-139850000D01*
X94512500Y-126850000D02*
X93512500Y-126850000D01*
X105512500Y-139850000D02*
X106512500Y-139850000D01*
X106512500Y-126850000D02*
X105512500Y-126850000D01*
X106512500Y-126850000D02*
X106512500Y-127850000D01*
X106512500Y-138850000D02*
X106512500Y-139850000D01*
%TO.C,SW30*%
X74462500Y-127850000D02*
X74462500Y-126850000D01*
X74462500Y-139850000D02*
X74462500Y-138850000D01*
X74462500Y-139850000D02*
X75462500Y-139850000D01*
X75462500Y-126850000D02*
X74462500Y-126850000D01*
X86462500Y-139850000D02*
X87462500Y-139850000D01*
X87462500Y-126850000D02*
X86462500Y-126850000D01*
X87462500Y-126850000D02*
X87462500Y-127850000D01*
X87462500Y-138850000D02*
X87462500Y-139850000D01*
%TO.C,SW29*%
X341162500Y-108800000D02*
X341162500Y-107800000D01*
X341162500Y-120800000D02*
X341162500Y-119800000D01*
X341162500Y-120800000D02*
X342162500Y-120800000D01*
X342162500Y-107800000D02*
X341162500Y-107800000D01*
X353162500Y-120800000D02*
X354162500Y-120800000D01*
X354162500Y-107800000D02*
X353162500Y-107800000D01*
X354162500Y-107800000D02*
X354162500Y-108800000D01*
X354162500Y-119800000D02*
X354162500Y-120800000D01*
%TO.C,SW28*%
X322112500Y-108800000D02*
X322112500Y-107800000D01*
X322112500Y-120800000D02*
X322112500Y-119800000D01*
X322112500Y-120800000D02*
X323112500Y-120800000D01*
X323112500Y-107800000D02*
X322112500Y-107800000D01*
X334112500Y-120800000D02*
X335112500Y-120800000D01*
X335112500Y-107800000D02*
X334112500Y-107800000D01*
X335112500Y-107800000D02*
X335112500Y-108800000D01*
X335112500Y-119800000D02*
X335112500Y-120800000D01*
%TO.C,SW27*%
X303062500Y-108800000D02*
X303062500Y-107800000D01*
X303062500Y-120800000D02*
X303062500Y-119800000D01*
X303062500Y-120800000D02*
X304062500Y-120800000D01*
X304062500Y-107800000D02*
X303062500Y-107800000D01*
X315062500Y-120800000D02*
X316062500Y-120800000D01*
X316062500Y-107800000D02*
X315062500Y-107800000D01*
X316062500Y-107800000D02*
X316062500Y-108800000D01*
X316062500Y-119800000D02*
X316062500Y-120800000D01*
%TO.C,SW26*%
X284012500Y-108800000D02*
X284012500Y-107800000D01*
X284012500Y-120800000D02*
X284012500Y-119800000D01*
X284012500Y-120800000D02*
X285012500Y-120800000D01*
X285012500Y-107800000D02*
X284012500Y-107800000D01*
X296012500Y-120800000D02*
X297012500Y-120800000D01*
X297012500Y-107800000D02*
X296012500Y-107800000D01*
X297012500Y-107800000D02*
X297012500Y-108800000D01*
X297012500Y-119800000D02*
X297012500Y-120800000D01*
%TO.C,SW25*%
X264962500Y-108800000D02*
X264962500Y-107800000D01*
X264962500Y-120800000D02*
X264962500Y-119800000D01*
X264962500Y-120800000D02*
X265962500Y-120800000D01*
X265962500Y-107800000D02*
X264962500Y-107800000D01*
X276962500Y-120800000D02*
X277962500Y-120800000D01*
X277962500Y-107800000D02*
X276962500Y-107800000D01*
X277962500Y-107800000D02*
X277962500Y-108800000D01*
X277962500Y-119800000D02*
X277962500Y-120800000D01*
%TO.C,SW24*%
X245912500Y-108800000D02*
X245912500Y-107800000D01*
X245912500Y-120800000D02*
X245912500Y-119800000D01*
X245912500Y-120800000D02*
X246912500Y-120800000D01*
X246912500Y-107800000D02*
X245912500Y-107800000D01*
X257912500Y-120800000D02*
X258912500Y-120800000D01*
X258912500Y-107800000D02*
X257912500Y-107800000D01*
X258912500Y-107800000D02*
X258912500Y-108800000D01*
X258912500Y-119800000D02*
X258912500Y-120800000D01*
%TO.C,SW23*%
X226862500Y-108800000D02*
X226862500Y-107800000D01*
X226862500Y-120800000D02*
X226862500Y-119800000D01*
X226862500Y-120800000D02*
X227862500Y-120800000D01*
X227862500Y-107800000D02*
X226862500Y-107800000D01*
X238862500Y-120800000D02*
X239862500Y-120800000D01*
X239862500Y-107800000D02*
X238862500Y-107800000D01*
X239862500Y-107800000D02*
X239862500Y-108800000D01*
X239862500Y-119800000D02*
X239862500Y-120800000D01*
%TO.C,SW22*%
X207812500Y-108800000D02*
X207812500Y-107800000D01*
X207812500Y-120800000D02*
X207812500Y-119800000D01*
X207812500Y-120800000D02*
X208812500Y-120800000D01*
X208812500Y-107800000D02*
X207812500Y-107800000D01*
X219812500Y-120800000D02*
X220812500Y-120800000D01*
X220812500Y-107800000D02*
X219812500Y-107800000D01*
X220812500Y-107800000D02*
X220812500Y-108800000D01*
X220812500Y-119800000D02*
X220812500Y-120800000D01*
%TO.C,SW21*%
X188762500Y-108800000D02*
X188762500Y-107800000D01*
X188762500Y-120800000D02*
X188762500Y-119800000D01*
X188762500Y-120800000D02*
X189762500Y-120800000D01*
X189762500Y-107800000D02*
X188762500Y-107800000D01*
X200762500Y-120800000D02*
X201762500Y-120800000D01*
X201762500Y-107800000D02*
X200762500Y-107800000D01*
X201762500Y-107800000D02*
X201762500Y-108800000D01*
X201762500Y-119800000D02*
X201762500Y-120800000D01*
%TO.C,SW20*%
X169712500Y-108800000D02*
X169712500Y-107800000D01*
X169712500Y-120800000D02*
X169712500Y-119800000D01*
X169712500Y-120800000D02*
X170712500Y-120800000D01*
X170712500Y-107800000D02*
X169712500Y-107800000D01*
X181712500Y-120800000D02*
X182712500Y-120800000D01*
X182712500Y-107800000D02*
X181712500Y-107800000D01*
X182712500Y-107800000D02*
X182712500Y-108800000D01*
X182712500Y-119800000D02*
X182712500Y-120800000D01*
%TO.C,SW19*%
X150662500Y-108800000D02*
X150662500Y-107800000D01*
X150662500Y-120800000D02*
X150662500Y-119800000D01*
X150662500Y-120800000D02*
X151662500Y-120800000D01*
X151662500Y-107800000D02*
X150662500Y-107800000D01*
X162662500Y-120800000D02*
X163662500Y-120800000D01*
X163662500Y-107800000D02*
X162662500Y-107800000D01*
X163662500Y-107800000D02*
X163662500Y-108800000D01*
X163662500Y-119800000D02*
X163662500Y-120800000D01*
%TO.C,SW18*%
X131612500Y-108800000D02*
X131612500Y-107800000D01*
X131612500Y-120800000D02*
X131612500Y-119800000D01*
X131612500Y-120800000D02*
X132612500Y-120800000D01*
X132612500Y-107800000D02*
X131612500Y-107800000D01*
X143612500Y-120800000D02*
X144612500Y-120800000D01*
X144612500Y-107800000D02*
X143612500Y-107800000D01*
X144612500Y-107800000D02*
X144612500Y-108800000D01*
X144612500Y-119800000D02*
X144612500Y-120800000D01*
%TO.C,SW17*%
X112562500Y-108800000D02*
X112562500Y-107800000D01*
X112562500Y-120800000D02*
X112562500Y-119800000D01*
X112562500Y-120800000D02*
X113562500Y-120800000D01*
X113562500Y-107800000D02*
X112562500Y-107800000D01*
X124562500Y-120800000D02*
X125562500Y-120800000D01*
X125562500Y-107800000D02*
X124562500Y-107800000D01*
X125562500Y-107800000D02*
X125562500Y-108800000D01*
X125562500Y-119800000D02*
X125562500Y-120800000D01*
%TO.C,SW16*%
X93512500Y-108800000D02*
X93512500Y-107800000D01*
X93512500Y-120800000D02*
X93512500Y-119800000D01*
X93512500Y-120800000D02*
X94512500Y-120800000D01*
X94512500Y-107800000D02*
X93512500Y-107800000D01*
X105512500Y-120800000D02*
X106512500Y-120800000D01*
X106512500Y-107800000D02*
X105512500Y-107800000D01*
X106512500Y-107800000D02*
X106512500Y-108800000D01*
X106512500Y-119800000D02*
X106512500Y-120800000D01*
%TO.C,SW15*%
X74462500Y-108800000D02*
X74462500Y-107800000D01*
X74462500Y-120800000D02*
X74462500Y-119800000D01*
X74462500Y-120800000D02*
X75462500Y-120800000D01*
X75462500Y-107800000D02*
X74462500Y-107800000D01*
X86462500Y-120800000D02*
X87462500Y-120800000D01*
X87462500Y-107800000D02*
X86462500Y-107800000D01*
X87462500Y-107800000D02*
X87462500Y-108800000D01*
X87462500Y-119800000D02*
X87462500Y-120800000D01*
%TO.C,SW13*%
X322112500Y-89750000D02*
X322112500Y-88750000D01*
X322112500Y-101750000D02*
X322112500Y-100750000D01*
X322112500Y-101750000D02*
X323112500Y-101750000D01*
X323112500Y-88750000D02*
X322112500Y-88750000D01*
X334112500Y-101750000D02*
X335112500Y-101750000D01*
X335112500Y-88750000D02*
X334112500Y-88750000D01*
X335112500Y-88750000D02*
X335112500Y-89750000D01*
X335112500Y-100750000D02*
X335112500Y-101750000D01*
%TO.C,SW12*%
X303062500Y-89750000D02*
X303062500Y-88750000D01*
X303062500Y-101750000D02*
X303062500Y-100750000D01*
X303062500Y-101750000D02*
X304062500Y-101750000D01*
X304062500Y-88750000D02*
X303062500Y-88750000D01*
X315062500Y-101750000D02*
X316062500Y-101750000D01*
X316062500Y-88750000D02*
X315062500Y-88750000D01*
X316062500Y-88750000D02*
X316062500Y-89750000D01*
X316062500Y-100750000D02*
X316062500Y-101750000D01*
%TO.C,SW11*%
X284012500Y-89750000D02*
X284012500Y-88750000D01*
X284012500Y-101750000D02*
X284012500Y-100750000D01*
X284012500Y-101750000D02*
X285012500Y-101750000D01*
X285012500Y-88750000D02*
X284012500Y-88750000D01*
X296012500Y-101750000D02*
X297012500Y-101750000D01*
X297012500Y-88750000D02*
X296012500Y-88750000D01*
X297012500Y-88750000D02*
X297012500Y-89750000D01*
X297012500Y-100750000D02*
X297012500Y-101750000D01*
%TO.C,SW10*%
X264962500Y-89750000D02*
X264962500Y-88750000D01*
X264962500Y-101750000D02*
X264962500Y-100750000D01*
X264962500Y-101750000D02*
X265962500Y-101750000D01*
X265962500Y-88750000D02*
X264962500Y-88750000D01*
X276962500Y-101750000D02*
X277962500Y-101750000D01*
X277962500Y-88750000D02*
X276962500Y-88750000D01*
X277962500Y-88750000D02*
X277962500Y-89750000D01*
X277962500Y-100750000D02*
X277962500Y-101750000D01*
%TO.C,SW9*%
X245912500Y-89750000D02*
X245912500Y-88750000D01*
X245912500Y-101750000D02*
X245912500Y-100750000D01*
X245912500Y-101750000D02*
X246912500Y-101750000D01*
X246912500Y-88750000D02*
X245912500Y-88750000D01*
X257912500Y-101750000D02*
X258912500Y-101750000D01*
X258912500Y-88750000D02*
X257912500Y-88750000D01*
X258912500Y-88750000D02*
X258912500Y-89750000D01*
X258912500Y-100750000D02*
X258912500Y-101750000D01*
%TO.C,SW8*%
X226862500Y-89750000D02*
X226862500Y-88750000D01*
X226862500Y-101750000D02*
X226862500Y-100750000D01*
X226862500Y-101750000D02*
X227862500Y-101750000D01*
X227862500Y-88750000D02*
X226862500Y-88750000D01*
X238862500Y-101750000D02*
X239862500Y-101750000D01*
X239862500Y-88750000D02*
X238862500Y-88750000D01*
X239862500Y-88750000D02*
X239862500Y-89750000D01*
X239862500Y-100750000D02*
X239862500Y-101750000D01*
%TO.C,SW7*%
X207812500Y-89750000D02*
X207812500Y-88750000D01*
X207812500Y-101750000D02*
X207812500Y-100750000D01*
X207812500Y-101750000D02*
X208812500Y-101750000D01*
X208812500Y-88750000D02*
X207812500Y-88750000D01*
X219812500Y-101750000D02*
X220812500Y-101750000D01*
X220812500Y-88750000D02*
X219812500Y-88750000D01*
X220812500Y-88750000D02*
X220812500Y-89750000D01*
X220812500Y-100750000D02*
X220812500Y-101750000D01*
%TO.C,SW6*%
X188762500Y-89750000D02*
X188762500Y-88750000D01*
X188762500Y-101750000D02*
X188762500Y-100750000D01*
X188762500Y-101750000D02*
X189762500Y-101750000D01*
X189762500Y-88750000D02*
X188762500Y-88750000D01*
X200762500Y-101750000D02*
X201762500Y-101750000D01*
X201762500Y-88750000D02*
X200762500Y-88750000D01*
X201762500Y-88750000D02*
X201762500Y-89750000D01*
X201762500Y-100750000D02*
X201762500Y-101750000D01*
%TO.C,SW5*%
X169712500Y-89750000D02*
X169712500Y-88750000D01*
X169712500Y-101750000D02*
X169712500Y-100750000D01*
X169712500Y-101750000D02*
X170712500Y-101750000D01*
X170712500Y-88750000D02*
X169712500Y-88750000D01*
X181712500Y-101750000D02*
X182712500Y-101750000D01*
X182712500Y-88750000D02*
X181712500Y-88750000D01*
X182712500Y-88750000D02*
X182712500Y-89750000D01*
X182712500Y-100750000D02*
X182712500Y-101750000D01*
%TO.C,SW4*%
X150662500Y-89750000D02*
X150662500Y-88750000D01*
X150662500Y-101750000D02*
X150662500Y-100750000D01*
X150662500Y-101750000D02*
X151662500Y-101750000D01*
X151662500Y-88750000D02*
X150662500Y-88750000D01*
X162662500Y-101750000D02*
X163662500Y-101750000D01*
X163662500Y-88750000D02*
X162662500Y-88750000D01*
X163662500Y-88750000D02*
X163662500Y-89750000D01*
X163662500Y-100750000D02*
X163662500Y-101750000D01*
%TO.C,SW3*%
X131612500Y-89750000D02*
X131612500Y-88750000D01*
X131612500Y-101750000D02*
X131612500Y-100750000D01*
X131612500Y-101750000D02*
X132612500Y-101750000D01*
X132612500Y-88750000D02*
X131612500Y-88750000D01*
X143612500Y-101750000D02*
X144612500Y-101750000D01*
X144612500Y-88750000D02*
X143612500Y-88750000D01*
X144612500Y-88750000D02*
X144612500Y-89750000D01*
X144612500Y-100750000D02*
X144612500Y-101750000D01*
%TO.C,SW2*%
X112562500Y-89750000D02*
X112562500Y-88750000D01*
X112562500Y-101750000D02*
X112562500Y-100750000D01*
X112562500Y-101750000D02*
X113562500Y-101750000D01*
X113562500Y-88750000D02*
X112562500Y-88750000D01*
X124562500Y-101750000D02*
X125562500Y-101750000D01*
X125562500Y-88750000D02*
X124562500Y-88750000D01*
X125562500Y-88750000D02*
X125562500Y-89750000D01*
X125562500Y-100750000D02*
X125562500Y-101750000D01*
%TO.C,SW1*%
X93512500Y-89750000D02*
X93512500Y-88750000D01*
X93512500Y-101750000D02*
X93512500Y-100750000D01*
X93512500Y-101750000D02*
X94512500Y-101750000D01*
X94512500Y-88750000D02*
X93512500Y-88750000D01*
X105512500Y-101750000D02*
X106512500Y-101750000D01*
X106512500Y-88750000D02*
X105512500Y-88750000D01*
X106512500Y-88750000D02*
X106512500Y-89750000D01*
X106512500Y-100750000D02*
X106512500Y-101750000D01*
%TO.C,SW0*%
X74462500Y-89750000D02*
X74462500Y-88750000D01*
X74462500Y-101750000D02*
X74462500Y-100750000D01*
X74462500Y-101750000D02*
X75462500Y-101750000D01*
X75462500Y-88750000D02*
X74462500Y-88750000D01*
X86462500Y-101750000D02*
X87462500Y-101750000D01*
X87462500Y-88750000D02*
X86462500Y-88750000D01*
X87462500Y-88750000D02*
X87462500Y-89750000D01*
X87462500Y-100750000D02*
X87462500Y-101750000D01*
D12*
%TO.C,A0*%
X271660000Y-49360000D02*
X271660000Y-46690000D01*
X228350000Y-59650000D02*
X228350000Y-51770000D01*
X230890000Y-64730000D02*
X274330000Y-64730000D01*
X228350000Y-51770000D02*
X238770000Y-51770000D01*
X238770000Y-59650000D02*
X228350000Y-59650000D01*
X230890000Y-64730000D02*
X230890000Y-59650000D01*
X269120000Y-46690000D02*
X230890000Y-46690000D01*
X233560000Y-49360000D02*
X233560000Y-46690000D01*
X271660000Y-62060000D02*
X233560000Y-62060000D01*
X269120000Y-49360000D02*
X271660000Y-49360000D01*
X233560000Y-62060000D02*
X233560000Y-64730000D01*
X271660000Y-62060000D02*
X271660000Y-64730000D01*
X269120000Y-49360000D02*
X269120000Y-46690000D01*
X274330000Y-64730000D02*
X274330000Y-46690000D01*
X230890000Y-46690000D02*
X230890000Y-51770000D01*
X274330000Y-46690000D02*
X271660000Y-46690000D01*
X238770000Y-51770000D02*
X238770000Y-59650000D01*
X269120000Y-49360000D02*
X233560000Y-49360000D01*
%TO.C,SW14*%
X354612500Y-98950000D02*
X354612500Y-101550000D01*
X346012500Y-88950000D02*
X341212500Y-88950000D01*
X340712500Y-91150000D02*
X340412500Y-91450000D01*
X354612500Y-101550000D02*
X349712500Y-101550000D01*
X354612500Y-88950000D02*
X354612500Y-91550000D01*
X347912500Y-94750000D02*
X347912500Y-95750000D01*
X341212500Y-88950000D02*
X341212500Y-91450000D01*
X340112500Y-91150000D02*
X340712500Y-91150000D01*
X349712500Y-88950000D02*
X354612500Y-88950000D01*
X354612500Y-93950000D02*
X354612500Y-96550000D01*
X340412500Y-91450000D02*
X340112500Y-91150000D01*
X346112500Y-101550000D02*
X341212500Y-101550000D01*
X341212500Y-101550000D02*
X341212500Y-98750000D01*
X347412500Y-95250000D02*
X348412500Y-95250000D01*
X350912500Y-95250000D02*
G75*
G03*
X344912500Y-95250000I-3000000J0D01*
G01*
X344912500Y-95250000D02*
G75*
G03*
X350912500Y-95250000I3000000J0D01*
G01*
%TD*%
M02*
