%TF.GenerationSoftware,KiCad,Pcbnew,7.0.10*%
%TF.CreationDate,2024-03-07T22:32:39+00:00*%
%TF.ProjectId,keyboard,6b657962-6f61-4726-942e-6b696361645f,rev?*%
%TF.SameCoordinates,Original*%
%TF.FileFunction,Paste,Bot*%
%TF.FilePolarity,Positive*%
%FSLAX46Y46*%
G04 Gerber Fmt 4.6, Leading zero omitted, Abs format (unit mm)*
G04 Created by KiCad (PCBNEW 7.0.10) date 2024-03-07 22:32:39*
%MOMM*%
%LPD*%
G01*
G04 APERTURE LIST*
G04 Aperture macros list*
%AMRoundRect*
0 Rectangle with rounded corners*
0 $1 Rounding radius*
0 $2 $3 $4 $5 $6 $7 $8 $9 X,Y pos of 4 corners*
0 Add a 4 corners polygon primitive as box body*
4,1,4,$2,$3,$4,$5,$6,$7,$8,$9,$2,$3,0*
0 Add four circle primitives for the rounded corners*
1,1,$1+$1,$2,$3*
1,1,$1+$1,$4,$5*
1,1,$1+$1,$6,$7*
1,1,$1+$1,$8,$9*
0 Add four rect primitives between the rounded corners*
20,1,$1+$1,$2,$3,$4,$5,0*
20,1,$1+$1,$4,$5,$6,$7,0*
20,1,$1+$1,$6,$7,$8,$9,0*
20,1,$1+$1,$8,$9,$2,$3,0*%
%AMFreePoly0*
4,1,17,1.800000,-0.700000,3.400000,-2.500000,4.900000,-2.500000,5.500000,-1.600000,6.700000,-1.600000,7.000000,-2.600000,7.900000,-3.700000,9.300000,-3.700000,9.300000,-4.800000,7.500000,-4.800000,6.800000,-3.500000,3.500000,-3.500000,1.700000,-1.800000,-0.900000,-1.800000,-0.900000,1.300000,1.800000,1.300000,1.800000,-0.700000,1.800000,-0.700000,$1*%
G04 Aperture macros list end*
%ADD10FreePoly0,180.000000*%
%ADD11RoundRect,0.480000X1.370000X0.720000X-1.370000X0.720000X-1.370000X-0.720000X1.370000X-0.720000X0*%
%ADD12FreePoly0,0.000000*%
%ADD13RoundRect,0.480000X-1.370000X-0.720000X1.370000X-0.720000X1.370000X0.720000X-1.370000X0.720000X0*%
G04 APERTURE END LIST*
D10*
%TO.C,SW82*%
X346737500Y-110500000D03*
D11*
X333087500Y-108500000D03*
%TD*%
D12*
%TO.C,SW81*%
X291437500Y-156200000D03*
D13*
X305087500Y-158200000D03*
%TD*%
D12*
%TO.C,SW80*%
X215237500Y-175250000D03*
D13*
X228887500Y-177250000D03*
%TD*%
D10*
%TO.C,SW79*%
X99087500Y-148600000D03*
D11*
X85437500Y-146600000D03*
%TD*%
D12*
%TO.C,SW78*%
X196187500Y-175250000D03*
D13*
X209837500Y-177250000D03*
%TD*%
D12*
%TO.C,SW77*%
X329537500Y-137150000D03*
D13*
X343187500Y-139150000D03*
%TD*%
D12*
%TO.C,SW75*%
X158087500Y-175250000D03*
D13*
X171737500Y-177250000D03*
%TD*%
D12*
%TO.C,SW74*%
X339062500Y-175250000D03*
D13*
X352712500Y-177250000D03*
%TD*%
D12*
%TO.C,SW73*%
X320012500Y-175250000D03*
D13*
X333662500Y-177250000D03*
%TD*%
D12*
%TO.C,SW72*%
X300962500Y-175250000D03*
D13*
X314612500Y-177250000D03*
%TD*%
D12*
%TO.C,SW71*%
X281912500Y-175250000D03*
D13*
X295562500Y-177250000D03*
%TD*%
D12*
%TO.C,SW70*%
X262862500Y-175250000D03*
D13*
X276512500Y-177250000D03*
%TD*%
D12*
%TO.C,SW69*%
X243812500Y-175250000D03*
D13*
X257462500Y-177250000D03*
%TD*%
D12*
%TO.C,SW68*%
X224762500Y-175250000D03*
D13*
X238412500Y-177250000D03*
%TD*%
D12*
%TO.C,SW67*%
X205712500Y-175250000D03*
D13*
X219362500Y-177250000D03*
%TD*%
D12*
%TO.C,SW66*%
X186662500Y-175250000D03*
D13*
X200312500Y-177250000D03*
%TD*%
D12*
%TO.C,SW65*%
X167612500Y-175250000D03*
D13*
X181262500Y-177250000D03*
%TD*%
D12*
%TO.C,SW64*%
X148562500Y-175250000D03*
D13*
X162212500Y-177250000D03*
%TD*%
D12*
%TO.C,SW63*%
X129512500Y-175250000D03*
D13*
X143162500Y-177250000D03*
%TD*%
D12*
%TO.C,SW62*%
X110462500Y-175250000D03*
D13*
X124112500Y-177250000D03*
%TD*%
D12*
%TO.C,SW61*%
X91412500Y-175250000D03*
D13*
X105062500Y-177250000D03*
%TD*%
D12*
%TO.C,SW60*%
X72362500Y-175250000D03*
D13*
X86012500Y-177250000D03*
%TD*%
D12*
%TO.C,SW59*%
X339062500Y-156200000D03*
D13*
X352712500Y-158200000D03*
%TD*%
D12*
%TO.C,SW58*%
X320012500Y-156200000D03*
D13*
X333662500Y-158200000D03*
%TD*%
D12*
%TO.C,SW57*%
X300962500Y-156200000D03*
D13*
X314612500Y-158200000D03*
%TD*%
D12*
%TO.C,SW56*%
X281912500Y-156200000D03*
D13*
X295562500Y-158200000D03*
%TD*%
D12*
%TO.C,SW55*%
X262862500Y-156200000D03*
D13*
X276512500Y-158200000D03*
%TD*%
D12*
%TO.C,SW54*%
X243812500Y-156200000D03*
D13*
X257462500Y-158200000D03*
%TD*%
D12*
%TO.C,SW53*%
X224762500Y-156200000D03*
D13*
X238412500Y-158200000D03*
%TD*%
D12*
%TO.C,SW52*%
X205712500Y-156200000D03*
D13*
X219362500Y-158200000D03*
%TD*%
D12*
%TO.C,SW51*%
X186662500Y-156200000D03*
D13*
X200312500Y-158200000D03*
%TD*%
D12*
%TO.C,SW50*%
X167612500Y-156200000D03*
D13*
X181262500Y-158200000D03*
%TD*%
D12*
%TO.C,SW49*%
X148562500Y-156200000D03*
D13*
X162212500Y-158200000D03*
%TD*%
D12*
%TO.C,SW48*%
X129512500Y-156200000D03*
D13*
X143162500Y-158200000D03*
%TD*%
D12*
%TO.C,SW47*%
X110462500Y-156200000D03*
D13*
X124112500Y-158200000D03*
%TD*%
D12*
%TO.C,SW46*%
X91412500Y-156200000D03*
D13*
X105062500Y-158200000D03*
%TD*%
D12*
%TO.C,SW45*%
X72362500Y-156200000D03*
D13*
X86012500Y-158200000D03*
%TD*%
D12*
%TO.C,SW44*%
X339062500Y-137150000D03*
D13*
X352712500Y-139150000D03*
%TD*%
D12*
%TO.C,SW43*%
X320012500Y-137150000D03*
D13*
X333662500Y-139150000D03*
%TD*%
D12*
%TO.C,SW42*%
X300962500Y-137150000D03*
D13*
X314612500Y-139150000D03*
%TD*%
D12*
%TO.C,SW41*%
X281912500Y-137150000D03*
D13*
X295562500Y-139150000D03*
%TD*%
D12*
%TO.C,SW40*%
X262862500Y-137150000D03*
D13*
X276512500Y-139150000D03*
%TD*%
D12*
%TO.C,SW39*%
X243812500Y-137150000D03*
D13*
X257462500Y-139150000D03*
%TD*%
D12*
%TO.C,SW38*%
X224762500Y-137150000D03*
D13*
X238412500Y-139150000D03*
%TD*%
D12*
%TO.C,SW37*%
X205712500Y-137150000D03*
D13*
X219362500Y-139150000D03*
%TD*%
D12*
%TO.C,SW36*%
X186662500Y-137150000D03*
D13*
X200312500Y-139150000D03*
%TD*%
D12*
%TO.C,SW35*%
X167612500Y-137150000D03*
D13*
X181262500Y-139150000D03*
%TD*%
D12*
%TO.C,SW34*%
X148562500Y-137150000D03*
D13*
X162212500Y-139150000D03*
%TD*%
D12*
%TO.C,SW33*%
X129512500Y-137150000D03*
D13*
X143162500Y-139150000D03*
%TD*%
D12*
%TO.C,SW32*%
X110462500Y-137150000D03*
D13*
X124112500Y-139150000D03*
%TD*%
D12*
%TO.C,SW31*%
X91412500Y-137150000D03*
D13*
X105062500Y-139150000D03*
%TD*%
D12*
%TO.C,SW30*%
X72362500Y-137150000D03*
D13*
X86012500Y-139150000D03*
%TD*%
D12*
%TO.C,SW29*%
X339062500Y-118100000D03*
D13*
X352712500Y-120100000D03*
%TD*%
D12*
%TO.C,SW28*%
X320012500Y-118100000D03*
D13*
X333662500Y-120100000D03*
%TD*%
D12*
%TO.C,SW27*%
X300962500Y-118100000D03*
D13*
X314612500Y-120100000D03*
%TD*%
D12*
%TO.C,SW26*%
X281912500Y-118100000D03*
D13*
X295562500Y-120100000D03*
%TD*%
D12*
%TO.C,SW25*%
X262862500Y-118100000D03*
D13*
X276512500Y-120100000D03*
%TD*%
D12*
%TO.C,SW24*%
X243812500Y-118100000D03*
D13*
X257462500Y-120100000D03*
%TD*%
D12*
%TO.C,SW23*%
X224762500Y-118100000D03*
D13*
X238412500Y-120100000D03*
%TD*%
D12*
%TO.C,SW22*%
X205712500Y-118100000D03*
D13*
X219362500Y-120100000D03*
%TD*%
D12*
%TO.C,SW21*%
X186662500Y-118100000D03*
D13*
X200312500Y-120100000D03*
%TD*%
D12*
%TO.C,SW20*%
X167612500Y-118100000D03*
D13*
X181262500Y-120100000D03*
%TD*%
D12*
%TO.C,SW19*%
X148562500Y-118100000D03*
D13*
X162212500Y-120100000D03*
%TD*%
D12*
%TO.C,SW18*%
X129512500Y-118100000D03*
D13*
X143162500Y-120100000D03*
%TD*%
D12*
%TO.C,SW17*%
X110462500Y-118100000D03*
D13*
X124112500Y-120100000D03*
%TD*%
D12*
%TO.C,SW16*%
X91412500Y-118100000D03*
D13*
X105062500Y-120100000D03*
%TD*%
D12*
%TO.C,SW15*%
X72362500Y-118100000D03*
D13*
X86012500Y-120100000D03*
%TD*%
D12*
%TO.C,SW13*%
X320012500Y-99050000D03*
D13*
X333662500Y-101050000D03*
%TD*%
D12*
%TO.C,SW12*%
X300962500Y-99050000D03*
D13*
X314612500Y-101050000D03*
%TD*%
D12*
%TO.C,SW11*%
X281912500Y-99050000D03*
D13*
X295562500Y-101050000D03*
%TD*%
D12*
%TO.C,SW10*%
X262862500Y-99050000D03*
D13*
X276512500Y-101050000D03*
%TD*%
D12*
%TO.C,SW9*%
X243812500Y-99050000D03*
D13*
X257462500Y-101050000D03*
%TD*%
D12*
%TO.C,SW8*%
X224762500Y-99050000D03*
D13*
X238412500Y-101050000D03*
%TD*%
D12*
%TO.C,SW7*%
X205712500Y-99050000D03*
D13*
X219362500Y-101050000D03*
%TD*%
D12*
%TO.C,SW6*%
X186662500Y-99050000D03*
D13*
X200312500Y-101050000D03*
%TD*%
D12*
%TO.C,SW5*%
X167612500Y-99050000D03*
D13*
X181262500Y-101050000D03*
%TD*%
D12*
%TO.C,SW4*%
X148562500Y-99050000D03*
D13*
X162212500Y-101050000D03*
%TD*%
D12*
%TO.C,SW3*%
X129512500Y-99050000D03*
D13*
X143162500Y-101050000D03*
%TD*%
D12*
%TO.C,SW2*%
X110462500Y-99050000D03*
D13*
X124112500Y-101050000D03*
%TD*%
D12*
%TO.C,SW1*%
X91412500Y-99050000D03*
D13*
X105062500Y-101050000D03*
%TD*%
D12*
%TO.C,SW0*%
X72362500Y-99050000D03*
D13*
X86012500Y-101050000D03*
%TD*%
M02*
